<svg xmlns="http://www.w3.org/2000/svg" width="326" height="322" fill="none"><path fill="url(#a)" d="M59.833 3a2.667 2.667 0 1 0 5.334 0 2.667 2.667 0 0 0-5.334 0Zm168.5 83.5a2.667 2.667 0 1 0 5.334 0 2.667 2.667 0 0 0-5.334 0ZM62.5 3.5h78v-1h-78v1ZM148 11v67.5h1V11h-1Zm8.5 76H231v-1h-74.5v1Zm-8.5-8.5a8.5 8.5 0 0 0 8.5 8.5v-1a7.5 7.5 0 0 1-7.5-7.5h-1Zm-7.5-75A7.5 7.5 0 0 1 148 11h1a8.5 8.5 0 0 0-8.5-8.5v1Z"/><path fill="url(#b)" d="M-107.667 318.5a2.667 2.667 0 1 0 5.334 0 2.667 2.667 0 0 0-5.334 0Zm428-85a2.667 2.667 0 1 0 5.334 0 2.667 2.667 0 0 0-5.334 0ZM-105 319h285.015v-1H-105v1Zm293.515-8.5v-16.807h-1V310.5h1Zm7.5-24.307h52.041v-1h-52.041v1Zm60.541-8.5V241.5h-1v36.193h1Zm7.5-43.693H323v-1h-58.944v1Zm-7.5 7.5a7.5 7.5 0 0 1 7.5-7.5v-1a8.5 8.5 0 0 0-8.5 8.5h1Zm-8.5 44.693a8.5 8.5 0 0 0 8.5-8.5h-1a7.5 7.5 0 0 1-7.5 7.5v1Zm-59.541 7.5a7.5 7.5 0 0 1 7.5-7.5v-1a8.5 8.5 0 0 0-8.5 8.5h1Zm-8.5 25.307a8.5 8.5 0 0 0 8.5-8.5h-1a7.5 7.5 0 0 1-7.5 7.5v1Z"/><path fill="url(#c)" d="M-79.667 191.5a2.667 2.667 0 1 0 5.334 0 2.667 2.667 0 0 0-5.334 0Zm344.5-26.5a2.667 2.667 0 1 0 5.334 0 2.667 2.667 0 0 0-5.334 0Zm-190.676 2.343.353.354-.353-.354Zm-21.814 21.814.354.353-.354-.353ZM-77 192H46.686v-1H-77v1Zm129.697-2.49 21.813-21.813-.707-.707-21.813 21.813.707.707Zm27.117-24.01H267.5v-1H79.814v1Zm-5.304 2.197a7.498 7.498 0 0 1 5.304-2.197v-1a8.5 8.5 0 0 0-6.01 2.49l.706.707ZM46.686 192a8.5 8.5 0 0 0 6.01-2.49l-.706-.707A7.498 7.498 0 0 1 46.686 191v1Z"/><defs><linearGradient id="a" x1="14.5" x2="321.5" y1="20.5" y2="103.5" gradientUnits="userSpaceOnUse"><stop stop-color="#0F002D"/><stop offset="1" stop-color="#A77EFF"/></linearGradient><linearGradient id="b" x1="-49.58" x2="382.795" y1="292.652" y2="286.595" gradientUnits="userSpaceOnUse"><stop offset=".089" stop-color="#0F002D"/><stop offset="1" stop-color="#A77EFF"/></linearGradient><linearGradient id="c" x1="-32.392" x2="315.243" y1="183.442" y2="170.868" gradientUnits="userSpaceOnUse"><stop offset=".089" stop-color="#0F002D"/><stop offset="1" stop-color="#A77EFF"/></linearGradient></defs></svg>