<svg width="183" height="36" fill="none" xmlns="http://www.w3.org/2000/svg"><path d="M3.807 33.848c0 1.325-.331 1.656-1.655 1.656h-.497C.331 35.504 0 35.173 0 33.848v-14.4c0-5.793 2.897-9.434 10.593-9.434 7.78 0 10.51 3.559 10.51 9.434v14.4c0 1.325-.33 1.656-1.655 1.656h-.579c-1.324 0-1.655-.331-1.655-1.656v-14.4c0-3.724-1.242-5.876-6.704-5.876-5.379 0-6.786 2.152-6.786 5.876v14.4h.083ZM46.014 27.973C46.014 33.6 42.704 36 35.42 36c-5.38 0-9.517-2.069-9.517-7.614 0-5.379 3.724-7.365 10.344-7.365h5.959v-3.062c0-3.642-2.648-4.635-6.62-4.635-2.4 0-4.718.331-5.546.58-1.24.33-1.655-.083-1.655-1.242v-.414c0-1.241.331-1.49 1.49-1.737.745-.166 2.565-.497 5.462-.497 6.207 0 10.593 1.903 10.593 7.945v10.014h.083ZM42.29 24H36.33c-4.386 0-6.538 1.076-6.538 4.386 0 3.476 2.731 4.304 5.628 4.304 4.22 0 6.869-.828 6.869-4.883V24ZM52.055 1.655C52.055.331 52.386 0 53.71 0h.58c1.324 0 1.655.331 1.655 1.655v32.193c0 1.324-.331 1.655-1.655 1.655h-.58c-1.324 0-1.655-.33-1.655-1.655V1.655Zm13.242 10.428c1.158-1.242 1.903-1.49 3.558-1.49h.662c1.738 0 1.82.331.662 1.49l-7.862 8.276c-.662.744-1.076 1.241-1.076 1.903 0 .662.331 1.324.993 1.986l8.938 9.683c1.159 1.241 1.076 1.572-.662 1.572h-.579c-1.738 0-2.4-.33-3.559-1.572l-6.786-7.365c-1.738-1.821-2.069-2.98-2.069-4.387 0-1.407.331-2.317 2.07-4.138l5.71-5.958ZM78.538.248c1.407 0 2.4 1.076 2.4 2.483 0 1.324-1.076 2.4-2.4 2.4-1.407 0-2.566-1.076-2.566-2.4 0-1.324 1.159-2.483 2.566-2.483Zm-1.903 11.918c0-1.325.33-1.656 1.655-1.656h.579c1.324 0 1.655.331 1.655 1.655v21.683c0 1.324-.33 1.656-1.655 1.656h-.58c-1.323 0-1.654-.332-1.654-1.656V12.166ZM89.131 34.676c0 .58-.165.745-.745.745h-.248c-.58 0-.745-.166-.745-.745v-15.89c0-4.883 1.738-8.441 7.366-8.441 1.241 0 2.151.165 2.4.165.496.083.744.166.744.745v.331c0 .58-.248.745-.744.58-.166-.083-1.076-.249-2.4-.249-4.304 0-5.545 2.4-5.545 6.704v16.055h-.083ZM119.338 27.973c0 5.958-3.476 7.862-10.262 7.862-3.724 0-8.441-1.573-8.441-7.2 0-5.131 3.31-7.118 10.344-7.118h6.538v-3.806c0-4.387-2.896-5.628-7.614-5.628-2.896 0-5.131.414-6.455.828-.579.165-.662.082-.662-.497V12c0-.58.083-.745.745-.91 1.407-.331 3.393-.662 6.29-.662 5.379 0 9.434 1.738 9.434 7.365v10.18h.083ZM117.6 23.09h-6.455c-5.793 0-8.773 1.241-8.773 5.545 0 4.22 3.311 5.544 6.704 5.544 5.71 0 8.524-1.24 8.524-6.206V23.09ZM145.821 25.738c0 6.041-2.4 10.18-10.345 10.18-8.028 0-10.345-4.139-10.345-10.18v-5.214c0-6.041 2.4-10.18 10.345-10.18 4.8 0 7.365 1.656 8.607 4.304V.828c0-.58.165-.745.745-.745h.248c.579 0 .745.165.745.745v24.91Zm-19.035-5.214v5.131c0 5.545 1.904 8.524 8.607 8.524 6.704 0 8.607-2.896 8.607-8.524v-5.13c0-5.546-1.903-8.525-8.607-8.525-6.703.083-8.607 2.98-8.607 8.524ZM153.6 1.407c.828 0 1.407.58 1.407 1.407 0 .744-.579 1.407-1.407 1.407-.828 0-1.407-.58-1.407-1.407 0-.828.662-1.407 1.407-1.407Zm-.91 10.096c0-.579.165-.745.744-.745h.249c.579 0 .745.166.745.745v23.173c0 .579-.166.744-.745.744h-.249c-.579 0-.744-.165-.744-.744V11.503ZM161.462 25.738v-5.214c0-6.041 2.4-10.18 10.345-10.18 8.027 0 10.345 4.139 10.345 10.18v5.131c0 6.041-2.4 10.18-10.345 10.18-8.028.082-10.345-4.056-10.345-10.097Zm18.952 0v-5.214c0-5.545-1.904-8.524-8.607-8.524-6.704 0-8.607 2.896-8.607 8.524v5.131c0 5.545 1.903 8.524 8.607 8.524 6.703 0 8.607-2.896 8.607-8.441Z" fill="#262729"/></svg>