<svg width="1369" height="556" viewBox="0 0 1369 556" fill="none" xmlns="http://www.w3.org/2000/svg">
<g clip-path="url(#clip0)">
<path d="M689 351V495.5" stroke="#0457AA" stroke-width="3" stroke-linecap="round" stroke-linejoin="round"/>
<path d="M1310 225L1310 297" stroke="#0457AA" stroke-width="3" stroke-linecap="round" stroke-linejoin="round"/>
<path d="M688.5 416L636.5 468V557.5" stroke="#0457AA" stroke-width="3" stroke-linecap="round" stroke-linejoin="round"/>
<circle cx="688.5" cy="506.5" r="10.5" stroke="#FFBF1F" stroke-width="3" stroke-linecap="round"/>
<circle cx="1309.5" cy="307.5" r="10.5" stroke="#FFBF1F" stroke-width="3" stroke-linecap="round"/>
<path d="M1021 239.999L1021 258.498L891.156 258.498C890.071 258.498 889.007 258.792 888.076 259.349L737.504 349.409C736.574 349.966 735.509 350.26 734.425 350.26L488 350.26" stroke="#0457AA" stroke-width="3" stroke-linecap="round" stroke-linejoin="round"/>
<path d="M929.5 259L929.5 393.5C911.667 410.999 876.1 446.099 876.5 446.5C877.001 447 876.5 478.5 876.5 478.5" stroke="#0457AA" stroke-width="3" stroke-linecap="round" stroke-linejoin="round"/>
<circle cx="1020.34" cy="229.343" r="10.5" transform="rotate(60 1020.34 229.343)" stroke="#FFBF1F" stroke-width="3" stroke-linecap="round" stroke-linejoin="round"/>
<path d="M1086 142H892.64C891.566 142 890.512 142.288 889.588 142.834L738.353 232.166C737.429 232.712 736.375 233 735.301 233H623" stroke="#0457AA" stroke-width="3" stroke-linecap="round" stroke-linejoin="round"/>
<line x1="1099.5" y1="130.5" x2="1099.5" y2="1.5" stroke="#0457AA" stroke-width="3" stroke-linecap="round"/>
<path d="M1099.5 83.5L1052.5 53V-1" stroke="#0457AA" stroke-width="3" stroke-linecap="round" stroke-linejoin="round"/>
<line x1="1144.5" y1="159.5" x2="1144.5" y2="88.5" stroke="#0457AA" stroke-width="3" stroke-linecap="round"/>
<circle cx="1144.5" cy="76.5" r="10.5" stroke="#FFBF1F" stroke-width="3" stroke-linecap="round"/>
<line x1="1076.5" y1="185.5" x2="1005.5" y2="185.5" stroke="#0457AA" stroke-width="3" stroke-linecap="round"/>
<circle cx="993.5" cy="185.5" r="10.5" transform="rotate(-90 993.5 185.5)" stroke="#FFBF1F" stroke-width="3" stroke-linecap="round"/>
<path d="M1145 107.5L1186.5 80L1186.5 44.5" stroke="#0457AA" stroke-width="3" stroke-linecap="round"/>
<circle cx="1186.5" cy="32.5" r="10.5" stroke="#FFBF1F" stroke-width="3" stroke-linecap="round"/>
<path d="M1147.5 215.5V406.5" stroke="#0457AA" stroke-width="3" stroke-linecap="round" stroke-linejoin="round"/>
<path d="M1100 214V262L1056.5 305.5V489" stroke="#0457AA" stroke-width="3" stroke-linecap="round" stroke-linejoin="round"/>
<path d="M1057 441L1097 481.675V557" stroke="#0457AA" stroke-width="3" stroke-linecap="round" stroke-linejoin="round"/>
<line x1="1167.5" y1="166.5" x2="1220.5" y2="166.5" stroke="#0457AA" stroke-width="3" stroke-linecap="round" stroke-linejoin="round"/>
<line x1="1321.5" y1="166.5" x2="1374.5" y2="166.5" stroke="#0457AA" stroke-width="3" stroke-linecap="round" stroke-linejoin="round"/>
<line x1="1167.5" y1="224.5" x2="1407.5" y2="224.5" stroke="#0457AA" stroke-width="3" stroke-linecap="round" stroke-linejoin="round"/>
<path d="M1148 338L1219 409.664V557" stroke="#0457AA" stroke-width="3" stroke-linecap="round" stroke-linejoin="round"/>
<path d="M695.5 232L646 182.5H538" stroke="#0457AA" stroke-width="3" stroke-linecap="round" stroke-linejoin="round"/>
<path d="M994 141L914 61H723" stroke="#0457AA" stroke-width="3" stroke-linecap="round" stroke-linejoin="round"/>
<circle cx="1231.5" cy="166.5" r="10.5" stroke="#FFBF1F" stroke-width="3" stroke-linecap="round"/>
<circle cx="1310.5" cy="166.5" r="10.5" stroke="#FFBF1F" stroke-width="3" stroke-linecap="round"/>
<circle cx="610.5" cy="232.5" r="10.5" stroke="#FFBF1F" stroke-width="3" stroke-linecap="round"/>
<circle cx="1056.5" cy="501.5" r="10.5" stroke="#FFBF1F" stroke-width="3" stroke-linecap="round"/>
<circle cx="877.5" cy="489.5" r="10.5" stroke="#FFBF1F" stroke-width="3" stroke-linecap="round"/>
<circle cx="710.5" cy="60.5" r="10.5" stroke="#FFBF1F" stroke-width="3" stroke-linecap="round"/>
<circle cx="1147.5" cy="417.5" r="10.5" stroke="#FFBF1F" stroke-width="3" stroke-linecap="round"/>
<mask id="mask0" mask-type="alpha" maskUnits="userSpaceOnUse" x="1027" y="97" width="182" height="182">
<circle cx="1117.96" cy="187.959" r="73.881" transform="rotate(-165 1117.96 187.959)" fill="#FFBF1F"/>
</mask>
<g mask="url(#mask0)">
<circle cx="1117.96" cy="187.959" r="73.881" transform="rotate(-165 1117.96 187.959)" fill="#FFBF1F"/>
<path d="M1244.48 186.905L1241.02 187.274L1240.59 190.741L1244.04 190.372L1244.48 186.905Z" fill="#C98F0D"/>
<path d="M1239.11 181.423L1235.65 181.791L1235.21 185.257L1238.67 184.889L1239.11 181.423Z" fill="#C98F0D"/>
<path d="M1238.34 187.556L1234.88 187.925L1234.45 191.392L1237.91 191.022L1238.34 187.556Z" fill="#C98F0D"/>
<path d="M1237.57 193.69L1234.11 194.061L1233.68 197.527L1237.14 197.156L1237.57 193.69Z" fill="#C98F0D"/>
<path d="M1233.75 175.932L1230.3 176.302L1229.86 179.768L1233.32 179.398L1233.75 175.932Z" fill="#C98F0D"/>
<path d="M1232.99 182.077L1229.53 182.447L1229.1 185.913L1232.56 185.544L1232.99 182.077Z" fill="#C98F0D"/>
<path d="M1232.23 188.205L1228.78 188.575L1228.34 192.041L1231.8 191.671L1232.23 188.205Z" fill="#C98F0D"/>
<path d="M1231.45 194.342L1227.99 194.709L1227.55 198.176L1231.01 197.809L1231.45 194.342Z" fill="#C98F0D"/>
<path d="M1230.69 200.496L1227.23 200.866L1226.8 204.333L1230.26 203.962L1230.69 200.496Z" fill="#C98F0D"/>
<path d="M1228.41 170.452L1224.95 170.821L1224.52 174.288L1227.98 173.919L1228.41 170.452Z" fill="#C98F0D"/>
<path d="M1227.63 176.59L1224.17 176.96L1223.73 180.426L1227.19 180.057L1227.63 176.59Z" fill="#C98F0D"/>
<path d="M1226.86 182.728L1223.4 183.098L1222.97 186.564L1226.43 186.195L1226.86 182.728Z" fill="#C98F0D"/>
<path d="M1226.25 188.703L1222.5 189.101L1222.03 192.859L1225.78 192.461L1226.25 188.703Z" fill="#C98F0D"/>
<path d="M1225.49 194.831L1221.74 195.231L1221.27 198.989L1225.02 198.589L1225.49 194.831Z" fill="#C98F0D"/>
<path d="M1224.56 201.132L1221.1 201.5L1220.67 204.966L1224.13 204.598L1224.56 201.132Z" fill="#C98F0D"/>
<path d="M1223.8 207.267L1220.34 207.636L1219.91 211.102L1223.36 210.733L1223.8 207.267Z" fill="#C98F0D"/>
<path d="M1223.04 164.975L1219.58 165.343L1219.15 168.81L1222.6 168.442L1223.04 164.975Z" fill="#C98F0D"/>
<path d="M1222.28 171.111L1218.82 171.479L1218.38 174.946L1221.84 174.578L1222.28 171.111Z" fill="#C98F0D"/>
<path d="M1221.5 177.237L1218.04 177.608L1217.61 181.073L1221.07 180.703L1221.5 177.237Z" fill="#C98F0D"/>
<path d="M1220.9 183.227L1217.15 183.626L1216.69 187.384L1220.43 186.984L1220.9 183.227Z" fill="#C98F0D"/>
<path d="M1220.14 189.344L1216.4 189.745L1215.93 193.503L1219.68 193.102L1220.14 189.344Z" fill="#C98F0D"/>
<path d="M1219.38 195.494L1215.63 195.896L1215.16 199.653L1218.91 199.252L1219.38 195.494Z" fill="#C98F0D"/>
<path d="M1218.6 201.636L1214.85 202.036L1214.38 205.794L1218.13 205.394L1218.6 201.636Z" fill="#C98F0D"/>
<path d="M1217.68 207.932L1214.22 208.3L1213.79 211.767L1217.25 211.399L1217.68 207.932Z" fill="#C98F0D"/>
<path d="M1216.9 214.064L1213.44 214.434L1213.01 217.9L1216.47 217.53L1216.9 214.064Z" fill="#C98F0D"/>
<path d="M1217.68 159.491L1214.22 159.862L1213.79 163.328L1217.25 162.957L1217.68 159.491Z" fill="#C98F0D"/>
<path d="M1216.9 165.633L1213.44 166.002L1213.01 169.468L1216.47 169.099L1216.9 165.633Z" fill="#C98F0D"/>
<path d="M1216.15 171.768L1212.69 172.138L1212.26 175.604L1215.72 175.235L1216.15 171.768Z" fill="#C98F0D"/>
<path d="M1215.56 177.737L1211.81 178.137L1211.34 181.895L1215.09 181.495L1215.56 177.737Z" fill="#C98F0D"/>
<path d="M1214.77 183.869L1211.02 184.27L1210.55 188.028L1214.3 187.627L1214.77 183.869Z" fill="#C98F0D"/>
<path d="M1214.02 190.012L1210.27 190.414L1209.8 194.171L1213.55 193.77L1214.02 190.012Z" fill="#C98F0D"/>
<path d="M1213.25 196.149L1209.5 196.547L1209.03 200.305L1212.78 199.906L1213.25 196.149Z" fill="#C98F0D"/>
<path d="M1212.49 202.278L1208.74 202.679L1208.27 206.436L1212.02 206.035L1212.49 202.278Z" fill="#C98F0D"/>
<path d="M1211.71 208.423L1207.96 208.823L1207.49 212.581L1211.24 212.181L1211.71 208.423Z" fill="#C98F0D"/>
<path d="M1210.79 214.704L1207.33 215.071L1206.9 218.537L1210.36 218.17L1210.79 214.704Z" fill="#C98F0D"/>
<path d="M1210.01 220.86L1206.55 221.23L1206.12 224.696L1209.58 224.326L1210.01 220.86Z" fill="#C98F0D"/>
<path d="M1212.33 154L1208.87 154.37L1208.44 157.836L1211.89 157.467L1212.33 154Z" fill="#C98F0D"/>
<path d="M1211.56 160.15L1208.1 160.52L1207.66 163.986L1211.12 163.617L1211.56 160.15Z" fill="#C98F0D"/>
<path d="M1210.8 166.289L1207.34 166.66L1206.91 170.126L1210.37 169.755L1210.8 166.289Z" fill="#C98F0D"/>
<path d="M1210.19 172.261L1206.44 172.661L1205.97 176.418L1209.72 176.019L1210.19 172.261Z" fill="#C98F0D"/>
<path d="M1209.43 178.4L1205.68 178.8L1205.21 182.558L1208.96 182.158L1209.43 178.4Z" fill="#C98F0D"/>
<path d="M1208.66 184.526L1204.91 184.927L1204.44 188.684L1208.19 188.283L1208.66 184.526Z" fill="#C98F0D"/>
<path d="M1207.9 190.67L1204.15 191.069L1203.68 194.827L1207.43 194.427L1207.9 190.67Z" fill="#C98F0D"/>
<path d="M1207.12 196.809L1203.37 197.211L1202.9 200.968L1206.65 200.567L1207.12 196.809Z" fill="#C98F0D"/>
<path d="M1206.36 202.933L1202.61 203.332L1202.14 207.09L1205.89 206.691L1206.36 202.933Z" fill="#C98F0D"/>
<path d="M1205.59 209.075L1201.84 209.474L1201.37 213.231L1205.12 212.833L1205.59 209.075Z" fill="#C98F0D"/>
<path d="M1204.83 215.218L1201.08 215.62L1200.61 219.377L1204.36 218.976L1204.83 215.218Z" fill="#C98F0D"/>
<path d="M1203.9 221.509L1200.44 221.879L1200.01 225.345L1203.47 224.975L1203.9 221.509Z" fill="#C98F0D"/>
<path d="M1203.14 227.639L1199.68 228.008L1199.24 231.474L1202.7 231.105L1203.14 227.639Z" fill="#C98F0D"/>
<path d="M1206.97 148.536L1203.51 148.904L1203.08 152.371L1206.54 152.003L1206.97 148.536Z" fill="#C98F0D"/>
<path d="M1206.21 154.656L1202.75 155.026L1202.32 158.492L1205.78 158.122L1206.21 154.656Z" fill="#C98F0D"/>
<path d="M1205.43 160.802L1201.97 161.171L1201.54 164.637L1205 164.268L1205.43 160.802Z" fill="#C98F0D"/>
<path d="M1204.83 166.771L1201.08 167.171L1200.61 170.929L1204.36 170.529L1204.83 166.771Z" fill="#C98F0D"/>
<path d="M1204.07 172.91L1200.32 173.31L1199.85 177.067L1203.6 176.667L1204.07 172.91Z" fill="#C98F0D"/>
<path d="M1203.29 179.042L1199.54 179.444L1199.08 183.201L1202.83 182.8L1203.29 179.042Z" fill="#C98F0D"/>
<path d="M1202.54 185.184L1198.79 185.584L1198.32 189.342L1202.07 188.942L1202.54 185.184Z" fill="#C98F0D"/>
<path d="M1201.77 191.318L1198.02 191.718L1197.55 195.475L1201.3 195.075L1201.77 191.318Z" fill="#C98F0D"/>
<path d="M1201.01 197.451L1197.26 197.85L1196.79 201.608L1200.54 201.208L1201.01 197.451Z" fill="#C98F0D"/>
<path d="M1200.23 203.593L1196.48 203.993L1196.01 207.75L1199.76 207.351L1200.23 203.593Z" fill="#C98F0D"/>
<path d="M1199.47 209.728L1195.72 210.129L1195.25 213.887L1199 213.486L1199.47 209.728Z" fill="#C98F0D"/>
<path d="M1198.71 215.861L1194.96 216.261L1194.49 220.018L1198.24 219.619L1198.71 215.861Z" fill="#C98F0D"/>
<path d="M1197.94 222.004L1194.19 222.404L1193.72 226.162L1197.47 225.762L1197.94 222.004Z" fill="#C98F0D"/>
<path d="M1197.01 228.298L1193.55 228.666L1193.12 232.133L1196.57 231.765L1197.01 228.298Z" fill="#C98F0D"/>
<path d="M1196.25 234.444L1192.79 234.814L1192.35 238.28L1195.81 237.91L1196.25 234.444Z" fill="#C98F0D"/>
<path d="M1201.61 143.049L1198.15 143.419L1197.72 146.885L1201.18 146.516L1201.61 143.049Z" fill="#C98F0D"/>
<path d="M1200.84 149.179L1197.38 149.549L1196.95 153.015L1200.41 152.645L1200.84 149.179Z" fill="#C98F0D"/>
<path d="M1200.09 155.316L1196.63 155.685L1196.19 159.151L1199.65 158.783L1200.09 155.316Z" fill="#C98F0D"/>
<path d="M1199.47 161.292L1195.72 161.692L1195.25 165.45L1199 165.05L1199.47 161.292Z" fill="#C98F0D"/>
<path d="M1198.71 167.432L1194.96 167.831L1194.49 171.589L1198.24 171.189L1198.71 167.432Z" fill="#C98F0D"/>
<path d="M1197.95 173.575L1194.2 173.976L1193.73 177.734L1197.48 177.332L1197.95 173.575Z" fill="#C98F0D"/>
<path d="M1197.18 179.703L1193.43 180.103L1192.96 183.861L1196.71 183.461L1197.18 179.703Z" fill="#C98F0D"/>
<path d="M1196.4 185.841L1192.65 186.242L1192.18 190L1195.93 189.599L1196.4 185.841Z" fill="#C98F0D"/>
<path d="M1195.63 191.968L1191.88 192.369L1191.42 196.127L1195.17 195.726L1195.63 191.968Z" fill="#C98F0D"/>
<path d="M1194.87 198.107L1191.12 198.508L1190.65 202.265L1194.4 201.864L1194.87 198.107Z" fill="#C98F0D"/>
<path d="M1194.11 204.249L1190.36 204.651L1189.9 208.408L1193.65 208.007L1194.11 204.249Z" fill="#C98F0D"/>
<path d="M1193.35 210.376L1189.6 210.777L1189.13 214.534L1192.88 214.133L1193.35 210.376Z" fill="#C98F0D"/>
<path d="M1192.57 216.513L1188.82 216.912L1188.35 220.67L1192.1 220.271L1192.57 216.513Z" fill="#C98F0D"/>
<path d="M1191.8 222.657L1188.05 223.058L1187.59 226.816L1191.34 226.415L1191.8 222.657Z" fill="#C98F0D"/>
<path d="M1191.05 228.788L1187.3 229.188L1186.83 232.945L1190.58 232.546L1191.05 228.788Z" fill="#C98F0D"/>
<path d="M1190.11 235.074L1186.66 235.443L1186.22 238.909L1189.68 238.541L1190.11 235.074Z" fill="#C98F0D"/>
<path d="M1189.34 241.216L1185.89 241.587L1185.45 245.053L1188.91 244.682L1189.34 241.216Z" fill="#C98F0D"/>
<path d="M1196.25 137.564L1192.79 137.933L1192.36 141.399L1195.82 141.03L1196.25 137.564Z" fill="#C98F0D"/>
<path d="M1195.5 143.69L1192.04 144.06L1191.6 147.526L1195.06 147.156L1195.5 143.69Z" fill="#C98F0D"/>
<path d="M1194.73 149.835L1191.27 150.203L1190.84 153.669L1194.3 153.301L1194.73 149.835Z" fill="#C98F0D"/>
<path d="M1194.12 155.805L1190.37 156.206L1189.9 159.963L1193.65 159.562L1194.12 155.805Z" fill="#C98F0D"/>
<path d="M1193.35 161.95L1189.61 162.348L1189.13 166.106L1192.88 165.707L1193.35 161.95Z" fill="#C98F0D"/>
<path d="M1192.59 168.087L1188.84 168.489L1188.38 172.246L1192.13 171.845L1192.59 168.087Z" fill="#C98F0D"/>
<path d="M1191.81 174.217L1188.06 174.618L1187.59 178.375L1191.34 177.974L1191.81 174.217Z" fill="#C98F0D"/>
<path d="M1191.06 180.356L1187.31 180.756L1186.84 184.514L1190.59 184.114L1191.06 180.356Z" fill="#C98F0D"/>
<path d="M1190.28 186.496L1186.53 186.897L1186.07 190.655L1189.82 190.254L1190.28 186.496Z" fill="#C98F0D"/>
<path d="M1189.52 192.624L1185.77 193.025L1185.3 196.782L1189.05 196.381L1189.52 192.624Z" fill="#C98F0D"/>
<path d="M1188.76 198.767L1185.01 199.167L1184.54 202.925L1188.29 202.525L1188.76 198.767Z" fill="#C98F0D"/>
<path d="M1187.98 204.892L1184.23 205.293L1183.76 209.051L1187.51 208.65L1187.98 204.892Z" fill="#C98F0D"/>
<path d="M1187.22 211.035L1183.48 211.435L1183.01 215.193L1186.75 214.793L1187.22 211.035Z" fill="#C98F0D"/>
<path d="M1186.46 217.172L1182.71 217.571L1182.24 221.329L1185.99 220.93L1186.46 217.172Z" fill="#C98F0D"/>
<path d="M1185.68 223.304L1181.93 223.704L1181.46 227.461L1185.21 227.062L1185.68 223.304Z" fill="#C98F0D"/>
<path d="M1184.92 229.438L1181.17 229.838L1180.7 233.596L1184.45 233.195L1184.92 229.438Z" fill="#C98F0D"/>
<path d="M1184.15 235.581L1180.4 235.982L1179.93 239.739L1183.68 239.338L1184.15 235.581Z" fill="#C98F0D"/>
<path d="M1183.22 241.878L1179.77 242.248L1179.33 245.714L1182.79 245.345L1183.22 241.878Z" fill="#C98F0D"/>
<path d="M1182.47 248.021L1179.01 248.391L1178.58 251.857L1182.04 251.487L1182.47 248.021Z" fill="#C98F0D"/>
<path d="M1190.91 132.081L1187.45 132.452L1187.02 135.918L1190.47 135.547L1190.91 132.081Z" fill="#C98F0D"/>
<path d="M1190.12 138.222L1186.66 138.593L1186.23 142.058L1189.69 141.688L1190.12 138.222Z" fill="#C98F0D"/>
<path d="M1189.36 144.349L1185.91 144.717L1185.47 148.183L1188.93 147.815L1189.36 144.349Z" fill="#C98F0D"/>
<path d="M1188.77 150.32L1185.02 150.719L1184.55 154.477L1188.3 154.078L1188.77 150.32Z" fill="#C98F0D"/>
<path d="M1187.99 156.463L1184.24 156.863L1183.77 160.621L1187.52 160.221L1187.99 156.463Z" fill="#C98F0D"/>
<path d="M1187.23 162.604L1183.48 163.004L1183.02 166.762L1186.77 166.362L1187.23 162.604Z" fill="#C98F0D"/>
<path d="M1186.47 168.734L1182.72 169.134L1182.25 172.892L1186 172.492L1186.47 168.734Z" fill="#C98F0D"/>
<path d="M1185.7 174.87L1181.95 175.27L1181.48 179.028L1185.23 178.627L1185.7 174.87Z" fill="#C98F0D"/>
<path d="M1184.92 181.013L1181.17 181.414L1180.7 185.171L1184.45 184.77L1184.92 181.013Z" fill="#C98F0D"/>
<path d="M1184.16 187.144L1180.41 187.543L1179.94 191.301L1183.69 190.902L1184.16 187.144Z" fill="#C98F0D"/>
<path d="M1183.4 193.275L1179.65 193.675L1179.18 197.432L1182.93 197.032L1183.4 193.275Z" fill="#C98F0D"/>
<path d="M1182.63 199.42L1178.88 199.821L1178.41 203.579L1182.16 203.178L1182.63 199.42Z" fill="#C98F0D"/>
<path d="M1181.86 205.552L1178.11 205.951L1177.64 209.709L1181.39 209.309L1181.86 205.552Z" fill="#C98F0D"/>
<path d="M1181.1 211.684L1177.35 212.082L1176.88 215.84L1180.63 215.442L1181.1 211.684Z" fill="#C98F0D"/>
<path d="M1180.34 217.83L1176.59 218.231L1176.12 221.988L1179.87 221.587L1180.34 217.83Z" fill="#C98F0D"/>
<path d="M1179.57 223.95L1175.82 224.35L1175.35 228.108L1179.1 227.707L1179.57 223.95Z" fill="#C98F0D"/>
<path d="M1178.81 230.102L1175.06 230.502L1174.6 234.259L1178.35 233.859L1178.81 230.102Z" fill="#C98F0D"/>
<path d="M1178.03 236.242L1174.28 236.642L1173.81 240.4L1177.56 240L1178.03 236.242Z" fill="#C98F0D"/>
<path d="M1177.27 242.358L1173.52 242.758L1173.05 246.516L1176.8 246.116L1177.27 242.358Z" fill="#C98F0D"/>
<path d="M1176.34 248.667L1172.88 249.035L1172.45 252.501L1175.91 252.133L1176.34 248.667Z" fill="#C98F0D"/>
<path d="M1175.57 254.811L1172.11 255.182L1171.68 258.648L1175.14 258.277L1175.57 254.811Z" fill="#C98F0D"/>
<path d="M1185.53 126.595L1182.08 126.964L1181.64 130.431L1185.1 130.061L1185.53 126.595Z" fill="#C98F0D"/>
<path d="M1184.77 132.74L1181.32 133.109L1180.88 136.575L1184.34 136.206L1184.77 132.74Z" fill="#C98F0D"/>
<path d="M1184.01 138.864L1180.56 139.232L1180.12 142.698L1183.58 142.33L1184.01 138.864Z" fill="#C98F0D"/>
<path d="M1183.4 144.853L1179.66 145.253L1179.19 149.011L1182.94 148.611L1183.4 144.853Z" fill="#C98F0D"/>
<path d="M1182.64 150.98L1178.89 151.379L1178.42 155.137L1182.17 154.738L1182.64 150.98Z" fill="#C98F0D"/>
<path d="M1181.88 157.124L1178.13 157.522L1177.66 161.28L1181.41 160.881L1181.88 157.124Z" fill="#C98F0D"/>
<path d="M1181.09 163.262L1177.34 163.663L1176.88 167.42L1180.63 167.019L1181.09 163.262Z" fill="#C98F0D"/>
<path d="M1180.34 169.388L1176.59 169.788L1176.12 173.546L1179.87 173.146L1180.34 169.388Z" fill="#C98F0D"/>
<path d="M1179.57 175.524L1175.82 175.924L1175.35 179.681L1179.1 179.281L1179.57 175.524Z" fill="#C98F0D"/>
<path d="M1178.81 181.654L1175.07 182.054L1174.6 185.812L1178.34 185.412L1178.81 181.654Z" fill="#C98F0D"/>
<path d="M1178.06 187.797L1174.31 188.197L1173.84 191.955L1177.59 191.555L1178.06 187.797Z" fill="#C98F0D"/>
<path d="M1177.26 193.939L1173.51 194.34L1173.05 198.097L1176.8 197.696L1177.26 193.939Z" fill="#C98F0D"/>
<path d="M1176.51 200.069L1172.76 200.469L1172.29 204.227L1176.04 203.827L1176.51 200.069Z" fill="#C98F0D"/>
<path d="M1175.74 206.213L1171.99 206.612L1171.52 210.37L1175.27 209.97L1175.74 206.213Z" fill="#C98F0D"/>
<path d="M1174.97 212.346L1171.22 212.747L1170.76 216.505L1174.51 216.104L1174.97 212.346Z" fill="#C98F0D"/>
<path d="M1174.21 218.477L1170.46 218.877L1169.99 222.635L1173.74 222.235L1174.21 218.477Z" fill="#C98F0D"/>
<path d="M1173.43 224.615L1169.68 225.016L1169.21 228.773L1172.96 228.372L1173.43 224.615Z" fill="#C98F0D"/>
<path d="M1172.67 230.754L1168.92 231.155L1168.45 234.912L1172.2 234.511L1172.67 230.754Z" fill="#C98F0D"/>
<path d="M1171.93 236.883L1168.18 237.282L1167.71 241.04L1171.46 240.641L1171.93 236.883Z" fill="#C98F0D"/>
<path d="M1171.14 243.023L1167.39 243.424L1166.93 247.181L1170.68 246.78L1171.14 243.023Z" fill="#C98F0D"/>
<path d="M1170.38 249.158L1166.63 249.559L1166.16 253.316L1169.91 252.916L1170.38 249.158Z" fill="#C98F0D"/>
<path d="M1169.45 255.466L1165.99 255.834L1165.56 259.301L1169.02 258.933L1169.45 255.466Z" fill="#C98F0D"/>
<path d="M1168.67 261.593L1165.21 261.963L1164.78 265.429L1168.24 265.059L1168.67 261.593Z" fill="#C98F0D"/>
<path d="M1180.19 121.112L1176.73 121.478L1176.3 124.945L1179.76 124.578L1180.19 121.112Z" fill="#C98F0D"/>
<path d="M1179.42 127.247L1175.96 127.618L1175.53 131.084L1178.99 130.713L1179.42 127.247Z" fill="#C98F0D"/>
<path d="M1178.65 133.381L1175.19 133.751L1174.76 137.217L1178.22 136.847L1178.65 133.381Z" fill="#C98F0D"/>
<path d="M1178.06 139.363L1174.31 139.765L1173.84 143.523L1177.59 143.121L1178.06 139.363Z" fill="#C98F0D"/>
<path d="M1177.29 145.493L1173.54 145.894L1173.07 149.651L1176.82 149.25L1177.29 145.493Z" fill="#C98F0D"/>
<path d="M1176.51 151.633L1172.76 152.033L1172.29 155.791L1176.04 155.391L1176.51 151.633Z" fill="#C98F0D"/>
<path d="M1175.74 157.778L1171.99 158.179L1171.53 161.936L1175.28 161.535L1175.74 157.778Z" fill="#C98F0D"/>
<path d="M1174.99 163.9L1171.24 164.299L1170.77 168.057L1174.52 167.658L1174.99 163.9Z" fill="#C98F0D"/>
<path d="M1174.23 170.046L1170.48 170.445L1170.01 174.203L1173.76 173.803L1174.23 170.046Z" fill="#C98F0D"/>
<path d="M1173.44 176.187L1169.69 176.588L1169.22 180.345L1172.97 179.944L1173.44 176.187Z" fill="#C98F0D"/>
<path d="M1172.68 182.316L1168.94 182.715L1168.46 186.473L1172.21 186.074L1172.68 182.316Z" fill="#C98F0D"/>
<path d="M1171.91 188.454L1168.16 188.855L1167.7 192.612L1171.45 192.211L1171.91 188.454Z" fill="#C98F0D"/>
<path d="M1171.15 194.595L1167.4 194.996L1166.93 198.753L1170.68 198.352L1171.15 194.595Z" fill="#C98F0D"/>
<path d="M1170.38 200.714L1166.63 201.112L1166.16 204.87L1169.91 204.471L1170.38 200.714Z" fill="#C98F0D"/>
<path d="M1169.61 206.863L1165.86 207.264L1165.39 211.022L1169.14 210.621L1169.61 206.863Z" fill="#C98F0D"/>
<path d="M1168.85 212.987L1165.1 213.388L1164.63 217.145L1168.38 216.744L1168.85 212.987Z" fill="#C98F0D"/>
<path d="M1168.09 219.13L1164.34 219.53L1163.87 223.288L1167.62 222.888L1168.09 219.13Z" fill="#C98F0D"/>
<path d="M1167.33 225.273L1163.58 225.673L1163.12 229.431L1166.87 229.03L1167.33 225.273Z" fill="#C98F0D"/>
<path d="M1166.56 231.402L1162.81 231.802L1162.34 235.56L1166.09 235.16L1166.56 231.402Z" fill="#C98F0D"/>
<path d="M1165.79 237.54L1162.04 237.94L1161.57 241.698L1165.32 241.298L1165.79 237.54Z" fill="#C98F0D"/>
<path d="M1165.02 243.685L1161.27 244.086L1160.8 247.843L1164.55 247.443L1165.02 243.685Z" fill="#C98F0D"/>
<path d="M1164.26 249.813L1160.51 250.213L1160.04 253.971L1163.79 253.571L1164.26 249.813Z" fill="#C98F0D"/>
<path d="M1163.48 255.95L1159.73 256.351L1159.26 260.109L1163.01 259.707L1163.48 255.95Z" fill="#C98F0D"/>
<path d="M1162.57 262.243L1159.11 262.612L1158.67 266.079L1162.13 265.709L1162.57 262.243Z" fill="#C98F0D"/>
<path d="M1161.79 268.378L1158.33 268.747L1157.89 272.213L1161.35 271.844L1161.79 268.378Z" fill="#C98F0D"/>
<path d="M1174.06 121.768L1170.6 122.139L1170.17 125.605L1173.63 125.234L1174.06 121.768Z" fill="#C98F0D"/>
<path d="M1173.3 127.91L1169.84 128.278L1169.4 131.745L1172.86 131.377L1173.3 127.91Z" fill="#C98F0D"/>
<path d="M1172.54 134.038L1169.08 134.408L1168.64 137.874L1172.1 137.504L1172.54 134.038Z" fill="#C98F0D"/>
<path d="M1171.92 140.011L1168.17 140.412L1167.7 144.169L1171.45 143.768L1171.92 140.011Z" fill="#C98F0D"/>
<path d="M1171.17 146.145L1167.42 146.545L1166.95 150.303L1170.7 149.903L1171.17 146.145Z" fill="#C98F0D"/>
<path d="M1170.4 152.287L1166.65 152.689L1166.18 156.446L1169.93 156.045L1170.4 152.287Z" fill="#C98F0D"/>
<path d="M1169.62 158.421L1165.87 158.822L1165.4 162.579L1169.15 162.178L1169.62 158.421Z" fill="#C98F0D"/>
<path d="M1168.86 164.564L1165.11 164.963L1164.64 168.721L1168.39 168.321L1168.86 164.564Z" fill="#C98F0D"/>
<path d="M1168.09 170.7L1164.34 171.1L1163.87 174.858L1167.62 174.458L1168.09 170.7Z" fill="#C98F0D"/>
<path d="M1167.33 176.824L1163.58 177.224L1163.11 180.982L1166.86 180.582L1167.33 176.824Z" fill="#C98F0D"/>
<path d="M1166.55 182.973L1162.8 183.373L1162.34 187.131L1166.08 186.731L1166.55 182.973Z" fill="#C98F0D"/>
<path d="M1165.79 189.11L1162.04 189.51L1161.57 193.267L1165.32 192.867L1165.79 189.11Z" fill="#C98F0D"/>
<path d="M1165.02 195.237L1161.27 195.638L1160.8 199.396L1164.55 198.995L1165.02 195.237Z" fill="#C98F0D"/>
<path d="M1164.26 201.382L1160.52 201.782L1160.05 205.54L1163.8 205.14L1164.26 201.382Z" fill="#C98F0D"/>
<path d="M1163.5 207.519L1159.75 207.92L1159.28 211.677L1163.03 211.276L1163.5 207.519Z" fill="#C98F0D"/>
<path d="M1162.73 213.647L1158.98 214.047L1158.51 217.804L1162.26 217.405L1162.73 213.647Z" fill="#C98F0D"/>
<path d="M1161.96 219.785L1158.21 220.186L1157.74 223.943L1161.49 223.542L1161.96 219.785Z" fill="#C98F0D"/>
<path d="M1161.2 225.921L1157.45 226.322L1156.98 230.079L1160.73 229.679L1161.2 225.921Z" fill="#C98F0D"/>
<path d="M1160.44 232.055L1156.69 232.455L1156.22 236.213L1159.97 235.813L1160.44 232.055Z" fill="#C98F0D"/>
<path d="M1159.66 238.198L1155.91 238.599L1155.44 242.357L1159.19 241.955L1159.66 238.198Z" fill="#C98F0D"/>
<path d="M1158.89 244.331L1155.15 244.731L1154.68 248.488L1158.43 248.088L1158.89 244.331Z" fill="#C98F0D"/>
<path d="M1158.14 250.469L1154.39 250.869L1153.92 254.627L1157.67 254.227L1158.14 250.469Z" fill="#C98F0D"/>
<path d="M1157.37 256.597L1153.62 256.997L1153.15 260.754L1156.9 260.354L1157.37 256.597Z" fill="#C98F0D"/>
<path d="M1156.59 262.736L1152.84 263.136L1152.37 266.894L1156.12 266.494L1156.59 262.736Z" fill="#C98F0D"/>
<path d="M1155.66 269.041L1152.21 269.411L1151.77 272.877L1155.23 272.507L1155.66 269.041Z" fill="#C98F0D"/>
<path d="M1154.9 275.16L1151.44 275.531L1151.01 278.997L1154.47 278.626L1154.9 275.16Z" fill="#C98F0D"/>
<path d="M1167.17 128.549L1163.71 128.919L1163.28 132.385L1166.74 132.015L1167.17 128.549Z" fill="#C98F0D"/>
<path d="M1166.4 134.696L1162.95 135.065L1162.51 138.531L1165.97 138.162L1166.4 134.696Z" fill="#C98F0D"/>
<path d="M1165.64 140.837L1162.18 141.207L1161.75 144.673L1165.21 144.303L1165.64 140.837Z" fill="#C98F0D"/>
<path d="M1165.03 146.807L1161.28 147.208L1160.81 150.966L1164.56 150.565L1165.03 146.807Z" fill="#C98F0D"/>
<path d="M1164.27 152.949L1160.52 153.35L1160.05 157.108L1163.8 156.706L1164.27 152.949Z" fill="#C98F0D"/>
<path d="M1163.51 159.077L1159.76 159.477L1159.29 163.234L1163.04 162.835L1163.51 159.077Z" fill="#C98F0D"/>
<path d="M1162.73 165.218L1158.98 165.617L1158.51 169.375L1162.26 168.975L1162.73 165.218Z" fill="#C98F0D"/>
<path d="M1161.97 171.339L1158.22 171.74L1157.75 175.497L1161.5 175.097L1161.97 171.339Z" fill="#C98F0D"/>
<path d="M1161.2 177.486L1157.45 177.885L1156.98 181.643L1160.73 181.244L1161.2 177.486Z" fill="#C98F0D"/>
<path d="M1160.44 183.625L1156.69 184.026L1156.22 187.783L1159.97 187.382L1160.44 183.625Z" fill="#C98F0D"/>
<path d="M1159.68 189.753L1155.93 190.153L1155.46 193.911L1159.21 193.511L1159.68 189.753Z" fill="#C98F0D"/>
<path d="M1158.9 195.891L1155.15 196.291L1154.68 200.048L1158.43 199.648L1158.9 195.891Z" fill="#C98F0D"/>
<path d="M1158.14 202.035L1154.39 202.437L1153.92 206.194L1157.67 205.793L1158.14 202.035Z" fill="#C98F0D"/>
<path d="M1157.38 208.158L1153.63 208.558L1153.16 212.316L1156.91 211.916L1157.38 208.158Z" fill="#C98F0D"/>
<path d="M1156.62 214.297L1152.87 214.698L1152.4 218.456L1156.15 218.054L1156.62 214.297Z" fill="#C98F0D"/>
<path d="M1155.83 220.441L1152.08 220.841L1151.61 224.599L1155.36 224.198L1155.83 220.441Z" fill="#C98F0D"/>
<path d="M1155.07 226.579L1151.32 226.978L1150.85 230.736L1154.6 230.336L1155.07 226.579Z" fill="#C98F0D"/>
<path d="M1154.3 232.706L1150.55 233.108L1150.09 236.866L1153.84 236.464L1154.3 232.706Z" fill="#C98F0D"/>
<path d="M1153.54 238.846L1149.8 239.246L1149.33 243.004L1153.08 242.604L1153.54 238.846Z" fill="#C98F0D"/>
<path d="M1152.78 244.976L1149.03 245.377L1148.56 249.134L1152.31 248.733L1152.78 244.976Z" fill="#C98F0D"/>
<path d="M1152 251.122L1148.25 251.524L1147.78 255.281L1151.53 254.88L1152 251.122Z" fill="#C98F0D"/>
<path d="M1151.24 257.26L1147.49 257.659L1147.02 261.416L1150.77 261.018L1151.24 257.26Z" fill="#C98F0D"/>
<path d="M1150.47 263.385L1146.72 263.786L1146.25 267.544L1150 267.143L1150.47 263.385Z" fill="#C98F0D"/>
<path d="M1149.72 269.519L1145.97 269.918L1145.5 273.675L1149.25 273.277L1149.72 269.519Z" fill="#C98F0D"/>
<path d="M1148.78 275.828L1145.33 276.196L1144.89 279.663L1148.35 279.295L1148.78 275.828Z" fill="#C98F0D"/>
<path d="M1148.01 281.966L1144.55 282.335L1144.12 285.801L1147.58 285.432L1148.01 281.966Z" fill="#C98F0D"/>
<path d="M1160.28 135.353L1156.82 135.723L1156.39 139.19L1159.85 138.819L1160.28 135.353Z" fill="#C98F0D"/>
<path d="M1159.51 141.481L1156.06 141.849L1155.62 145.315L1159.08 144.947L1159.51 141.481Z" fill="#C98F0D"/>
<path d="M1158.75 147.619L1155.29 147.99L1154.86 151.456L1158.32 151.085L1158.75 147.619Z" fill="#C98F0D"/>
<path d="M1158.14 153.591L1154.39 153.99L1153.92 157.747L1157.67 157.349L1158.14 153.591Z" fill="#C98F0D"/>
<path d="M1157.38 159.733L1153.63 160.134L1153.16 163.891L1156.91 163.49L1157.38 159.733Z" fill="#C98F0D"/>
<path d="M1156.62 165.874L1152.87 166.275L1152.4 170.033L1156.15 169.631L1156.62 165.874Z" fill="#C98F0D"/>
<path d="M1155.86 172.001L1152.11 172.401L1151.64 176.158L1155.39 175.759L1155.86 172.001Z" fill="#C98F0D"/>
<path d="M1155.07 178.141L1151.32 178.542L1150.85 182.299L1154.6 181.898L1155.07 178.141Z" fill="#C98F0D"/>
<path d="M1154.31 184.285L1150.56 184.684L1150.09 188.441L1153.84 188.043L1154.31 184.285Z" fill="#C98F0D"/>
<path d="M1153.55 190.411L1149.8 190.811L1149.33 194.569L1153.08 194.169L1153.55 190.411Z" fill="#C98F0D"/>
<path d="M1152.79 196.55L1149.04 196.951L1148.57 200.709L1152.32 200.308L1152.79 196.55Z" fill="#C98F0D"/>
<path d="M1152.01 202.686L1148.26 203.084L1147.79 206.842L1151.54 206.443L1152.01 202.686Z" fill="#C98F0D"/>
<path d="M1151.25 208.813L1147.5 209.212L1147.03 212.969L1150.78 212.571L1151.25 208.813Z" fill="#C98F0D"/>
<path d="M1150.48 214.96L1146.73 215.362L1146.26 219.119L1150.01 218.718L1150.48 214.96Z" fill="#C98F0D"/>
<path d="M1149.72 221.087L1145.97 221.486L1145.5 225.244L1149.25 224.844L1149.72 221.087Z" fill="#C98F0D"/>
<path d="M1148.96 227.23L1145.21 227.632L1144.74 231.39L1148.49 230.988L1148.96 227.23Z" fill="#C98F0D"/>
<path d="M1148.18 233.375L1144.43 233.775L1143.96 237.533L1147.71 237.133L1148.18 233.375Z" fill="#C98F0D"/>
<path d="M1147.42 239.488L1143.67 239.888L1143.2 243.645L1146.95 243.245L1147.42 239.488Z" fill="#C98F0D"/>
<path d="M1146.65 245.642L1142.9 246.043L1142.43 249.801L1146.18 249.4L1146.65 245.642Z" fill="#C98F0D"/>
<path d="M1145.89 251.784L1142.14 252.184L1141.67 255.941L1145.42 255.542L1145.89 251.784Z" fill="#C98F0D"/>
<path d="M1145.11 257.914L1141.36 258.313L1140.89 262.071L1144.64 261.671L1145.11 257.914Z" fill="#C98F0D"/>
<path d="M1144.35 264.041L1140.6 264.44L1140.13 268.197L1143.88 267.799L1144.35 264.041Z" fill="#C98F0D"/>
<path d="M1143.58 270.195L1139.83 270.594L1139.36 274.352L1143.11 273.952L1143.58 270.195Z" fill="#C98F0D"/>
<path d="M1142.83 276.303L1139.08 276.706L1138.61 280.463L1142.36 280.06L1142.83 276.303Z" fill="#C98F0D"/>
<path d="M1141.9 282.606L1138.44 282.975L1138 286.442L1141.46 286.072L1141.9 282.606Z" fill="#C98F0D"/>
<path d="M1141.13 288.748L1137.67 289.117L1137.24 292.583L1140.7 292.214L1141.13 288.748Z" fill="#C98F0D"/>
<path d="M1153.4 142.135L1149.94 142.506L1149.51 145.972L1152.97 145.601L1153.4 142.135Z" fill="#C98F0D"/>
<path d="M1152.62 148.275L1149.17 148.643L1148.73 152.11L1152.19 151.742L1152.62 148.275Z" fill="#C98F0D"/>
<path d="M1151.86 154.403L1148.4 154.772L1147.97 158.238L1151.43 157.869L1151.86 154.403Z" fill="#C98F0D"/>
<path d="M1151.25 160.39L1147.5 160.791L1147.03 164.549L1150.78 164.147L1151.25 160.39Z" fill="#C98F0D"/>
<path d="M1150.49 166.516L1146.74 166.916L1146.27 170.674L1150.02 170.274L1150.49 166.516Z" fill="#C98F0D"/>
<path d="M1149.72 172.657L1145.97 173.058L1145.5 176.816L1149.25 176.415L1149.72 172.657Z" fill="#C98F0D"/>
<path d="M1148.96 178.802L1145.21 179.202L1144.74 182.959L1148.49 182.56L1148.96 178.802Z" fill="#C98F0D"/>
<path d="M1148.18 184.93L1144.43 185.329L1143.96 189.087L1147.71 188.687L1148.18 184.93Z" fill="#C98F0D"/>
<path d="M1147.42 191.067L1143.67 191.468L1143.2 195.225L1146.95 194.825L1147.42 191.067Z" fill="#C98F0D"/>
<path d="M1146.66 197.209L1142.91 197.609L1142.44 201.367L1146.19 200.967L1146.66 197.209Z" fill="#C98F0D"/>
<path d="M1145.9 203.332L1142.15 203.73L1141.68 207.488L1145.43 207.09L1145.9 203.332Z" fill="#C98F0D"/>
<path d="M1145.13 209.469L1141.38 209.869L1140.91 213.627L1144.66 213.226L1145.13 209.469Z" fill="#C98F0D"/>
<path d="M1144.35 215.618L1140.6 216.019L1140.14 219.777L1143.88 219.376L1144.35 215.618Z" fill="#C98F0D"/>
<path d="M1143.59 221.744L1139.84 222.146L1139.37 225.903L1143.12 225.502L1143.59 221.744Z" fill="#C98F0D"/>
<path d="M1142.83 227.887L1139.08 228.288L1138.61 232.046L1142.36 231.644L1142.83 227.887Z" fill="#C98F0D"/>
<path d="M1142.07 234.027L1138.32 234.427L1137.85 238.185L1141.6 237.785L1142.07 234.027Z" fill="#C98F0D"/>
<path d="M1141.29 240.156L1137.54 240.557L1137.07 244.315L1140.82 243.914L1141.29 240.156Z" fill="#C98F0D"/>
<path d="M1140.53 246.296L1136.78 246.696L1136.31 250.453L1140.06 250.054L1140.53 246.296Z" fill="#C98F0D"/>
<path d="M1139.77 252.422L1136.02 252.822L1135.55 256.579L1139.3 256.18L1139.77 252.422Z" fill="#C98F0D"/>
<path d="M1139 258.565L1135.25 258.965L1134.78 262.722L1138.53 262.323L1139 258.565Z" fill="#C98F0D"/>
<path d="M1138.24 264.704L1134.49 265.103L1134.02 268.861L1137.77 268.462L1138.24 264.704Z" fill="#C98F0D"/>
<path d="M1137.47 270.836L1133.72 271.236L1133.25 274.994L1137 274.594L1137.47 270.836Z" fill="#C98F0D"/>
<path d="M1136.69 276.98L1132.94 277.38L1132.47 281.138L1136.22 280.738L1136.69 276.98Z" fill="#C98F0D"/>
<path d="M1135.93 283.107L1132.18 283.508L1131.71 287.265L1135.46 286.864L1135.93 283.107Z" fill="#C98F0D"/>
<path d="M1135 289.408L1131.54 289.777L1131.11 293.243L1134.57 292.874L1135 289.408Z" fill="#C98F0D"/>
<path d="M1134.24 295.534L1130.78 295.904L1130.35 299.37L1133.81 299L1134.24 295.534Z" fill="#C98F0D"/>
<path d="M1146.51 148.932L1143.05 149.301L1142.62 152.768L1146.08 152.399L1146.51 148.932Z" fill="#C98F0D"/>
<path d="M1145.73 155.061L1142.27 155.429L1141.84 158.895L1145.3 158.527L1145.73 155.061Z" fill="#C98F0D"/>
<path d="M1144.96 161.203L1141.51 161.573L1141.07 165.039L1144.53 164.669L1144.96 161.203Z" fill="#C98F0D"/>
<path d="M1144.38 167.173L1140.63 167.572L1140.16 171.33L1143.91 170.93L1144.38 167.173Z" fill="#C98F0D"/>
<path d="M1143.6 173.317L1139.85 173.716L1139.38 177.474L1143.13 177.075L1143.6 173.317Z" fill="#C98F0D"/>
<path d="M1142.84 179.442L1139.09 179.841L1138.62 183.599L1142.37 183.199L1142.84 179.442Z" fill="#C98F0D"/>
<path d="M1142.07 185.582L1138.32 185.983L1137.85 189.741L1141.6 189.339L1142.07 185.582Z" fill="#C98F0D"/>
<path d="M1141.31 191.725L1137.56 192.125L1137.09 195.883L1140.84 195.483L1141.31 191.725Z" fill="#C98F0D"/>
<path d="M1140.54 197.844L1136.79 198.242L1136.32 202L1140.07 201.601L1140.54 197.844Z" fill="#C98F0D"/>
<path d="M1139.77 203.991L1136.02 204.393L1135.55 208.15L1139.3 207.749L1139.77 203.991Z" fill="#C98F0D"/>
<path d="M1139 210.135L1135.25 210.535L1134.78 214.293L1138.53 213.893L1139 210.135Z" fill="#C98F0D"/>
<path d="M1138.25 216.257L1134.5 216.658L1134.03 220.415L1137.78 220.015L1138.25 216.257Z" fill="#C98F0D"/>
<path d="M1137.48 222.401L1133.73 222.8L1133.26 226.558L1137.01 226.159L1137.48 222.401Z" fill="#C98F0D"/>
<path d="M1136.7 228.547L1132.95 228.947L1132.48 232.705L1136.23 232.305L1136.7 228.547Z" fill="#C98F0D"/>
<path d="M1135.94 234.669L1132.19 235.07L1131.72 238.827L1135.47 238.426L1135.94 234.669Z" fill="#C98F0D"/>
<path d="M1135.17 240.813L1131.42 241.212L1130.96 244.97L1134.7 244.57L1135.17 240.813Z" fill="#C98F0D"/>
<path d="M1134.41 246.952L1130.66 247.352L1130.19 251.11L1133.94 250.71L1134.41 246.952Z" fill="#C98F0D"/>
<path d="M1133.63 253.074L1129.88 253.475L1129.41 257.232L1133.16 256.831L1133.63 253.074Z" fill="#C98F0D"/>
<path d="M1132.87 259.223L1129.12 259.623L1128.65 263.381L1132.4 262.981L1132.87 259.223Z" fill="#C98F0D"/>
<path d="M1132.1 265.356L1128.35 265.757L1127.88 269.514L1131.63 269.113L1132.1 265.356Z" fill="#C98F0D"/>
<path d="M1131.34 271.49L1127.6 271.89L1127.13 275.647L1130.88 275.248L1131.34 271.49Z" fill="#C98F0D"/>
<path d="M1130.58 277.626L1126.83 278.025L1126.36 281.782L1130.11 281.384L1130.58 277.626Z" fill="#C98F0D"/>
<path d="M1129.8 283.77L1126.05 284.172L1125.58 287.929L1129.33 287.528L1129.8 283.77Z" fill="#C98F0D"/>
<path d="M1129.05 289.887L1125.3 290.286L1124.83 294.044L1128.58 293.645L1129.05 289.887Z" fill="#C98F0D"/>
<path d="M1128.12 296.199L1124.66 296.567L1124.22 300.034L1127.68 299.665L1128.12 296.199Z" fill="#C98F0D"/>
<path d="M1127.36 302.338L1123.9 302.707L1123.46 306.174L1126.92 305.804L1127.36 302.338Z" fill="#C98F0D"/>
<path d="M1139.62 155.717L1136.16 156.088L1135.72 159.554L1139.18 159.183L1139.62 155.717Z" fill="#C98F0D"/>
<path d="M1138.86 161.852L1135.4 162.219L1134.96 165.686L1138.42 165.319L1138.86 161.852Z" fill="#C98F0D"/>
<path d="M1138.08 167.987L1134.62 168.358L1134.19 171.824L1137.65 171.453L1138.08 167.987Z" fill="#C98F0D"/>
<path d="M1137.48 173.973L1133.73 174.372L1133.26 178.13L1137.01 177.73L1137.48 173.973Z" fill="#C98F0D"/>
<path d="M1136.71 180.098L1132.96 180.499L1132.49 184.257L1136.24 183.855L1136.71 180.098Z" fill="#C98F0D"/>
<path d="M1135.94 186.241L1132.19 186.64L1131.72 190.398L1135.47 189.998L1135.94 186.241Z" fill="#C98F0D"/>
<path d="M1135.18 192.367L1131.43 192.767L1130.96 196.525L1134.71 196.125L1135.18 192.367Z" fill="#C98F0D"/>
<path d="M1134.41 198.504L1130.66 198.905L1130.2 202.662L1133.95 202.261L1134.41 198.504Z" fill="#C98F0D"/>
<path d="M1133.65 204.647L1129.9 205.046L1129.43 208.804L1133.18 208.405L1133.65 204.647Z" fill="#C98F0D"/>
<path d="M1132.88 210.786L1129.13 211.187L1128.66 214.944L1132.41 214.544L1132.88 210.786Z" fill="#C98F0D"/>
<path d="M1132.11 216.913L1128.36 217.313L1127.89 221.071L1131.64 220.67L1132.11 216.913Z" fill="#C98F0D"/>
<path d="M1131.36 223.055L1127.61 223.454L1127.14 227.212L1130.89 226.813L1131.36 223.055Z" fill="#C98F0D"/>
<path d="M1130.59 229.184L1126.84 229.585L1126.37 233.342L1130.12 232.941L1130.59 229.184Z" fill="#C98F0D"/>
<path d="M1129.8 235.322L1126.06 235.723L1125.59 239.481L1129.34 239.079L1129.8 235.322Z" fill="#C98F0D"/>
<path d="M1129.05 241.47L1125.3 241.87L1124.83 245.628L1128.58 245.228L1129.05 241.47Z" fill="#C98F0D"/>
<path d="M1128.28 247.589L1124.53 247.99L1124.06 251.747L1127.81 251.346L1128.28 247.589Z" fill="#C98F0D"/>
<path d="M1127.52 253.74L1123.77 254.14L1123.3 257.897L1127.05 257.498L1127.52 253.74Z" fill="#C98F0D"/>
<path d="M1126.74 259.868L1122.99 260.268L1122.53 264.026L1126.27 263.626L1126.74 259.868Z" fill="#C98F0D"/>
<path d="M1125.99 266.005L1122.24 266.406L1121.77 270.164L1125.52 269.763L1125.99 266.005Z" fill="#C98F0D"/>
<path d="M1125.21 272.152L1121.46 272.552L1120.99 276.309L1124.74 275.91L1125.21 272.152Z" fill="#C98F0D"/>
<path d="M1124.45 278.287L1120.7 278.689L1120.23 282.446L1123.98 282.045L1124.45 278.287Z" fill="#C98F0D"/>
<path d="M1123.7 284.411L1119.95 284.81L1119.48 288.567L1123.23 288.169L1123.7 284.411Z" fill="#C98F0D"/>
<path d="M1122.91 290.557L1119.16 290.957L1118.69 294.715L1122.44 294.315L1122.91 290.557Z" fill="#C98F0D"/>
<path d="M1122.14 296.692L1118.39 297.093L1117.92 300.85L1121.67 300.449L1122.14 296.692Z" fill="#C98F0D"/>
<path d="M1121.21 302.995L1117.75 303.364L1117.32 306.83L1120.78 306.461L1121.21 302.995Z" fill="#C98F0D"/>
<path d="M1120.46 309.12L1117 309.488L1116.56 312.954L1120.02 312.586L1120.46 309.12Z" fill="#C98F0D"/>
<path d="M1132.73 162.502L1129.27 162.872L1128.84 166.339L1132.3 165.968L1132.73 162.502Z" fill="#C98F0D"/>
<path d="M1131.97 168.64L1128.51 169.008L1128.07 172.475L1131.53 172.107L1131.97 168.64Z" fill="#C98F0D"/>
<path d="M1131.19 174.78L1127.73 175.15L1127.3 178.616L1130.76 178.246L1131.19 174.78Z" fill="#C98F0D"/>
<path d="M1130.59 180.752L1126.84 181.153L1126.37 184.911L1130.12 184.51L1130.59 180.752Z" fill="#C98F0D"/>
<path d="M1129.83 186.896L1126.08 187.296L1125.61 191.054L1129.36 190.654L1129.83 186.896Z" fill="#C98F0D"/>
<path d="M1129.05 193.024L1125.3 193.426L1124.83 197.183L1128.58 196.782L1129.05 193.024Z" fill="#C98F0D"/>
<path d="M1128.3 199.161L1124.55 199.561L1124.08 203.319L1127.83 202.919L1128.3 199.161Z" fill="#C98F0D"/>
<path d="M1127.52 205.302L1123.77 205.703L1123.3 209.46L1127.05 209.06L1127.52 205.302Z" fill="#C98F0D"/>
<path d="M1126.77 211.431L1123.02 211.83L1122.55 215.588L1126.3 215.189L1126.77 211.431Z" fill="#C98F0D"/>
<path d="M1125.99 217.575L1122.24 217.975L1121.77 221.733L1125.52 221.333L1125.99 217.575Z" fill="#C98F0D"/>
<path d="M1125.22 223.716L1121.47 224.115L1121 227.873L1124.75 227.474L1125.22 223.716Z" fill="#C98F0D"/>
<path d="M1124.46 229.846L1120.71 230.246L1120.25 234.004L1124 233.604L1124.46 229.846Z" fill="#C98F0D"/>
<path d="M1123.69 235.98L1119.94 236.381L1119.47 240.139L1123.22 239.737L1123.69 235.98Z" fill="#C98F0D"/>
<path d="M1122.93 242.106L1119.18 242.507L1118.71 246.264L1122.46 245.863L1122.93 242.106Z" fill="#C98F0D"/>
<path d="M1122.15 248.248L1118.4 248.647L1117.93 252.405L1121.68 252.005L1122.15 248.248Z" fill="#C98F0D"/>
<path d="M1121.4 254.398L1117.65 254.798L1117.18 258.556L1120.93 258.156L1121.4 254.398Z" fill="#C98F0D"/>
<path d="M1120.62 260.515L1116.87 260.916L1116.4 264.673L1120.15 264.272L1120.62 260.515Z" fill="#C98F0D"/>
<path d="M1119.87 266.66L1116.12 267.06L1115.65 270.817L1119.4 270.418L1119.87 266.66Z" fill="#C98F0D"/>
<path d="M1119.09 272.805L1115.34 273.205L1114.87 276.962L1118.62 276.563L1119.09 272.805Z" fill="#C98F0D"/>
<path d="M1118.33 278.931L1114.58 279.331L1114.11 283.089L1117.86 282.689L1118.33 278.931Z" fill="#C98F0D"/>
<path d="M1117.57 285.07L1113.82 285.47L1113.35 289.228L1117.1 288.828L1117.57 285.07Z" fill="#C98F0D"/>
<path d="M1116.8 291.212L1113.05 291.613L1112.58 295.371L1116.33 294.969L1116.8 291.212Z" fill="#C98F0D"/>
<path d="M1116.02 297.344L1112.27 297.743L1111.8 301.501L1115.55 301.101L1116.02 297.344Z" fill="#C98F0D"/>
<path d="M1115.26 303.477L1111.51 303.877L1111.04 307.635L1114.79 307.234L1115.26 303.477Z" fill="#C98F0D"/>
<path d="M1114.33 309.781L1110.87 310.151L1110.44 313.617L1113.9 313.247L1114.33 309.781Z" fill="#C98F0D"/>
<path d="M1113.57 315.913L1110.11 316.282L1109.68 319.748L1113.13 319.379L1113.57 315.913Z" fill="#C98F0D"/>
<path d="M1125.84 169.295L1122.38 169.665L1121.95 173.131L1125.41 172.761L1125.84 169.295Z" fill="#C98F0D"/>
<path d="M1125.07 175.42L1121.62 175.788L1121.18 179.254L1124.64 178.886L1125.07 175.42Z" fill="#C98F0D"/>
<path d="M1124.31 181.568L1120.85 181.939L1120.42 185.405L1123.88 185.034L1124.31 181.568Z" fill="#C98F0D"/>
<path d="M1123.71 187.541L1119.96 187.941L1119.49 191.699L1123.24 191.299L1123.71 187.541Z" fill="#C98F0D"/>
<path d="M1122.94 193.674L1119.19 194.074L1118.72 197.831L1122.47 197.431L1122.94 193.674Z" fill="#C98F0D"/>
<path d="M1122.18 199.817L1118.43 200.217L1117.96 203.975L1121.71 203.574L1122.18 199.817Z" fill="#C98F0D"/>
<path d="M1121.39 205.946L1117.64 206.347L1117.17 210.104L1120.92 209.703L1121.39 205.946Z" fill="#C98F0D"/>
<path d="M1120.64 212.09L1116.89 212.49L1116.42 216.248L1120.17 215.848L1120.64 212.09Z" fill="#C98F0D"/>
<path d="M1119.87 218.234L1116.12 218.632L1115.65 222.39L1119.4 221.991L1119.87 218.234Z" fill="#C98F0D"/>
<path d="M1119.1 224.353L1115.35 224.754L1114.89 228.512L1118.64 228.111L1119.1 224.353Z" fill="#C98F0D"/>
<path d="M1118.33 230.494L1114.58 230.896L1114.11 234.653L1117.86 234.252L1118.33 230.494Z" fill="#C98F0D"/>
<path d="M1117.57 236.634L1113.82 237.034L1113.35 240.792L1117.1 240.392L1117.57 236.634Z" fill="#C98F0D"/>
<path d="M1116.8 242.769L1113.06 243.169L1112.59 246.926L1116.33 246.527L1116.8 242.769Z" fill="#C98F0D"/>
<path d="M1116.04 248.901L1112.29 249.301L1111.82 253.059L1115.57 252.659L1116.04 248.901Z" fill="#C98F0D"/>
<path d="M1115.27 255.054L1111.52 255.455L1111.05 259.213L1114.8 258.812L1115.27 255.054Z" fill="#C98F0D"/>
<path d="M1114.5 261.179L1110.75 261.578L1110.28 265.336L1114.03 264.936L1114.5 261.179Z" fill="#C98F0D"/>
<path d="M1113.74 267.317L1109.99 267.718L1109.52 271.476L1113.27 271.074L1113.74 267.317Z" fill="#C98F0D"/>
<path d="M1112.97 273.438L1109.22 273.839L1108.75 277.597L1112.5 277.196L1112.97 273.438Z" fill="#C98F0D"/>
<path d="M1112.21 279.585L1108.47 279.985L1108 283.743L1111.75 283.343L1112.21 279.585Z" fill="#C98F0D"/>
<path d="M1111.43 285.72L1107.68 286.121L1107.21 289.879L1110.96 289.478L1111.43 285.72Z" fill="#C98F0D"/>
<path d="M1110.66 291.848L1106.91 292.249L1106.45 296.007L1110.2 295.606L1110.66 291.848Z" fill="#C98F0D"/>
<path d="M1109.91 297.986L1106.16 298.385L1105.69 302.143L1109.44 301.743L1109.91 297.986Z" fill="#C98F0D"/>
<path d="M1109.14 304.13L1105.39 304.531L1104.92 308.288L1108.67 307.887L1109.14 304.13Z" fill="#C98F0D"/>
<path d="M1108.37 310.251L1104.62 310.651L1104.15 314.409L1107.9 314.009L1108.37 310.251Z" fill="#C98F0D"/>
<path d="M1107.45 316.549L1103.99 316.917L1103.56 320.383L1107.02 320.015L1107.45 316.549Z" fill="#C98F0D"/>
<path d="M1106.68 322.708L1103.22 323.077L1102.79 326.543L1106.24 326.174L1106.68 322.708Z" fill="#C98F0D"/>
<path d="M1118.94 176.077L1115.48 176.448L1115.05 179.914L1118.51 179.543L1118.94 176.077Z" fill="#C98F0D"/>
<path d="M1118.18 182.224L1114.72 182.591L1114.28 186.057L1117.74 185.69L1118.18 182.224Z" fill="#C98F0D"/>
<path d="M1117.41 188.359L1113.96 188.73L1113.52 192.196L1116.98 191.825L1117.41 188.359Z" fill="#C98F0D"/>
<path d="M1116.81 194.341L1113.06 194.741L1112.59 198.499L1116.34 198.099L1116.81 194.341Z" fill="#C98F0D"/>
<path d="M1116.05 200.459L1112.3 200.86L1111.83 204.618L1115.58 204.217L1116.05 200.459Z" fill="#C98F0D"/>
<path d="M1115.28 206.606L1111.53 207.006L1111.06 210.764L1114.81 210.364L1115.28 206.606Z" fill="#C98F0D"/>
<path d="M1114.51 212.751L1110.76 213.151L1110.29 216.909L1114.04 216.509L1114.51 212.751Z" fill="#C98F0D"/>
<path d="M1113.74 218.869L1109.99 219.27L1109.52 223.027L1113.27 222.626L1113.74 218.869Z" fill="#C98F0D"/>
<path d="M1112.99 225.012L1109.24 225.411L1108.77 229.168L1112.52 228.77L1112.99 225.012Z" fill="#C98F0D"/>
<path d="M1112.22 231.156L1108.47 231.556L1108 235.313L1111.75 234.914L1112.22 231.156Z" fill="#C98F0D"/>
<path d="M1111.43 237.28L1107.68 237.681L1107.22 241.438L1110.97 241.037L1111.43 237.28Z" fill="#C98F0D"/>
<path d="M1110.67 243.424L1106.92 243.822L1106.45 247.58L1110.2 247.181L1110.67 243.424Z" fill="#C98F0D"/>
<path d="M1109.91 249.56L1106.16 249.961L1105.69 253.718L1109.44 253.317L1109.91 249.56Z" fill="#C98F0D"/>
<path d="M1109.16 255.695L1105.41 256.096L1104.94 259.853L1108.69 259.452L1109.16 255.695Z" fill="#C98F0D"/>
<path d="M1108.39 261.838L1104.64 262.238L1104.17 265.996L1107.92 265.596L1108.39 261.838Z" fill="#C98F0D"/>
<path d="M1107.6 267.969L1103.85 268.37L1103.39 272.127L1107.14 271.726L1107.6 267.969Z" fill="#C98F0D"/>
<path d="M1106.84 274.108L1103.09 274.507L1102.62 278.265L1106.37 277.865L1106.84 274.108Z" fill="#C98F0D"/>
<path d="M1106.08 280.237L1102.33 280.638L1101.86 284.396L1105.61 283.995L1106.08 280.237Z" fill="#C98F0D"/>
<path d="M1105.32 286.376L1101.57 286.777L1101.1 290.535L1104.85 290.134L1105.32 286.376Z" fill="#C98F0D"/>
<path d="M1104.55 292.512L1100.8 292.911L1100.33 296.669L1104.08 296.27L1104.55 292.512Z" fill="#C98F0D"/>
<path d="M1103.78 298.643L1100.03 299.043L1099.56 302.801L1103.31 302.401L1103.78 298.643Z" fill="#C98F0D"/>
<path d="M1103.02 304.788L1099.27 305.186L1098.8 308.944L1102.55 308.546L1103.02 304.788Z" fill="#C98F0D"/>
<path d="M1102.25 310.922L1098.5 311.322L1098.03 315.079L1101.78 314.68L1102.25 310.922Z" fill="#C98F0D"/>
<path d="M1101.47 317.054L1097.72 317.455L1097.25 321.213L1101 320.812L1101.47 317.054Z" fill="#C98F0D"/>
<path d="M1100.57 323.349L1097.11 323.719L1096.68 327.185L1100.14 326.815L1100.57 323.349Z" fill="#C98F0D"/>
<path d="M1099.77 329.508L1096.31 329.875L1095.88 333.342L1099.34 332.975L1099.77 329.508Z" fill="#C98F0D"/>
<path d="M1112.05 182.884L1108.59 183.255L1108.16 186.721L1111.62 186.35L1112.05 182.884Z" fill="#C98F0D"/>
<path d="M1111.29 189.009L1107.83 189.378L1107.39 192.845L1110.85 192.475L1111.29 189.009Z" fill="#C98F0D"/>
<path d="M1110.52 195.142L1107.07 195.513L1106.63 198.979L1110.09 198.608L1110.52 195.142Z" fill="#C98F0D"/>
<path d="M1109.91 201.118L1106.16 201.519L1105.7 205.276L1109.45 204.875L1109.91 201.118Z" fill="#C98F0D"/>
<path d="M1109.16 207.256L1105.41 207.656L1104.94 211.414L1108.69 211.013L1109.16 207.256Z" fill="#C98F0D"/>
<path d="M1108.39 213.399L1104.64 213.8L1104.17 217.557L1107.92 217.156L1108.39 213.399Z" fill="#C98F0D"/>
<path d="M1107.61 219.527L1103.86 219.928L1103.39 223.685L1107.14 223.284L1107.61 219.527Z" fill="#C98F0D"/>
<path d="M1106.85 225.676L1103.1 226.076L1102.63 229.834L1106.38 229.434L1106.85 225.676Z" fill="#C98F0D"/>
<path d="M1106.1 231.797L1102.35 232.196L1101.88 235.954L1105.62 235.555L1106.1 231.797Z" fill="#C98F0D"/>
<path d="M1105.33 237.932L1101.58 238.332L1101.11 242.089L1104.86 241.689L1105.33 237.932Z" fill="#C98F0D"/>
<path d="M1104.56 244.083L1100.81 244.482L1100.34 248.24L1104.09 247.84L1104.56 244.083Z" fill="#C98F0D"/>
<path d="M1103.79 250.208L1100.04 250.607L1099.57 254.365L1103.32 253.965L1103.79 250.208Z" fill="#C98F0D"/>
<path d="M1103.02 256.352L1099.27 256.751L1098.8 260.509L1102.55 260.109L1103.02 256.352Z" fill="#C98F0D"/>
<path d="M1102.25 262.484L1098.51 262.885L1098.04 266.642L1101.79 266.241L1102.25 262.484Z" fill="#C98F0D"/>
<path d="M1101.5 268.616L1097.75 269.016L1097.28 272.774L1101.03 272.374L1101.5 268.616Z" fill="#C98F0D"/>
<path d="M1100.72 274.761L1096.97 275.16L1096.5 278.918L1100.25 278.519L1100.72 274.761Z" fill="#C98F0D"/>
<path d="M1099.95 280.893L1096.2 281.294L1095.73 285.051L1099.48 284.65L1099.95 280.893Z" fill="#C98F0D"/>
<path d="M1099.2 287.019L1095.45 287.42L1094.99 291.177L1098.74 290.777L1099.2 287.019Z" fill="#C98F0D"/>
<path d="M1098.43 293.156L1094.68 293.556L1094.21 297.313L1097.96 296.913L1098.43 293.156Z" fill="#C98F0D"/>
<path d="M1097.66 299.3L1093.91 299.701L1093.44 303.459L1097.19 303.058L1097.66 299.3Z" fill="#C98F0D"/>
<path d="M1096.88 305.431L1093.13 305.831L1092.66 309.588L1096.41 309.189L1096.88 305.431Z" fill="#C98F0D"/>
<path d="M1096.12 311.584L1092.37 311.984L1091.9 315.742L1095.65 315.342L1096.12 311.584Z" fill="#C98F0D"/>
<path d="M1095.36 317.724L1091.61 318.123L1091.14 321.881L1094.89 321.481L1095.36 317.724Z" fill="#C98F0D"/>
<path d="M1094.43 324.019L1090.98 324.385L1090.54 327.852L1094 327.485L1094.43 324.019Z" fill="#C98F0D"/>
<path d="M1093.67 330.13L1090.21 330.499L1089.77 333.965L1093.23 333.596L1093.67 330.13Z" fill="#C98F0D"/>
<path d="M1105.17 189.662L1101.71 190.031L1101.27 193.497L1104.73 193.128L1105.17 189.662Z" fill="#C98F0D"/>
<path d="M1104.4 195.806L1100.94 196.174L1100.51 199.64L1103.97 199.273L1104.4 195.806Z" fill="#C98F0D"/>
<path d="M1103.63 201.932L1100.17 202.302L1099.74 205.768L1103.2 205.398L1103.63 201.932Z" fill="#C98F0D"/>
<path d="M1103.03 207.921L1099.28 208.321L1098.81 212.079L1102.56 211.679L1103.03 207.921Z" fill="#C98F0D"/>
<path d="M1102.26 214.04L1098.51 214.441L1098.04 218.199L1101.79 217.798L1102.26 214.04Z" fill="#C98F0D"/>
<path d="M1101.5 220.189L1097.75 220.589L1097.28 224.346L1101.03 223.947L1101.5 220.189Z" fill="#C98F0D"/>
<path d="M1100.74 226.323L1096.99 226.721L1096.52 230.479L1100.27 230.08L1100.74 226.323Z" fill="#C98F0D"/>
<path d="M1099.97 232.46L1096.22 232.861L1095.75 236.618L1099.5 236.218L1099.97 232.46Z" fill="#C98F0D"/>
<path d="M1099.2 238.59L1095.45 238.989L1094.98 242.746L1098.73 242.348L1099.2 238.59Z" fill="#C98F0D"/>
<path d="M1098.43 244.732L1094.68 245.133L1094.21 248.89L1097.96 248.489L1098.43 244.732Z" fill="#C98F0D"/>
<path d="M1097.67 250.857L1093.92 251.258L1093.45 255.015L1097.2 254.615L1097.67 250.857Z" fill="#C98F0D"/>
<path d="M1096.89 257.011L1093.14 257.411L1092.67 261.169L1096.42 260.769L1096.89 257.011Z" fill="#C98F0D"/>
<path d="M1096.13 263.149L1092.38 263.548L1091.91 267.306L1095.66 266.907L1096.13 263.149Z" fill="#C98F0D"/>
<path d="M1095.36 269.278L1091.61 269.677L1091.14 273.435L1094.89 273.035L1095.36 269.278Z" fill="#C98F0D"/>
<path d="M1094.6 275.409L1090.85 275.81L1090.38 279.568L1094.13 279.167L1094.6 275.409Z" fill="#C98F0D"/>
<path d="M1093.85 281.55L1090.1 281.951L1089.63 285.708L1093.38 285.308L1093.85 281.55Z" fill="#C98F0D"/>
<path d="M1093.06 287.686L1089.31 288.086L1088.84 291.843L1092.59 291.444L1093.06 287.686Z" fill="#C98F0D"/>
<path d="M1092.29 293.818L1088.54 294.219L1088.07 297.977L1091.82 297.576L1092.29 293.818Z" fill="#C98F0D"/>
<path d="M1091.54 299.952L1087.79 300.351L1087.32 304.109L1091.07 303.71L1091.54 299.952Z" fill="#C98F0D"/>
<path d="M1090.77 306.088L1087.02 306.487L1086.55 310.245L1090.3 309.845L1090.77 306.088Z" fill="#C98F0D"/>
<path d="M1089.99 312.226L1086.24 312.627L1085.77 316.385L1089.52 315.984L1089.99 312.226Z" fill="#C98F0D"/>
<path d="M1089.08 318.521L1085.62 318.888L1085.19 322.355L1088.65 321.987L1089.08 318.521Z" fill="#C98F0D"/>
<path d="M1088.29 324.659L1084.83 325.029L1084.4 328.495L1087.86 328.125L1088.29 324.659Z" fill="#C98F0D"/>
<path d="M1098.27 196.462L1094.81 196.833L1094.38 200.299L1097.83 199.929L1098.27 196.462Z" fill="#C98F0D"/>
<path d="M1097.51 202.593L1094.05 202.962L1093.62 206.429L1097.08 206.06L1097.51 202.593Z" fill="#C98F0D"/>
<path d="M1096.74 208.731L1093.28 209.101L1092.85 212.568L1096.31 212.197L1096.74 208.731Z" fill="#C98F0D"/>
<path d="M1096.14 214.704L1092.39 215.103L1091.92 218.861L1095.67 218.461L1096.14 214.704Z" fill="#C98F0D"/>
<path d="M1095.37 220.84L1091.62 221.241L1091.15 224.998L1094.9 224.598L1095.37 220.84Z" fill="#C98F0D"/>
<path d="M1094.61 226.969L1090.86 227.371L1090.39 231.128L1094.14 230.727L1094.61 226.969Z" fill="#C98F0D"/>
<path d="M1093.84 233.106L1090.09 233.507L1089.63 237.264L1093.38 236.863L1093.84 233.106Z" fill="#C98F0D"/>
<path d="M1093.06 239.25L1089.31 239.651L1088.85 243.408L1092.59 243.007L1093.06 239.25Z" fill="#C98F0D"/>
<path d="M1092.3 245.379L1088.55 245.778L1088.08 249.536L1091.83 249.137L1092.3 245.379Z" fill="#C98F0D"/>
<path d="M1091.55 251.522L1087.8 251.922L1087.33 255.679L1091.08 255.28L1091.55 251.522Z" fill="#C98F0D"/>
<path d="M1090.77 257.658L1087.02 258.059L1086.56 261.816L1090.31 261.415L1090.77 257.658Z" fill="#C98F0D"/>
<path d="M1090.01 263.787L1086.26 264.185L1085.79 267.943L1089.54 267.545L1090.01 263.787Z" fill="#C98F0D"/>
<path d="M1089.24 269.932L1085.49 270.334L1085.02 274.091L1088.77 273.69L1089.24 269.932Z" fill="#C98F0D"/>
<path d="M1088.47 276.067L1084.72 276.468L1084.25 280.225L1088 279.824L1088.47 276.067Z" fill="#C98F0D"/>
<path d="M1087.72 282.199L1083.97 282.599L1083.5 286.356L1087.25 285.957L1087.72 282.199Z" fill="#C98F0D"/>
<path d="M1086.94 288.333L1083.19 288.734L1082.72 292.492L1086.47 292.091L1086.94 288.333Z" fill="#C98F0D"/>
<path d="M1086.16 294.489L1082.41 294.889L1081.94 298.646L1085.69 298.247L1086.16 294.489Z" fill="#C98F0D"/>
<path d="M1085.41 300.6L1081.66 301.001L1081.19 304.758L1084.94 304.357L1085.41 300.6Z" fill="#C98F0D"/>
<path d="M1084.64 306.743L1080.89 307.144L1080.42 310.901L1084.17 310.5L1084.64 306.743Z" fill="#C98F0D"/>
<path d="M1083.72 313.034L1080.27 313.402L1079.83 316.868L1083.29 316.5L1083.72 313.034Z" fill="#C98F0D"/>
<path d="M1082.96 319.183L1079.5 319.552L1079.06 323.019L1082.52 322.649L1082.96 319.183Z" fill="#C98F0D"/>
<path d="M1091.39 203.246L1087.93 203.616L1087.5 207.082L1090.96 206.712L1091.39 203.246Z" fill="#C98F0D"/>
<path d="M1090.61 209.39L1087.15 209.759L1086.72 213.225L1090.18 212.857L1090.61 209.39Z" fill="#C98F0D"/>
<path d="M1089.85 215.514L1086.39 215.884L1085.96 219.35L1089.42 218.98L1089.85 215.514Z" fill="#C98F0D"/>
<path d="M1089.27 221.487L1085.52 221.889L1085.05 225.646L1088.8 225.245L1089.27 221.487Z" fill="#C98F0D"/>
<path d="M1088.48 227.631L1084.73 228.031L1084.26 231.789L1088.01 231.389L1088.48 227.631Z" fill="#C98F0D"/>
<path d="M1087.72 233.764L1083.97 234.165L1083.5 237.922L1087.25 237.521L1087.72 233.764Z" fill="#C98F0D"/>
<path d="M1086.96 239.888L1083.21 240.291L1082.75 244.048L1086.5 243.645L1086.96 239.888Z" fill="#C98F0D"/>
<path d="M1086.19 246.039L1082.44 246.439L1081.97 250.197L1085.72 249.797L1086.19 246.039Z" fill="#C98F0D"/>
<path d="M1085.42 252.18L1081.67 252.58L1081.2 256.338L1084.95 255.938L1085.42 252.18Z" fill="#C98F0D"/>
<path d="M1084.65 258.307L1080.9 258.707L1080.43 262.464L1084.18 262.065L1084.65 258.307Z" fill="#C98F0D"/>
<path d="M1083.89 264.447L1080.14 264.847L1079.67 268.605L1083.42 268.205L1083.89 264.447Z" fill="#C98F0D"/>
<path d="M1083.12 270.589L1079.37 270.99L1078.9 274.747L1082.65 274.347L1083.12 270.589Z" fill="#C98F0D"/>
<path d="M1082.37 276.704L1078.62 277.104L1078.15 280.862L1081.9 280.461L1082.37 276.704Z" fill="#C98F0D"/>
<path d="M1081.59 282.857L1077.84 283.256L1077.37 287.014L1081.12 286.614L1081.59 282.857Z" fill="#C98F0D"/>
<path d="M1080.82 289L1077.07 289.4L1076.6 293.157L1080.35 292.758L1080.82 289Z" fill="#C98F0D"/>
<path d="M1080.06 295.124L1076.31 295.523L1075.84 299.281L1079.59 298.881L1080.06 295.124Z" fill="#C98F0D"/>
<path d="M1079.29 301.256L1075.54 301.657L1075.07 305.415L1078.82 305.014L1079.29 301.256Z" fill="#C98F0D"/>
<path d="M1078.36 307.554L1074.9 307.922L1074.47 311.388L1077.93 311.021L1078.36 307.554Z" fill="#C98F0D"/>
<path d="M1077.61 313.708L1074.15 314.077L1073.72 317.543L1077.18 317.174L1077.61 313.708Z" fill="#C98F0D"/>
<path d="M1084.51 210.026L1081.05 210.396L1080.62 213.862L1084.08 213.493L1084.51 210.026Z" fill="#C98F0D"/>
<path d="M1083.74 216.166L1080.28 216.535L1079.84 220.002L1083.3 219.632L1083.74 216.166Z" fill="#C98F0D"/>
<path d="M1082.97 222.31L1079.51 222.68L1079.07 226.146L1082.53 225.776L1082.97 222.31Z" fill="#C98F0D"/>
<path d="M1082.37 228.285L1078.62 228.685L1078.15 232.442L1081.9 232.043L1082.37 228.285Z" fill="#C98F0D"/>
<path d="M1081.59 234.425L1077.84 234.827L1077.37 238.584L1081.12 238.183L1081.59 234.425Z" fill="#C98F0D"/>
<path d="M1080.82 240.557L1077.07 240.957L1076.6 244.714L1080.35 244.315L1080.82 240.557Z" fill="#C98F0D"/>
<path d="M1080.06 246.699L1076.31 247.097L1075.84 250.855L1079.59 250.457L1080.06 246.699Z" fill="#C98F0D"/>
<path d="M1079.3 252.839L1075.55 253.238L1075.08 256.996L1078.83 256.596L1079.3 252.839Z" fill="#C98F0D"/>
<path d="M1078.54 258.963L1074.79 259.362L1074.32 263.119L1078.07 262.72L1078.54 258.963Z" fill="#C98F0D"/>
<path d="M1077.76 265.095L1074.01 265.496L1073.54 269.254L1077.29 268.852L1077.76 265.095Z" fill="#C98F0D"/>
<path d="M1076.99 271.235L1073.24 271.635L1072.77 275.392L1076.52 274.993L1076.99 271.235Z" fill="#C98F0D"/>
<path d="M1076.24 277.363L1072.49 277.763L1072.02 281.521L1075.77 281.12L1076.24 277.363Z" fill="#C98F0D"/>
<path d="M1075.47 283.513L1071.72 283.913L1071.25 287.671L1075 287.271L1075.47 283.513Z" fill="#C98F0D"/>
<path d="M1074.69 289.645L1070.94 290.045L1070.47 293.802L1074.22 293.403L1074.69 289.645Z" fill="#C98F0D"/>
<path d="M1073.94 295.785L1070.19 296.186L1069.72 299.944L1073.47 299.543L1073.94 295.785Z" fill="#C98F0D"/>
<path d="M1073 302.077L1069.54 302.446L1069.11 305.912L1072.57 305.543L1073 302.077Z" fill="#C98F0D"/>
<path d="M1072.24 308.226L1068.78 308.595L1068.35 312.062L1071.81 311.692L1072.24 308.226Z" fill="#C98F0D"/>
<path d="M1077.61 216.832L1074.15 217.202L1073.72 220.669L1077.18 220.298L1077.61 216.832Z" fill="#C98F0D"/>
<path d="M1076.84 222.956L1073.38 223.325L1072.95 226.791L1076.41 226.422L1076.84 222.956Z" fill="#C98F0D"/>
<path d="M1076.07 229.093L1072.61 229.462L1072.17 232.928L1075.63 232.559L1076.07 229.093Z" fill="#C98F0D"/>
<path d="M1075.48 235.068L1071.73 235.468L1071.26 239.226L1075.01 238.826L1075.48 235.068Z" fill="#C98F0D"/>
<path d="M1074.72 241.204L1070.97 241.605L1070.51 245.363L1074.26 244.961L1074.72 241.204Z" fill="#C98F0D"/>
<path d="M1073.94 247.353L1070.19 247.752L1069.72 251.51L1073.47 251.11L1073.94 247.353Z" fill="#C98F0D"/>
<path d="M1073.18 253.469L1069.43 253.87L1068.96 257.627L1072.71 257.227L1073.18 253.469Z" fill="#C98F0D"/>
<path d="M1072.4 259.613L1068.66 260.014L1068.19 263.771L1071.94 263.37L1072.4 259.613Z" fill="#C98F0D"/>
<path d="M1071.65 265.767L1067.91 266.166L1067.43 269.924L1071.18 269.525L1071.65 265.767Z" fill="#C98F0D"/>
<path d="M1070.87 271.89L1067.12 272.289L1066.65 276.047L1070.4 275.647L1070.87 271.89Z" fill="#C98F0D"/>
<path d="M1070.1 278.022L1066.35 278.423L1065.88 282.18L1069.63 281.779L1070.1 278.022Z" fill="#C98F0D"/>
<path d="M1069.35 284.17L1065.6 284.569L1065.13 288.327L1068.88 287.928L1069.35 284.17Z" fill="#C98F0D"/>
<path d="M1068.57 290.301L1064.82 290.701L1064.35 294.459L1068.1 294.059L1068.57 290.301Z" fill="#C98F0D"/>
<path d="M1067.66 296.585L1064.2 296.955L1063.77 300.421L1067.23 300.051L1067.66 296.585Z" fill="#C98F0D"/>
<path d="M1066.88 302.737L1063.42 303.105L1062.99 306.571L1066.45 306.203L1066.88 302.737Z" fill="#C98F0D"/>
<path d="M1070.72 223.603L1067.26 223.974L1066.83 227.44L1070.29 227.069L1070.72 223.603Z" fill="#C98F0D"/>
<path d="M1069.96 229.756L1066.5 230.126L1066.07 233.593L1069.53 233.223L1069.96 229.756Z" fill="#C98F0D"/>
<path d="M1069.19 235.893L1065.73 236.263L1065.3 239.729L1068.76 239.359L1069.19 235.893Z" fill="#C98F0D"/>
<path d="M1068.58 241.861L1064.83 242.262L1064.36 246.02L1068.11 245.619L1068.58 241.861Z" fill="#C98F0D"/>
<path d="M1067.83 247.993L1064.08 248.393L1063.61 252.151L1067.36 251.751L1067.83 247.993Z" fill="#C98F0D"/>
<path d="M1067.04 254.13L1063.29 254.531L1062.82 258.288L1066.57 257.887L1067.04 254.13Z" fill="#C98F0D"/>
<path d="M1066.28 260.284L1062.53 260.684L1062.07 264.442L1065.82 264.042L1066.28 260.284Z" fill="#C98F0D"/>
<path d="M1065.52 266.403L1061.77 266.803L1061.3 270.56L1065.05 270.161L1065.52 266.403Z" fill="#C98F0D"/>
<path d="M1064.76 272.534L1061.01 272.934L1060.54 276.692L1064.29 276.292L1064.76 272.534Z" fill="#C98F0D"/>
<path d="M1063.99 278.686L1060.25 279.085L1059.78 282.843L1063.52 282.443L1063.99 278.686Z" fill="#C98F0D"/>
<path d="M1063.22 284.813L1059.47 285.213L1059 288.97L1062.75 288.571L1063.22 284.813Z" fill="#C98F0D"/>
<path d="M1062.29 291.116L1058.83 291.485L1058.39 294.951L1061.85 294.582L1062.29 291.116Z" fill="#C98F0D"/>
<path d="M1061.53 297.256L1058.07 297.625L1057.63 301.092L1061.09 300.723L1061.53 297.256Z" fill="#C98F0D"/>
<path d="M1063.82 230.405L1060.37 230.775L1059.93 234.241L1063.39 233.872L1063.82 230.405Z" fill="#C98F0D"/>
<path d="M1063.07 236.534L1059.61 236.903L1059.18 240.37L1062.64 240L1063.07 236.534Z" fill="#C98F0D"/>
<path d="M1062.31 242.675L1058.85 243.044L1058.42 246.511L1061.88 246.141L1062.31 242.675Z" fill="#C98F0D"/>
<path d="M1061.7 248.647L1057.95 249.048L1057.49 252.805L1061.23 252.405L1061.7 248.647Z" fill="#C98F0D"/>
<path d="M1060.93 254.787L1057.18 255.185L1056.71 258.943L1060.46 258.545L1060.93 254.787Z" fill="#C98F0D"/>
<path d="M1060.16 260.935L1056.41 261.335L1055.94 265.093L1059.69 264.693L1060.16 260.935Z" fill="#C98F0D"/>
<path d="M1059.39 267.053L1055.64 267.453L1055.17 271.211L1058.92 270.81L1059.39 267.053Z" fill="#C98F0D"/>
<path d="M1058.62 273.205L1054.87 273.605L1054.4 277.363L1058.15 276.963L1058.62 273.205Z" fill="#C98F0D"/>
<path d="M1057.87 279.328L1054.12 279.727L1053.65 283.485L1057.4 283.086L1057.87 279.328Z" fill="#C98F0D"/>
<path d="M1056.94 285.617L1053.48 285.988L1053.05 289.454L1056.51 289.083L1056.94 285.617Z" fill="#C98F0D"/>
<path d="M1056.18 291.758L1052.72 292.125L1052.28 295.591L1055.74 295.224L1056.18 291.758Z" fill="#C98F0D"/>
<path d="M1056.94 237.185L1053.48 237.556L1053.05 241.021L1056.5 240.651L1056.94 237.185Z" fill="#C98F0D"/>
<path d="M1056.18 243.342L1052.72 243.711L1052.28 247.177L1055.74 246.809L1056.18 243.342Z" fill="#C98F0D"/>
<path d="M1055.41 249.455L1051.95 249.825L1051.52 253.291L1054.97 252.922L1055.41 249.455Z" fill="#C98F0D"/>
<path d="M1054.8 255.451L1051.05 255.85L1050.58 259.608L1054.33 259.208L1054.8 255.451Z" fill="#C98F0D"/>
<path d="M1054.04 261.567L1050.29 261.968L1049.82 265.726L1053.57 265.325L1054.04 261.567Z" fill="#C98F0D"/>
<path d="M1053.28 267.718L1049.53 268.118L1049.06 271.876L1052.81 271.476L1053.28 267.718Z" fill="#C98F0D"/>
<path d="M1052.5 273.861L1048.75 274.26L1048.28 278.018L1052.03 277.618L1052.5 273.861Z" fill="#C98F0D"/>
<path d="M1051.58 280.145L1048.12 280.515L1047.69 283.981L1051.14 283.611L1051.58 280.145Z" fill="#C98F0D"/>
<path d="M1050.81 286.282L1047.35 286.65L1046.92 290.116L1050.37 289.748L1050.81 286.282Z" fill="#C98F0D"/>
<path d="M1050.05 243.971L1046.59 244.34L1046.16 247.806L1049.61 247.437L1050.05 243.971Z" fill="#C98F0D"/>
<path d="M1049.29 250.11L1045.83 250.48L1045.4 253.946L1048.85 253.576L1049.29 250.11Z" fill="#C98F0D"/>
<path d="M1048.51 256.257L1045.05 256.625L1044.62 260.091L1048.08 259.724L1048.51 256.257Z" fill="#C98F0D"/>
<path d="M1047.91 262.225L1044.16 262.626L1043.69 266.383L1047.44 265.982L1047.91 262.225Z" fill="#C98F0D"/>
<path d="M1047.15 268.375L1043.4 268.775L1042.93 272.533L1046.68 272.133L1047.15 268.375Z" fill="#C98F0D"/>
<path d="M1046.23 274.665L1042.77 275.035L1042.33 278.501L1045.79 278.131L1046.23 274.665Z" fill="#C98F0D"/>
<path d="M1045.46 280.802L1042 281.171L1041.57 284.638L1045.03 284.268L1045.46 280.802Z" fill="#C98F0D"/>
<path d="M1043.16 250.772L1039.7 251.139L1039.27 254.606L1042.72 254.238L1043.16 250.772Z" fill="#C98F0D"/>
<path d="M1042.39 256.925L1038.93 257.294L1038.5 260.76L1041.96 260.391L1042.39 256.925Z" fill="#C98F0D"/>
<path d="M1041.63 263.05L1038.17 263.419L1037.74 266.886L1041.2 266.517L1041.63 263.05Z" fill="#C98F0D"/>
<path d="M1040.87 269.185L1037.41 269.553L1036.98 273.02L1040.43 272.651L1040.87 269.185Z" fill="#C98F0D"/>
<path d="M1040.1 275.33L1036.64 275.698L1036.2 279.164L1039.66 278.796L1040.1 275.33Z" fill="#C98F0D"/>
<path d="M1036.29 257.556L1032.83 257.926L1032.39 261.392L1035.85 261.023L1036.29 257.556Z" fill="#C98F0D"/>
<path d="M1035.5 263.705L1032.04 264.072L1031.6 267.539L1035.06 267.172L1035.5 263.705Z" fill="#C98F0D"/>
<path d="M1034.74 269.85L1031.28 270.219L1030.85 273.686L1034.3 273.317L1034.74 269.85Z" fill="#C98F0D"/>
<path d="M1029.39 264.349L1025.93 264.718L1025.5 268.184L1028.96 267.815L1029.39 264.349Z" fill="#C98F0D"/>
</g>
<path d="M929.5 329.5L968.5 368.5V541" stroke="#0457AA" stroke-width="3" stroke-linecap="round" stroke-linejoin="round"/>
</g>
<defs>
<clipPath id="clip0">
<rect width="1369" height="556" fill="white"/>
</clipPath>
</defs>
</svg>
