<svg xmlns="http://www.w3.org/2000/svg" width="64" height="71" fill="none"><g filter="url(#a)" style="mix-blend-mode:hard-light"><ellipse cx="31.703" cy="35.45" fill="#8F00FF" fill-opacity=".2" rx="19.021" ry="21"/></g><g filter="url(#b)" style="mix-blend-mode:hard-light"><path stroke="#C0F" stroke-linecap="round" stroke-linejoin="round" stroke-width="2.6" d="M15.851 49.617c0 .365.02.696.054.994.167 1.457 1.543 2.208 3.01 2.237 2.324.046 6.474.102 12.77.102 10.555 0 15.832-.159 15.832-.159m-31.666-3.174c0-.366.02-.697.055-.995.166-1.457 1.543-2.208 3.01-2.236 2.323-.046 6.473-.103 12.769-.103 5.61 0 9.751.045 12.4.087a3.42 3.42 0 0 0 3.468-3.437c-.018-2.14-.035-5.368-.035-9.983 0-4.892-.18-8.417-.365-10.741-.169-2.13-1.81-3.744-3.94-3.9-2.449-.179-6.228-.359-11.528-.359-5.3 0-9.08.18-11.53.36-2.129.155-3.77 1.77-3.939 3.899-.184 2.324-.365 5.849-.365 10.741v16.667Zm30 3.125v-6.667m-25-13.125 1.111-3.333m0 0 1.959-5.876a1.156 1.156 0 0 1 2.194 0l1.958 5.876m-6.11 0h6.11m0 0 1.111 3.333m5.834-2.5h6.666l-7.083 10h7.5"/></g><g filter="url(#c)" style="mix-blend-mode:hard-light"><path stroke="#C0F" stroke-linecap="round" stroke-linejoin="round" stroke-width="3.4" d="M15.851 49.617c0 .365.02.696.054.994.167 1.457 1.543 2.208 3.01 2.237 2.324.046 6.474.102 12.77.102 10.555 0 15.832-.159 15.832-.159m-31.666-3.174c0-.366.02-.697.055-.995.166-1.457 1.543-2.208 3.01-2.236 2.323-.046 6.473-.103 12.769-.103 5.61 0 9.751.045 12.4.087a3.42 3.42 0 0 0 3.468-3.437c-.018-2.14-.035-5.368-.035-9.983 0-4.892-.18-8.417-.365-10.741-.169-2.13-1.81-3.744-3.94-3.9-2.449-.179-6.228-.359-11.528-.359-5.3 0-9.08.18-11.53.36-2.129.155-3.77 1.77-3.939 3.899-.184 2.324-.365 5.849-.365 10.741v16.667Zm30 3.125v-6.667m-25-13.125 1.111-3.333m0 0 1.959-5.876a1.156 1.156 0 0 1 2.194 0l1.958 5.876m-6.11 0h6.11m0 0 1.111 3.333m5.834-2.5h6.666l-7.083 10h7.5"/></g><g filter="url(#d)" style="mix-blend-mode:hard-light"><path stroke="#6100FF" stroke-linecap="round" stroke-linejoin="round" stroke-opacity=".2" stroke-width="2.6" d="M15.851 49.617c0 .365.02.696.054.994.167 1.457 1.543 2.208 3.01 2.237 2.324.046 6.474.102 12.77.102 10.555 0 15.832-.159 15.832-.159m-31.666-3.174c0-.366.02-.697.055-.995.166-1.457 1.543-2.208 3.01-2.236 2.323-.046 6.473-.103 12.769-.103 5.61 0 9.751.045 12.4.087a3.42 3.42 0 0 0 3.468-3.437c-.018-2.14-.035-5.368-.035-9.983 0-4.892-.18-8.417-.365-10.741-.169-2.13-1.81-3.744-3.94-3.9-2.449-.179-6.228-.359-11.528-.359-5.3 0-9.08.18-11.53.36-2.129.155-3.77 1.77-3.939 3.899-.184 2.324-.365 5.849-.365 10.741v16.667Zm30 3.125v-6.667m-25-13.125 1.111-3.333m0 0 1.959-5.876a1.156 1.156 0 0 1 2.194 0l1.958 5.876m-6.11 0h6.11m0 0 1.111 3.333m5.834-2.5h6.666l-7.083 10h7.5"/></g><g filter="url(#e)"><path stroke="#C882FF" stroke-linecap="round" stroke-linejoin="round" stroke-width="1.6" d="M15.851 49.617c0 .365.02.696.054.994.167 1.457 1.543 2.208 3.01 2.237 2.324.046 6.474.102 12.77.102 10.555 0 15.832-.159 15.832-.159m-31.666-3.174c0-.366.02-.697.055-.995.166-1.457 1.543-2.208 3.01-2.236 2.323-.046 6.473-.103 12.769-.103 5.61 0 9.751.045 12.4.087a3.42 3.42 0 0 0 3.468-3.437c-.018-2.14-.035-5.368-.035-9.983 0-4.892-.18-8.417-.365-10.741-.169-2.13-1.81-3.744-3.94-3.9-2.449-.179-6.228-.359-11.528-.359-5.3 0-9.08.18-11.53.36-2.129.155-3.77 1.77-3.939 3.899-.184 2.324-.365 5.849-.365 10.741v16.667Zm30 3.125v-6.667m-25-13.125 1.111-3.333m0 0 1.959-5.876a1.156 1.156 0 0 1 2.194 0l1.958 5.876m-6.11 0h6.11m0 0 1.111 3.333m5.834-2.5h6.666l-7.083 10h7.5"/></g><g filter="url(#f)"><path stroke="#fff" stroke-linecap="round" stroke-linejoin="round" stroke-width=".8" d="M15.851 49.617c0 .365.02.696.054.994.167 1.457 1.543 2.208 3.01 2.237 2.324.046 6.474.102 12.77.102 10.555 0 15.832-.159 15.832-.159m-31.666-3.174c0-.366.02-.697.055-.995.166-1.457 1.543-2.208 3.01-2.236 2.323-.046 6.473-.103 12.769-.103 5.61 0 9.751.045 12.4.087a3.42 3.42 0 0 0 3.468-3.437c-.018-2.14-.035-5.368-.035-9.983 0-4.892-.18-8.417-.365-10.741-.169-2.13-1.81-3.744-3.94-3.9-2.449-.179-6.228-.359-11.528-.359-5.3 0-9.08.18-11.53.36-2.129.155-3.77 1.77-3.939 3.899-.184 2.324-.365 5.849-.365 10.741v16.667Zm30 3.125v-6.667m-25-13.125 1.111-3.333m0 0 1.959-5.876a1.156 1.156 0 0 1 2.194 0l1.958 5.876m-6.11 0h6.11m0 0 1.111 3.333m5.834-2.5h6.666l-7.083 10h7.5"/></g><defs><filter id="a" width="62.043" height="66" x=".681" y="2.45" color-interpolation-filters="sRGB" filterUnits="userSpaceOnUse"><feFlood flood-opacity="0" result="BackgroundImageFix"/><feBlend in="SourceGraphic" in2="BackgroundImageFix" result="shape"/><feGaussianBlur result="effect1_foregroundBlur_1092_4963" stdDeviation="6"/></filter><filter id="b" width="58.302" height="61.6" x="2.551" y="4.65" color-interpolation-filters="sRGB" filterUnits="userSpaceOnUse"><feFlood flood-opacity="0" result="BackgroundImageFix"/><feBlend in="SourceGraphic" in2="BackgroundImageFix" result="shape"/><feGaussianBlur result="effect1_foregroundBlur_1092_4963" stdDeviation="6"/></filter><filter id="c" width="43.102" height="46.4" x="10.151" y="12.25" color-interpolation-filters="sRGB" filterUnits="userSpaceOnUse"><feFlood flood-opacity="0" result="BackgroundImageFix"/><feBlend in="SourceGraphic" in2="BackgroundImageFix" result="shape"/><feGaussianBlur result="effect1_foregroundBlur_1092_4963" stdDeviation="2"/></filter><filter id="d" width="44.702" height="48" x="9.351" y="15.45" color-interpolation-filters="sRGB" filterUnits="userSpaceOnUse"><feFlood flood-opacity="0" result="BackgroundImageFix"/><feColorMatrix in="SourceAlpha" result="hardAlpha" values="0 0 0 0 0 0 0 0 0 0 0 0 0 0 0 0 0 0 127 0"/><feOffset dy="2.6"/><feGaussianBlur stdDeviation="1"/><feColorMatrix values="0 0 0 0 0.055 0 0 0 0 0 0 0 0 0 0.082 0 0 0 0.7 0"/><feBlend in2="BackgroundImageFix" mode="multiply" result="effect1_dropShadow_1092_4963"/><feColorMatrix in="SourceAlpha" result="hardAlpha" values="0 0 0 0 0 0 0 0 0 0 0 0 0 0 0 0 0 0 127 0"/><feOffset dy="4"/><feGaussianBlur stdDeviation="2.6"/><feColorMatrix values="0 0 0 0 0.514 0 0 0 0 0 0 0 0 0 0.756 0 0 0 1 0"/><feBlend in2="effect1_dropShadow_1092_4963" mode="color-dodge" result="effect2_dropShadow_1092_4963"/><feBlend in="SourceGraphic" in2="effect2_dropShadow_1092_4963" result="shape"/><feColorMatrix in="SourceAlpha" result="hardAlpha" values="0 0 0 0 0 0 0 0 0 0 0 0 0 0 0 0 0 0 127 0"/><feOffset dx="-.26" dy=".52"/><feGaussianBlur stdDeviation=".13"/><feComposite in2="hardAlpha" k2="-1" k3="1" operator="arithmetic"/><feColorMatrix values="0 0 0 0 1 0 0 0 0 1 0 0 0 0 1 0 0 0 0.5 0"/><feBlend in2="shape" result="effect3_innerShadow_1092_4963"/></filter><filter id="e" width="34.102" height="37.4" x="14.651" y="16.75" color-interpolation-filters="sRGB" filterUnits="userSpaceOnUse"><feFlood flood-opacity="0" result="BackgroundImageFix"/><feBlend in="SourceGraphic" in2="BackgroundImageFix" result="shape"/><feGaussianBlur result="effect1_foregroundBlur_1092_4963" stdDeviation=".2"/></filter><filter id="f" width="33.035" height="36.333" x="15.184" y="17.284" color-interpolation-filters="sRGB" filterUnits="userSpaceOnUse"><feFlood flood-opacity="0" result="BackgroundImageFix"/><feBlend in="SourceGraphic" in2="BackgroundImageFix" result="shape"/><feGaussianBlur result="effect1_foregroundBlur_1092_4963" stdDeviation=".133"/></filter></defs></svg>