<svg width="57" height="57" fill="none" xmlns="http://www.w3.org/2000/svg"><g style="mix-blend-mode:hard-light" filter="url(#a)"><circle cx="28.33" cy="28.33" r="22.33" fill="#8F00FF" fill-opacity=".2"/></g><g style="mix-blend-mode:hard-light" filter="url(#b)"><path d="M23.013 13.287c-3.85.046-6.739.163-8.763.28-2.24.128-4.016 1.758-4.214 3.994-.168 1.9-.314 4.573-.314 8.11 0 3.538.147 6.21.314 8.111.198 2.236 1.974 3.867 4.214 3.995 2.603.15 6.637.301 12.308.301 5.67 0 9.705-.151 12.308-.301 2.24-.129 4.016-1.76 4.213-3.996.107-1.204.204-2.717.262-4.565m-19.442 8.861-.6 3.006a1.772 1.772 0 0 1-1.738 1.425h-1.684a2.659 2.659 0 0 0-2.607 2.137l-.035.174a1.772 1.772 0 0 0 1.738 2.12h15.17a1.77 1.77 0 0 0 1.72-1.343c.063-.255.07-.52.019-.777l-.036-.174a2.659 2.659 0 0 0-2.604-2.137h-1.686a1.773 1.773 0 0 1-1.738-1.425l-.601-3.006m3.544-23.039h8.86m-8.86 4.43h6.202m-7.934 5.187c-1.874-.09-3.346-1.463-3.466-3.336a63.884 63.884 0 0 1-.12-4.065c0-1.66.051-3.007.12-4.066.12-1.872 1.592-3.247 3.466-3.336 1.478-.07 3.51-.13 6.162-.13 2.651 0 4.684.06 6.162.13 1.874.09 3.346 1.464 3.467 3.336.068 1.059.118 2.405.118 4.066 0 1.66-.05 3.006-.118 4.065-.12 1.873-1.593 3.247-3.467 3.336-1.032.05-2.334.093-3.928.115l-5.224 4.18a.886.886 0 0 1-1.44-.69v-3.537c-.646-.02-1.222-.044-1.732-.068Z" stroke="#C0F" stroke-width="1.3" stroke-linecap="round" stroke-linejoin="round"/></g><g style="mix-blend-mode:hard-light" filter="url(#c)"><path d="M23.013 13.287c-3.85.046-6.739.163-8.763.28-2.24.128-4.016 1.758-4.214 3.994-.168 1.9-.314 4.573-.314 8.11 0 3.538.147 6.21.314 8.111.198 2.236 1.974 3.867 4.214 3.995 2.603.15 6.637.301 12.308.301 5.67 0 9.705-.151 12.308-.301 2.24-.129 4.016-1.76 4.213-3.996.107-1.204.204-2.717.262-4.565m-19.442 8.861-.6 3.006a1.772 1.772 0 0 1-1.738 1.425h-1.684a2.659 2.659 0 0 0-2.607 2.137l-.035.174a1.772 1.772 0 0 0 1.738 2.12h15.17a1.77 1.77 0 0 0 1.72-1.343c.063-.255.07-.52.019-.777l-.036-.174a2.659 2.659 0 0 0-2.604-2.137h-1.686a1.773 1.773 0 0 1-1.738-1.425l-.601-3.006m3.544-23.039h8.86m-8.86 4.43h6.202m-7.934 5.187c-1.874-.09-3.346-1.463-3.466-3.336a63.884 63.884 0 0 1-.12-4.065c0-1.66.051-3.007.12-4.066.12-1.872 1.592-3.247 3.466-3.336 1.478-.07 3.51-.13 6.162-.13 2.651 0 4.684.06 6.162.13 1.874.09 3.346 1.464 3.467 3.336.068 1.059.118 2.405.118 4.066 0 1.66-.05 3.006-.118 4.065-.12 1.873-1.593 3.247-3.467 3.336-1.032.05-2.334.093-3.928.115l-5.224 4.18a.886.886 0 0 1-1.44-.69v-3.537c-.646-.02-1.222-.044-1.732-.068Z" stroke="#C0F" stroke-width="1.7" stroke-linecap="round" stroke-linejoin="round"/></g><g style="mix-blend-mode:hard-light" filter="url(#d)"><path d="M23.013 13.287c-3.85.046-6.739.163-8.763.28-2.24.128-4.016 1.758-4.214 3.994-.168 1.9-.314 4.573-.314 8.11 0 3.538.147 6.21.314 8.111.198 2.236 1.974 3.867 4.214 3.995 2.603.15 6.637.301 12.308.301 5.67 0 9.705-.151 12.308-.301 2.24-.129 4.016-1.76 4.213-3.996.107-1.204.204-2.717.262-4.565m-19.442 8.861-.6 3.006a1.772 1.772 0 0 1-1.738 1.425h-1.684a2.659 2.659 0 0 0-2.607 2.137l-.035.174a1.772 1.772 0 0 0 1.738 2.12h15.17a1.77 1.77 0 0 0 1.72-1.343c.063-.255.07-.52.019-.777l-.036-.174a2.659 2.659 0 0 0-2.604-2.137h-1.686a1.773 1.773 0 0 1-1.738-1.425l-.601-3.006m3.544-23.039h8.86m-8.86 4.43h6.202m-7.934 5.187c-1.874-.09-3.346-1.463-3.466-3.336a63.884 63.884 0 0 1-.12-4.065c0-1.66.051-3.007.12-4.066.12-1.872 1.592-3.247 3.466-3.336 1.478-.07 3.51-.13 6.162-.13 2.651 0 4.684.06 6.162.13 1.874.09 3.346 1.464 3.467 3.336.068 1.059.118 2.405.118 4.066 0 1.66-.05 3.006-.118 4.065-.12 1.873-1.593 3.247-3.467 3.336-1.032.05-2.334.093-3.928.115l-5.224 4.18a.886.886 0 0 1-1.44-.69v-3.537c-.646-.02-1.222-.044-1.732-.068Z" stroke="#6100FF" stroke-opacity=".2" stroke-width="1.3" stroke-linecap="round" stroke-linejoin="round"/></g><g filter="url(#e)"><path d="M23.013 13.287c-3.85.046-6.739.163-8.763.28-2.24.128-4.016 1.758-4.214 3.994-.168 1.9-.314 4.573-.314 8.11 0 3.538.147 6.21.314 8.111.198 2.236 1.974 3.867 4.214 3.995 2.603.15 6.637.301 12.308.301 5.67 0 9.705-.151 12.308-.301 2.24-.129 4.016-1.76 4.213-3.996.107-1.204.204-2.717.262-4.565m-19.442 8.861-.6 3.006a1.772 1.772 0 0 1-1.738 1.425h-1.684a2.659 2.659 0 0 0-2.607 2.137l-.035.174a1.772 1.772 0 0 0 1.738 2.12h15.17a1.77 1.77 0 0 0 1.72-1.343c.063-.255.07-.52.019-.777l-.036-.174a2.659 2.659 0 0 0-2.604-2.137h-1.686a1.773 1.773 0 0 1-1.738-1.425l-.601-3.006m3.544-23.039h8.86m-8.86 4.43h6.202m-7.934 5.187c-1.874-.09-3.346-1.463-3.466-3.336a63.884 63.884 0 0 1-.12-4.065c0-1.66.051-3.007.12-4.066.12-1.872 1.592-3.247 3.466-3.336 1.478-.07 3.51-.13 6.162-.13 2.651 0 4.684.06 6.162.13 1.874.09 3.346 1.464 3.467 3.336.068 1.059.118 2.405.118 4.066 0 1.66-.05 3.006-.118 4.065-.12 1.873-1.593 3.247-3.467 3.336-1.032.05-2.334.093-3.928.115l-5.224 4.18a.886.886 0 0 1-1.44-.69v-3.537c-.646-.02-1.222-.044-1.732-.068Z" stroke="#C882FF" stroke-width=".8" stroke-linecap="round" stroke-linejoin="round"/></g><g filter="url(#f)"><path d="M23.013 13.287c-3.85.046-6.739.163-8.763.28-2.24.128-4.016 1.758-4.214 3.994-.168 1.9-.314 4.573-.314 8.11 0 3.538.147 6.21.314 8.111.198 2.236 1.974 3.867 4.214 3.995 2.603.15 6.637.301 12.308.301 5.67 0 9.705-.151 12.308-.301 2.24-.129 4.016-1.76 4.213-3.996.107-1.204.204-2.717.262-4.565m-19.442 8.861-.6 3.006a1.772 1.772 0 0 1-1.738 1.425h-1.684a2.659 2.659 0 0 0-2.607 2.137l-.035.174a1.772 1.772 0 0 0 1.738 2.12h15.17a1.77 1.77 0 0 0 1.72-1.343c.063-.255.07-.52.019-.777l-.036-.174a2.659 2.659 0 0 0-2.604-2.137h-1.686a1.773 1.773 0 0 1-1.738-1.425l-.601-3.006m3.544-23.039h8.86m-8.86 4.43h6.202m-7.934 5.187c-1.874-.09-3.346-1.463-3.466-3.336a63.884 63.884 0 0 1-.12-4.065c0-1.66.051-3.007.12-4.066.12-1.872 1.592-3.247 3.466-3.336 1.478-.07 3.51-.13 6.162-.13 2.651 0 4.684.06 6.162.13 1.874.09 3.346 1.464 3.467 3.336.068 1.059.118 2.405.118 4.066 0 1.66-.05 3.006-.118 4.065-.12 1.873-1.593 3.247-3.467 3.336-1.032.05-2.334.093-3.928.115l-5.224 4.18a.886.886 0 0 1-1.44-.69v-3.537c-.646-.02-1.222-.044-1.732-.068Z" stroke="#fff" stroke-width=".8" stroke-linecap="round" stroke-linejoin="round"/></g><defs><filter id="a" x="0" y="0" width="56.66" height="56.66" filterUnits="userSpaceOnUse" color-interpolation-filters="sRGB"><feFlood flood-opacity="0" result="BackgroundImageFix"/><feBlend in="SourceGraphic" in2="BackgroundImageFix" result="shape"/><feGaussianBlur stdDeviation="3" result="effect1_foregroundBlur_1092_4816"/></filter><filter id="b" x="3.072" y="3.072" width="50.517" height="50.517" filterUnits="userSpaceOnUse" color-interpolation-filters="sRGB"><feFlood flood-opacity="0" result="BackgroundImageFix"/><feBlend in="SourceGraphic" in2="BackgroundImageFix" result="shape"/><feGaussianBlur stdDeviation="3" result="effect1_foregroundBlur_1092_4816"/></filter><filter id="c" x="6.872" y="6.872" width="42.917" height="42.917" filterUnits="userSpaceOnUse" color-interpolation-filters="sRGB"><feFlood flood-opacity="0" result="BackgroundImageFix"/><feBlend in="SourceGraphic" in2="BackgroundImageFix" result="shape"/><feGaussianBlur stdDeviation="1" result="effect1_foregroundBlur_1092_4816"/></filter><filter id="d" x="6.472" y="8.472" width="43.717" height="43.717" filterUnits="userSpaceOnUse" color-interpolation-filters="sRGB"><feFlood flood-opacity="0" result="BackgroundImageFix"/><feColorMatrix in="SourceAlpha" values="0 0 0 0 0 0 0 0 0 0 0 0 0 0 0 0 0 0 127 0" result="hardAlpha"/><feOffset dy="1.3"/><feGaussianBlur stdDeviation=".5"/><feColorMatrix values="0 0 0 0 0.055 0 0 0 0 0 0 0 0 0 0.082 0 0 0 0.7 0"/><feBlend mode="multiply" in2="BackgroundImageFix" result="effect1_dropShadow_1092_4816"/><feColorMatrix in="SourceAlpha" values="0 0 0 0 0 0 0 0 0 0 0 0 0 0 0 0 0 0 127 0" result="hardAlpha"/><feOffset dy="2"/><feGaussianBlur stdDeviation="1.3"/><feColorMatrix values="0 0 0 0 0.514 0 0 0 0 0 0 0 0 0 0.756 0 0 0 1 0"/><feBlend mode="color-dodge" in2="effect1_dropShadow_1092_4816" result="effect2_dropShadow_1092_4816"/><feBlend in="SourceGraphic" in2="effect2_dropShadow_1092_4816" result="shape"/><feColorMatrix in="SourceAlpha" values="0 0 0 0 0 0 0 0 0 0 0 0 0 0 0 0 0 0 127 0" result="hardAlpha"/><feOffset dx="-.13" dy=".26"/><feGaussianBlur stdDeviation=".065"/><feComposite in2="hardAlpha" operator="arithmetic" k2="-1" k3="1"/><feColorMatrix values="0 0 0 0 1 0 0 0 0 1 0 0 0 0 1 0 0 0 0.5 0"/><feBlend in2="shape" result="effect3_innerShadow_1092_4816"/></filter><filter id="e" x="9.122" y="9.122" width="38.417" height="38.417" filterUnits="userSpaceOnUse" color-interpolation-filters="sRGB"><feFlood flood-opacity="0" result="BackgroundImageFix"/><feBlend in="SourceGraphic" in2="BackgroundImageFix" result="shape"/><feGaussianBlur stdDeviation=".1" result="effect1_foregroundBlur_1092_4816"/></filter><filter id="f" x="9.188" y="9.188" width="38.283" height="38.283" filterUnits="userSpaceOnUse" color-interpolation-filters="sRGB"><feFlood flood-opacity="0" result="BackgroundImageFix"/><feBlend in="SourceGraphic" in2="BackgroundImageFix" result="shape"/><feGaussianBlur stdDeviation=".067" result="effect1_foregroundBlur_1092_4816"/></filter></defs></svg>