<svg xmlns="http://www.w3.org/2000/svg" width="75" height="75" fill="none"><g filter="url(#a)" style="mix-blend-mode:hard-light"><circle cx="37.217" cy="37.217" r="22.33" fill="#8F00FF" fill-opacity=".2"/></g><g filter="url(#b)" style="mix-blend-mode:hard-light"><path stroke="#C0F" stroke-linecap="round" stroke-linejoin="round" stroke-width="1.3" d="M31.9 22.173c-3.85.047-6.739.164-8.764.28-2.239.129-4.015 1.759-4.213 3.995-.168 1.9-.315 4.573-.315 8.11 0 3.538.148 6.21.315 8.11.198 2.236 1.973 3.868 4.213 3.995 2.604.15 6.637.302 12.308.302 5.672 0 9.705-.152 12.309-.302 2.24-.128 4.015-1.76 4.213-3.995.106-1.204.204-2.718.261-4.565m-19.44 8.86-.602 3.006a1.772 1.772 0 0 1-1.737 1.425h-1.685a2.658 2.658 0 0 0-2.607 2.138l-.034.173a1.77 1.77 0 0 0 1.737 2.12h15.17a1.77 1.77 0 0 0 1.74-2.12l-.036-.173a2.658 2.658 0 0 0-2.605-2.138h-1.686a1.773 1.773 0 0 1-1.737-1.425l-.601-3.005m3.543-23.04h8.861m-8.86 4.431h6.202m-7.934 5.187c-1.874-.09-3.346-1.464-3.467-3.336a63.81 63.81 0 0 1-.118-4.066c0-1.66.05-3.006.118-4.065.12-1.873 1.593-3.247 3.467-3.337 1.478-.07 3.51-.13 6.162-.13 2.651 0 4.684.06 6.162.13 1.874.09 3.346 1.464 3.466 3.337.069 1.059.12 2.405.12 4.065 0 1.66-.051 3.007-.12 4.066-.12 1.872-1.592 3.246-3.466 3.336-1.032.05-2.334.093-3.928.115l-5.225 4.18a.886.886 0 0 1-1.44-.691v-3.537c-.645-.02-1.22-.043-1.731-.067Z"/></g><g filter="url(#c)" style="mix-blend-mode:hard-light"><path stroke="#C0F" stroke-linecap="round" stroke-linejoin="round" stroke-width="1.7" d="M31.9 22.173c-3.85.047-6.739.164-8.764.28-2.239.129-4.015 1.759-4.213 3.995-.168 1.9-.315 4.573-.315 8.11 0 3.538.148 6.21.315 8.11.198 2.236 1.973 3.868 4.213 3.995 2.604.15 6.637.302 12.308.302 5.672 0 9.705-.152 12.309-.302 2.24-.128 4.015-1.76 4.213-3.995.106-1.204.204-2.718.261-4.565m-19.44 8.86-.602 3.006a1.772 1.772 0 0 1-1.737 1.425h-1.685a2.658 2.658 0 0 0-2.607 2.138l-.034.173a1.77 1.77 0 0 0 1.737 2.12h15.17a1.77 1.77 0 0 0 1.74-2.12l-.036-.173a2.658 2.658 0 0 0-2.605-2.138h-1.686a1.773 1.773 0 0 1-1.737-1.425l-.601-3.005m3.543-23.04h8.861m-8.86 4.431h6.202m-7.934 5.187c-1.874-.09-3.346-1.464-3.467-3.336a63.81 63.81 0 0 1-.118-4.066c0-1.66.05-3.006.118-4.065.12-1.873 1.593-3.247 3.467-3.337 1.478-.07 3.51-.13 6.162-.13 2.651 0 4.684.06 6.162.13 1.874.09 3.346 1.464 3.466 3.337.069 1.059.12 2.405.12 4.065 0 1.66-.051 3.007-.12 4.066-.12 1.872-1.592 3.246-3.466 3.336-1.032.05-2.334.093-3.928.115l-5.225 4.18a.886.886 0 0 1-1.44-.691v-3.537c-.645-.02-1.22-.043-1.731-.067Z"/></g><g filter="url(#d)" style="mix-blend-mode:hard-light"><path stroke="#6100FF" stroke-linecap="round" stroke-linejoin="round" stroke-opacity=".2" stroke-width="1.3" d="M31.9 22.173c-3.85.047-6.739.164-8.764.28-2.239.129-4.015 1.759-4.213 3.995-.168 1.9-.315 4.573-.315 8.11 0 3.538.148 6.21.315 8.11.198 2.236 1.973 3.868 4.213 3.995 2.604.15 6.637.302 12.308.302 5.672 0 9.705-.152 12.309-.302 2.24-.128 4.015-1.76 4.213-3.995.106-1.204.204-2.718.261-4.565m-19.44 8.86-.602 3.006a1.772 1.772 0 0 1-1.737 1.425h-1.685a2.658 2.658 0 0 0-2.607 2.138l-.034.173a1.77 1.77 0 0 0 1.737 2.12h15.17a1.77 1.77 0 0 0 1.74-2.12l-.036-.173a2.658 2.658 0 0 0-2.605-2.138h-1.686a1.773 1.773 0 0 1-1.737-1.425l-.601-3.005m3.543-23.04h8.861m-8.86 4.431h6.202m-7.934 5.187c-1.874-.09-3.346-1.464-3.467-3.336a63.81 63.81 0 0 1-.118-4.066c0-1.66.05-3.006.118-4.065.12-1.873 1.593-3.247 3.467-3.337 1.478-.07 3.51-.13 6.162-.13 2.651 0 4.684.06 6.162.13 1.874.09 3.346 1.464 3.466 3.337.069 1.059.12 2.405.12 4.065 0 1.66-.051 3.007-.12 4.066-.12 1.872-1.592 3.246-3.466 3.336-1.032.05-2.334.093-3.928.115l-5.225 4.18a.886.886 0 0 1-1.44-.691v-3.537c-.645-.02-1.22-.043-1.731-.067Z"/></g><g filter="url(#e)"><path stroke="#C882FF" stroke-linecap="round" stroke-linejoin="round" stroke-width=".8" d="M31.9 22.173c-3.85.047-6.739.164-8.764.28-2.239.129-4.015 1.759-4.213 3.995-.168 1.9-.315 4.573-.315 8.11 0 3.538.148 6.21.315 8.11.198 2.236 1.973 3.868 4.213 3.995 2.604.15 6.637.302 12.308.302 5.672 0 9.705-.152 12.309-.302 2.24-.128 4.015-1.76 4.213-3.995.106-1.204.204-2.718.261-4.565m-19.44 8.86-.602 3.006a1.772 1.772 0 0 1-1.737 1.425h-1.685a2.658 2.658 0 0 0-2.607 2.138l-.034.173a1.77 1.77 0 0 0 1.737 2.12h15.17a1.77 1.77 0 0 0 1.74-2.12l-.036-.173a2.658 2.658 0 0 0-2.605-2.138h-1.686a1.773 1.773 0 0 1-1.737-1.425l-.601-3.005m3.543-23.04h8.861m-8.86 4.431h6.202m-7.934 5.187c-1.874-.09-3.346-1.464-3.467-3.336a63.81 63.81 0 0 1-.118-4.066c0-1.66.05-3.006.118-4.065.12-1.873 1.593-3.247 3.467-3.337 1.478-.07 3.51-.13 6.162-.13 2.651 0 4.684.06 6.162.13 1.874.09 3.346 1.464 3.466 3.337.069 1.059.12 2.405.12 4.065 0 1.66-.051 3.007-.12 4.066-.12 1.872-1.592 3.246-3.466 3.336-1.032.05-2.334.093-3.928.115l-5.225 4.18a.886.886 0 0 1-1.44-.691v-3.537c-.645-.02-1.22-.043-1.731-.067Z"/></g><g filter="url(#f)"><path stroke="#fff" stroke-linecap="round" stroke-linejoin="round" stroke-width=".8" d="M31.9 22.173c-3.85.047-6.739.164-8.764.28-2.239.129-4.015 1.759-4.213 3.995-.168 1.9-.315 4.573-.315 8.11 0 3.538.148 6.21.315 8.11.198 2.236 1.973 3.868 4.213 3.995 2.604.15 6.637.302 12.308.302 5.672 0 9.705-.152 12.309-.302 2.24-.128 4.015-1.76 4.213-3.995.106-1.204.204-2.718.261-4.565m-19.44 8.86-.602 3.006a1.772 1.772 0 0 1-1.737 1.425h-1.685a2.658 2.658 0 0 0-2.607 2.138l-.034.173a1.77 1.77 0 0 0 1.737 2.12h15.17a1.77 1.77 0 0 0 1.74-2.12l-.036-.173a2.658 2.658 0 0 0-2.605-2.138h-1.686a1.773 1.773 0 0 1-1.737-1.425l-.601-3.005m3.543-23.04h8.861m-8.86 4.431h6.202m-7.934 5.187c-1.874-.09-3.346-1.464-3.467-3.336a63.81 63.81 0 0 1-.118-4.066c0-1.66.05-3.006.118-4.065.12-1.873 1.593-3.247 3.467-3.337 1.478-.07 3.51-.13 6.162-.13 2.651 0 4.684.06 6.162.13 1.874.09 3.346 1.464 3.466 3.337.069 1.059.12 2.405.12 4.065 0 1.66-.051 3.007-.12 4.066-.12 1.872-1.592 3.246-3.466 3.336-1.032.05-2.334.093-3.928.115l-5.225 4.18a.886.886 0 0 1-1.44-.691v-3.537c-.645-.02-1.22-.043-1.731-.067Z"/></g><defs><filter id="a" width="56.66" height="56.66" x="8.887" y="8.887" color-interpolation-filters="sRGB" filterUnits="userSpaceOnUse"><feFlood flood-opacity="0" result="BackgroundImageFix"/><feBlend in="SourceGraphic" in2="BackgroundImageFix" result="shape"/><feGaussianBlur result="effect1_foregroundBlur_1092_4816" stdDeviation="3"/></filter><filter id="b" width="50.517" height="50.517" x="11.959" y="11.958" color-interpolation-filters="sRGB" filterUnits="userSpaceOnUse"><feFlood flood-opacity="0" result="BackgroundImageFix"/><feBlend in="SourceGraphic" in2="BackgroundImageFix" result="shape"/><feGaussianBlur result="effect1_foregroundBlur_1092_4816" stdDeviation="3"/></filter><filter id="c" width="42.917" height="42.917" x="15.758" y="15.758" color-interpolation-filters="sRGB" filterUnits="userSpaceOnUse"><feFlood flood-opacity="0" result="BackgroundImageFix"/><feBlend in="SourceGraphic" in2="BackgroundImageFix" result="shape"/><feGaussianBlur result="effect1_foregroundBlur_1092_4816" stdDeviation="1"/></filter><filter id="d" width="43.717" height="43.717" x="15.358" y="17.358" color-interpolation-filters="sRGB" filterUnits="userSpaceOnUse"><feFlood flood-opacity="0" result="BackgroundImageFix"/><feColorMatrix in="SourceAlpha" result="hardAlpha" values="0 0 0 0 0 0 0 0 0 0 0 0 0 0 0 0 0 0 127 0"/><feOffset dy="1.3"/><feGaussianBlur stdDeviation=".5"/><feColorMatrix values="0 0 0 0 0.055 0 0 0 0 0 0 0 0 0 0.082 0 0 0 0.7 0"/><feBlend in2="BackgroundImageFix" mode="multiply" result="effect1_dropShadow_1092_4816"/><feColorMatrix in="SourceAlpha" result="hardAlpha" values="0 0 0 0 0 0 0 0 0 0 0 0 0 0 0 0 0 0 127 0"/><feOffset dy="2"/><feGaussianBlur stdDeviation="1.3"/><feColorMatrix values="0 0 0 0 0.514 0 0 0 0 0 0 0 0 0 0.756 0 0 0 1 0"/><feBlend in2="effect1_dropShadow_1092_4816" mode="color-dodge" result="effect2_dropShadow_1092_4816"/><feBlend in="SourceGraphic" in2="effect2_dropShadow_1092_4816" result="shape"/><feColorMatrix in="SourceAlpha" result="hardAlpha" values="0 0 0 0 0 0 0 0 0 0 0 0 0 0 0 0 0 0 127 0"/><feOffset dx="-.13" dy=".26"/><feGaussianBlur stdDeviation=".065"/><feComposite in2="hardAlpha" k2="-1" k3="1" operator="arithmetic"/><feColorMatrix values="0 0 0 0 1 0 0 0 0 1 0 0 0 0 1 0 0 0 0.5 0"/><feBlend in2="shape" result="effect3_innerShadow_1092_4816"/></filter><filter id="e" width="38.417" height="38.417" x="18.009" y="18.008" color-interpolation-filters="sRGB" filterUnits="userSpaceOnUse"><feFlood flood-opacity="0" result="BackgroundImageFix"/><feBlend in="SourceGraphic" in2="BackgroundImageFix" result="shape"/><feGaussianBlur result="effect1_foregroundBlur_1092_4816" stdDeviation=".1"/></filter><filter id="f" width="38.283" height="38.283" x="18.075" y="18.075" color-interpolation-filters="sRGB" filterUnits="userSpaceOnUse"><feFlood flood-opacity="0" result="BackgroundImageFix"/><feBlend in="SourceGraphic" in2="BackgroundImageFix" result="shape"/><feGaussianBlur result="effect1_foregroundBlur_1092_4816" stdDeviation=".067"/></filter></defs></svg>