<svg xmlns="http://www.w3.org/2000/svg" width="74" height="67" fill="none"><g filter="url(#a)" style="mix-blend-mode:hard-light"><ellipse cx="36.596" cy="33.696" fill="#8F00FF" fill-opacity=".2" rx="21.958" ry="19.958"/></g><g filter="url(#b)" style="mix-blend-mode:hard-light"><path fill="#C0F" d="m46.318 35.068-1.14-.625-.001.001 1.14.624Zm1.461 0 1.14-.624-1.14.624Zm1.66 3.035 1.14-.624-1.14.624Zm1.988 1.987.624-1.14-.624 1.14Zm3.035 1.66.624-1.14-.624 1.14Zm0 1.462.624 1.14-.624-1.14Zm-3.035 1.66.624 1.14-.624-1.14Zm-1.988 1.988 1.14.623-1.14-.623Zm-1.66 3.035 1.14.624-1.14-.624Zm-1.461 0-1.141.623v.001l1.14-.624Zm-1.66-3.035-1.141.623 1.14-.623Zm-1.988-1.988-.624 1.14.624-1.14Zm-3.035-1.66-.625 1.14h.001l.624-1.14Zm0-1.462-.624-1.14.624 1.14Zm3.035-1.66-.624-1.14.624 1.14Zm1.988-1.987-1.141-.624 1.14.624Zm6.221-5.662a1.3 1.3 0 0 0 2.339 1.136l-2.339-1.136Zm2.095-7.674-1.27.28.004.015 1.266-.295Zm-15.925-5.33.855.98.004-.004-.859-.976Zm-1.25 1.257-.93.91a1.3 1.3 0 0 0 1.858 0l-.929-.91Zm-1.252-1.257-.859.976.003.003.856-.979Zm-15.925 5.33 1.265.298.004-.017-1.27-.28Zm1.528 9.328 1.104-.687-1.104.687Zm12.567 11.979-.76 1.054.002.002.758-1.056Zm4.12 2.208a1.3 1.3 0 0 0-.411-2.568l.412 2.568Zm10.62-12.59a.466.466 0 0 1-.17.178l-1.326-2.237c-.329.195-.6.475-.783.81l2.28 1.25Zm-.17.178a.466.466 0 0 1-.239.065v-2.6c-.382 0-.758.103-1.087.298l1.325 2.237Zm-.239.065a.466.466 0 0 1-.237-.065l1.325-2.237a2.133 2.133 0 0 0-1.088-.298v2.6Zm-.237-.065a.466.466 0 0 1-.172-.177l2.28-1.25a2.133 2.133 0 0 0-.783-.81L46.81 35.87Zm-.172-.178 1.66 3.035 2.28-1.248-1.66-3.035-2.28 1.248Zm1.66 3.035a6.3 6.3 0 0 0 2.504 2.504l1.248-2.281a3.7 3.7 0 0 1-1.471-1.47l-2.281 1.247Zm2.504 2.504 3.035 1.66 1.248-2.281-3.035-1.66-1.248 2.281Zm3.034 1.66a.467.467 0 0 1-.177-.172l2.237-1.325c-.195-.33-.475-.6-.81-.784l-1.25 2.28Zm-.177-.172a.467.467 0 0 1-.065-.238h2.6c0-.382-.103-.758-.298-1.087l-2.237 1.325Zm-.065-.238c0-.083.022-.166.065-.238l2.237 1.325c.195-.329.298-.704.298-1.087h-2.6Zm.065-.238a.467.467 0 0 1 .177-.171l1.25 2.28c.335-.184.615-.454.81-.783l-2.237-1.326Zm.178-.172-3.035 1.66 1.248 2.282 3.035-1.66-1.248-2.282Zm-3.035 1.66a6.3 6.3 0 0 0-2.504 2.505l2.28 1.247a3.7 3.7 0 0 1 1.472-1.47l-1.248-2.282Zm-2.504 2.505-1.66 3.035 2.28 1.247 1.66-3.035-2.28-1.247Zm-1.66 3.034c.04-.074.1-.135.172-.177l1.325 2.237c.329-.195.6-.475.783-.81l-2.28-1.25Zm.172-.177a.466.466 0 0 1 .237-.066v2.6c.383 0 .758-.102 1.088-.297l-1.325-2.237Zm.237-.066c.084 0 .166.023.238.066l-1.325 2.237c.33.195.705.297 1.087.297v-2.6Zm.238.066a.466.466 0 0 1 .172.177l-2.28 1.25c.183.335.454.615.783.81l1.325-2.237Zm.172.178-1.66-3.035-2.281 1.247 1.66 3.035 2.281-1.247Zm-1.66-3.035a6.3 6.3 0 0 0-2.504-2.505l-1.248 2.282a3.7 3.7 0 0 1 1.471 1.47l2.281-1.247Zm-2.504-2.505-3.035-1.66-1.248 2.282 3.035 1.66 1.248-2.282Zm-3.034-1.659c.073.04.134.1.177.171L38.2 43.568c.195.33.475.6.81.784l1.25-2.28Zm.177.171a.466.466 0 0 1 .065.238h-2.6c0 .383.103.758.298 1.087l2.237-1.325Zm.065.238a.466.466 0 0 1-.065.238L38.2 41.394c-.195.33-.298.705-.298 1.087h2.6Zm-.065.238a.467.467 0 0 1-.177.172l-1.25-2.28a2.133 2.133 0 0 0-.81.783l2.237 1.325Zm-.178.172 3.035-1.66-1.248-2.281-3.035 1.66 1.248 2.281Zm3.035-1.66a6.3 6.3 0 0 0 2.504-2.504l-2.281-1.248a3.7 3.7 0 0 1-1.47 1.47l1.247 2.282Zm2.504-2.504 1.66-3.035-2.281-1.248-1.66 3.035 2.281 1.248Zm7.42-5.15a13.72 13.72 0 0 0 1.022-9.104l-2.532.589a11.12 11.12 0 0 1-.829 7.379l2.339 1.136Zm1.026-9.09C52.44 16.325 42.452 12.955 36.19 18.46l1.717 1.952c4.74-4.169 12.411-1.64 13.797 4.634l2.539-.56Zm-18.05-6.029c-.485.424-.96.954-1.325 1.326l1.858 1.82c.493-.504.793-.852 1.178-1.188l-1.711-1.958Zm.533 1.326c-.365-.373-.84-.902-1.325-1.326l-1.71 1.958c.384.336.686.686 1.178 1.187l1.857-1.819Zm-1.322-1.323c-6.26-5.506-16.25-2.136-18.053 6.026l2.54.56c1.386-6.274 9.056-8.803 13.796-4.634l1.717-1.952Zm-18.049 6.008a13.697 13.697 0 0 0 1.691 10.314l2.206-1.376a11.096 11.096 0 0 1-1.366-8.342l-2.53-.596Zm1.69 10.314c3.154 5.064 8.197 8.949 12.91 12.345l1.52-2.109c-4.73-3.41-9.371-7.032-12.222-11.61l-2.207 1.374ZM31.96 47.13a6.58 6.58 0 0 0 4.879 1.151l-.412-2.567a3.98 3.98 0 0 1-2.951-.696l-1.516 2.112Z"/></g><g filter="url(#c)" style="mix-blend-mode:hard-light"><path fill="#C0F" d="m46.318 35.068-1.491-.817v.001l1.49.816Zm1.461 0 1.492-.816-1.492.816Zm1.66 3.035 1.492-.816-1.492.816Zm1.988 1.987.816-1.491-.816 1.491Zm3.035 1.66.817-1.49-.002-.001-.815 1.491Zm0 1.462.816 1.492v-.001l-.816-1.49Zm-3.035 1.66.816 1.492-.816-1.492Zm-1.988 1.988 1.492.815-1.492-.815Zm-1.66 3.035 1.491.816-1.49-.816Zm-1.461 0-1.492.815v.001l1.492-.816Zm-1.66-3.035-1.492.815 1.492-.815Zm-1.988-1.988-.816 1.492.816-1.492Zm-3.035-1.66-.817 1.491h.001l.816-1.49Zm0-1.462-.816-1.491.816 1.491Zm3.035-1.66-.816-1.491.816 1.491Zm1.988-1.987-1.492-.816 1.492.816Zm5.861-5.837a1.7 1.7 0 1 0 3.059 1.486l-3.059-1.486Zm2.455-7.499-1.66.367a.621.621 0 0 0 .005.018l1.655-.385Zm-15.925-5.33 1.119 1.28.004-.003-1.123-1.277Zm-1.25 1.257-1.215 1.189a1.7 1.7 0 0 0 2.43 0l-1.216-1.19Zm-1.252-1.257-1.123 1.277.004.003 1.119-1.28Zm-15.925 5.33 1.654.39.006-.023-1.66-.367Zm1.528 9.328 1.443-.898v-.001l-1.443.9Zm12.567 11.979-.994 1.379.002.002.992-1.381Zm4.184 2.602a1.7 1.7 0 0 0-.538-3.357l.538 3.357Zm10.907-12.791a.867.867 0 0 1-.318.329l-1.733-2.925c-.39.231-.712.564-.93.962l2.982 1.634Zm-.318.329a.867.867 0 0 1-.442.121v-3.4c-.454 0-.9.122-1.29.354l1.732 2.925Zm-.442.121a.867.867 0 0 1-.441-.121l1.733-2.925a2.534 2.534 0 0 0-1.292-.354v3.4Zm-.441-.121a.866.866 0 0 1-.319-.33l2.982-1.633a2.534 2.534 0 0 0-.93-.962l-1.733 2.925Zm-.32-.33 1.66 3.035 2.984-1.632-1.66-3.035-2.983 1.632Zm1.66 3.035a6.7 6.7 0 0 0 2.664 2.663l1.632-2.983a3.3 3.3 0 0 1-1.312-1.312l-2.983 1.632Zm2.664 2.663 3.035 1.66 1.632-2.983-3.035-1.66-1.632 2.983Zm3.034 1.66a.867.867 0 0 1-.33-.319l2.926-1.733a2.534 2.534 0 0 0-.962-.93l-1.634 2.981Zm-.33-.319a.867.867 0 0 1-.12-.442h3.4c0-.454-.123-.9-.354-1.29l-2.925 1.732Zm-.12-.442c0-.155.041-.308.12-.442l2.926 1.733c.231-.39.354-.837.354-1.29h-3.4Zm.12-.442a.867.867 0 0 1 .33-.318l1.634 2.982c.398-.218.73-.54.962-.93l-2.925-1.734Zm.331-.318-3.035 1.66 1.632 2.983 3.035-1.66-1.632-2.983Zm-3.035 1.66a6.7 6.7 0 0 0-2.663 2.663l2.983 1.631a3.3 3.3 0 0 1 1.312-1.311L50.61 43.38Zm-2.663 2.663-1.66 3.035 2.983 1.631 1.66-3.035-2.983-1.631Zm-1.66 3.034a.866.866 0 0 1 .319-.33l1.733 2.926c.39-.232.712-.564.93-.963l-2.982-1.633Zm.319-.33a.867.867 0 0 1 .441-.12v3.4c.455 0 .9-.123 1.292-.354l-1.733-2.925Zm.441-.12c.156 0 .308.041.442.12l-1.733 2.926c.391.231.837.354 1.291.354v-3.4Zm.442.12c.134.08.244.193.319.33l-2.982 1.633c.218.399.54.731.93.963l1.733-2.925Zm.32.33-1.66-3.034-2.984 1.631 1.66 3.035 2.983-1.631Zm-1.66-3.034a6.7 6.7 0 0 0-2.664-2.663l-1.632 2.983a3.3 3.3 0 0 1 1.312 1.311l2.983-1.631Zm-2.664-2.663-3.035-1.66-1.632 2.983 3.035 1.66 1.632-2.983Zm-3.034-1.66c.136.075.25.185.33.319l-2.926 1.732c.231.391.564.713.962.931l1.634-2.982Zm.33.319c.078.133.12.286.12.441h-3.4c0 .455.122.9.354 1.291l2.925-1.733Zm.12.441a.867.867 0 0 1-.12.442l-2.926-1.733c-.232.391-.354.837-.354 1.291h3.4Zm-.12.442a.868.868 0 0 1-.33.318l-1.634-2.981c-.398.218-.73.54-.962.93l2.925 1.733Zm-.331.319 3.035-1.66-1.632-2.983-3.035 1.66 1.632 2.983Zm3.035-1.66a6.7 6.7 0 0 0 2.663-2.663l-2.983-1.632a3.3 3.3 0 0 1-1.312 1.312l1.632 2.983Zm2.663-2.663 1.66-3.035-2.983-1.632-1.66 3.035 2.983 1.632Zm7.428-5.167a14.12 14.12 0 0 0 1.053-9.37l-3.312.77a10.72 10.72 0 0 1-.799 7.114l3.059 1.486Zm1.057-9.352c-1.867-8.452-12.213-11.951-18.707-6.24l2.245 2.554c4.507-3.964 11.82-1.564 13.142 4.42l3.32-.733Zm-18.703-6.243c-.5.437-1.003.996-1.347 1.348l2.43 2.378c.511-.523.784-.843 1.154-1.166l-2.237-2.56Zm1.082 1.348c-.346-.354-.847-.91-1.348-1.348l-2.237 2.56c.37.323.645.645 1.156 1.166l2.43-2.378ZM35.67 18.16c-6.495-5.712-16.84-2.213-18.708 6.24l3.32.733c1.322-5.985 8.636-8.384 13.142-4.42l2.245-2.553Zm-18.703 6.217a14.096 14.096 0 0 0 1.74 10.617l2.886-1.8a10.697 10.697 0 0 1-1.317-8.038l-3.309-.78Zm1.74 10.616c3.2 5.14 8.305 9.064 13.016 12.459l1.988-2.758c-4.735-3.412-9.313-6.994-12.118-11.498l-2.886 1.797Zm13.018 12.46a6.98 6.98 0 0 0 5.176 1.222l-.538-3.357a3.58 3.58 0 0 1-2.655-.626l-1.983 2.762Z"/></g><g filter="url(#d)" style="mix-blend-mode:hard-light"><path fill="#6100FF" fill-opacity=".2" d="m46.318 35.068-1.14-.625-.001.001 1.14.624Zm1.461 0 1.14-.624-1.14.624Zm1.66 3.035 1.14-.624-1.14.624Zm1.988 1.987.624-1.14-.624 1.14Zm3.035 1.66.624-1.14-.624 1.14Zm0 1.462.624 1.14-.624-1.14Zm-3.035 1.66.624 1.14-.624-1.14Zm-1.988 1.988 1.14.623-1.14-.623Zm-1.66 3.035 1.14.624-1.14-.624Zm-1.461 0-1.141.623v.001l1.14-.624Zm-1.66-3.035-1.141.623 1.14-.623Zm-1.988-1.988-.624 1.14.624-1.14Zm-3.035-1.66-.625 1.14h.001l.624-1.14Zm0-1.462-.624-1.14.624 1.14Zm3.035-1.66-.624-1.14.624 1.14Zm1.988-1.987-1.141-.624 1.14.624Zm6.221-5.662a1.3 1.3 0 0 0 2.339 1.136l-2.339-1.136Zm2.095-7.674-1.27.28.004.015 1.266-.295Zm-15.925-5.33.855.98.004-.004-.859-.976Zm-1.25 1.257-.93.91a1.3 1.3 0 0 0 1.858 0l-.929-.91Zm-1.252-1.257-.859.976.003.003.856-.979Zm-15.925 5.33 1.265.298.004-.017-1.27-.28Zm1.528 9.328 1.104-.687-1.104.687Zm12.567 11.979-.76 1.054.002.002.758-1.056Zm4.12 2.208a1.3 1.3 0 0 0-.411-2.568l.412 2.568Zm10.62-12.59a.466.466 0 0 1-.17.178l-1.326-2.237c-.329.195-.6.475-.783.81l2.28 1.25Zm-.17.178a.466.466 0 0 1-.239.065v-2.6c-.382 0-.758.103-1.087.298l1.325 2.237Zm-.239.065a.466.466 0 0 1-.237-.065l1.325-2.237a2.133 2.133 0 0 0-1.088-.298v2.6Zm-.237-.065a.466.466 0 0 1-.172-.177l2.28-1.25a2.133 2.133 0 0 0-.783-.81L46.81 35.87Zm-.172-.178 1.66 3.035 2.28-1.248-1.66-3.035-2.28 1.248Zm1.66 3.035a6.3 6.3 0 0 0 2.504 2.504l1.248-2.281a3.7 3.7 0 0 1-1.471-1.47l-2.281 1.247Zm2.504 2.504 3.035 1.66 1.248-2.281-3.035-1.66-1.248 2.281Zm3.034 1.66a.467.467 0 0 1-.177-.172l2.237-1.325c-.195-.33-.475-.6-.81-.784l-1.25 2.28Zm-.177-.172a.467.467 0 0 1-.065-.238h2.6c0-.382-.103-.758-.298-1.087l-2.237 1.325Zm-.065-.238c0-.083.022-.166.065-.238l2.237 1.325c.195-.329.298-.704.298-1.087h-2.6Zm.065-.238a.467.467 0 0 1 .177-.171l1.25 2.28c.335-.184.615-.454.81-.783l-2.237-1.326Zm.178-.172-3.035 1.66 1.248 2.282 3.035-1.66-1.248-2.282Zm-3.035 1.66a6.3 6.3 0 0 0-2.504 2.505l2.28 1.247a3.7 3.7 0 0 1 1.472-1.47l-1.248-2.282Zm-2.504 2.505-1.66 3.035 2.28 1.247 1.66-3.035-2.28-1.247Zm-1.66 3.034c.04-.074.1-.135.172-.177l1.325 2.237c.329-.195.6-.475.783-.81l-2.28-1.25Zm.172-.177a.466.466 0 0 1 .237-.066v2.6c.383 0 .758-.102 1.088-.297l-1.325-2.237Zm.237-.066c.084 0 .166.023.238.066l-1.325 2.237c.33.195.705.297 1.087.297v-2.6Zm.238.066a.466.466 0 0 1 .172.177l-2.28 1.25c.183.335.454.615.783.81l1.325-2.237Zm.172.178-1.66-3.035-2.281 1.247 1.66 3.035 2.281-1.247Zm-1.66-3.035a6.3 6.3 0 0 0-2.504-2.505l-1.248 2.282a3.7 3.7 0 0 1 1.471 1.47l2.281-1.247Zm-2.504-2.505-3.035-1.66-1.248 2.282 3.035 1.66 1.248-2.282Zm-3.034-1.659c.073.04.134.1.177.171L38.2 43.568c.195.33.475.6.81.784l1.25-2.28Zm.177.171a.466.466 0 0 1 .065.238h-2.6c0 .383.103.758.298 1.087l2.237-1.325Zm.065.238a.466.466 0 0 1-.065.238L38.2 41.394c-.195.33-.298.705-.298 1.087h2.6Zm-.065.238a.467.467 0 0 1-.177.172l-1.25-2.28a2.133 2.133 0 0 0-.81.783l2.237 1.325Zm-.178.172 3.035-1.66-1.248-2.281-3.035 1.66 1.248 2.281Zm3.035-1.66a6.3 6.3 0 0 0 2.504-2.504l-2.281-1.248a3.7 3.7 0 0 1-1.47 1.47l1.247 2.282Zm2.504-2.504 1.66-3.035-2.281-1.248-1.66 3.035 2.281 1.248Zm7.42-5.15a13.72 13.72 0 0 0 1.022-9.104l-2.532.589a11.12 11.12 0 0 1-.829 7.379l2.339 1.136Zm1.026-9.09C52.44 16.325 42.452 12.955 36.19 18.46l1.717 1.952c4.74-4.169 12.411-1.64 13.797 4.634l2.539-.56Zm-18.05-6.029c-.485.424-.96.954-1.325 1.326l1.858 1.82c.493-.504.793-.852 1.178-1.188l-1.711-1.958Zm.533 1.326c-.365-.373-.84-.902-1.325-1.326l-1.71 1.958c.384.336.686.686 1.178 1.187l1.857-1.819Zm-1.322-1.323c-6.26-5.506-16.25-2.136-18.053 6.026l2.54.56c1.386-6.274 9.056-8.803 13.796-4.634l1.717-1.952Zm-18.049 6.008a13.697 13.697 0 0 0 1.691 10.314l2.206-1.376a11.096 11.096 0 0 1-1.366-8.342l-2.53-.596Zm1.69 10.314c3.154 5.064 8.197 8.949 12.91 12.345l1.52-2.109c-4.73-3.41-9.371-7.032-12.222-11.61l-2.207 1.374ZM31.96 47.13a6.58 6.58 0 0 0 4.879 1.151l-.412-2.567a3.98 3.98 0 0 1-2.951-.696l-1.516 2.112Z"/></g><g filter="url(#e)"><path fill="#C882FF" d="m46.318 35.068-.702-.384.702.384Zm1.461 0 .702-.384-.702.384Zm1.66 3.035.702-.384-.702.384Zm1.988 1.987.384-.702-.384.702Zm3.035 1.66.384-.701-.384.701Zm0 1.462.384.702-.384-.702Zm-3.035 1.66.384.702-.384-.702Zm-1.988 1.988.702.383-.702-.383Zm-1.66 3.035.702.384-.702-.384Zm-1.461 0-.702.383v.001l.702-.384Zm-1.66-3.035-.702.383.702-.383Zm-1.988-1.988-.384.702.384-.702Zm-3.035-1.66-.384.702.384-.702Zm0-1.462-.384-.702.384.702Zm3.035-1.66-.384-.702.384.702Zm1.988-1.987-.702-.384.702.384Zm6.67-5.444a.8.8 0 1 0 1.44.7l-1.44-.7Zm1.646-7.892-.781.173.002.008.78-.18Zm-15.925-5.33.527.603.002-.002-.529-.6Zm-1.25 1.257-.572.56a.8.8 0 0 0 1.143 0l-.572-.56Zm-1.252-1.257-.529.6.002.003.527-.603Zm-15.925 5.33.779.183.002-.01-.781-.173Zm1.528 9.328.68-.422-.001-.001-.679.423Zm12.567 11.979-.468.649h.001l.467-.65Zm4.041 1.714a.8.8 0 1 0-.253-1.58l.253 1.58ZM47.02 35.452a.035.035 0 0 1 .012-.012l-.815-1.377c-.252.15-.46.364-.6.62l1.403.77Zm.012-.012a.034.034 0 0 1 .017-.005v-1.6c-.293 0-.58.079-.832.228l.815 1.377Zm.017-.005c.006 0 .012.002.017.005l.816-1.377a1.634 1.634 0 0 0-.833-.228v1.6Zm.017.005c.006.003.01.007.013.012l1.403-.768a1.634 1.634 0 0 0-.6-.621l-.816 1.377Zm.012.012 1.66 3.035 1.404-.768-1.66-3.035-1.404.768Zm1.66 3.035a5.8 5.8 0 0 0 2.306 2.305l.768-1.404a4.2 4.2 0 0 1-1.67-1.669l-1.404.768Zm2.306 2.305 3.035 1.66.768-1.404-3.035-1.66-.768 1.404Zm3.034 1.66c.006.003.01.007.013.012l1.377-.815a1.634 1.634 0 0 0-.62-.6l-.77 1.403Zm.013.012a.033.033 0 0 1 .005.017h1.6c0-.293-.08-.58-.228-.832l-1.377.815Zm.005.017a.033.033 0 0 1-.005.017l1.377.816c.149-.252.228-.54.228-.833h-1.6Zm-.005.017a.033.033 0 0 1-.013.013l.77 1.403c.256-.141.47-.348.62-.6l-1.377-.816Zm-.012.012-3.035 1.66.768 1.404 3.035-1.66-.768-1.404Zm-3.035 1.66a5.8 5.8 0 0 0-2.306 2.306l1.404.767a4.2 4.2 0 0 1 1.67-1.669l-.768-1.404Zm-2.306 2.306-1.66 3.035 1.404.767 1.66-3.035-1.404-.767Zm-1.66 3.034a.034.034 0 0 1-.012.013l.816 1.376c.252-.149.46-.363.6-.62l-1.403-.769Zm-.012.013a.033.033 0 0 1-.017.005v1.6c.293 0 .58-.08.833-.229l-.816-1.376Zm-.017.005a.033.033 0 0 1-.017-.005l-.815 1.376c.252.15.54.228.832.228v-1.6Zm-.017-.005a.034.034 0 0 1-.012-.013l-1.403.769c.14.257.348.471.6.62l.815-1.376Zm-.011-.012-1.66-3.035-1.404.767 1.66 3.035 1.404-.767Zm-1.66-3.035a5.8 5.8 0 0 0-2.306-2.306l-.768 1.404a4.2 4.2 0 0 1 1.67 1.67l1.403-.768Zm-2.306-2.306-3.035-1.66-.768 1.404 3.035 1.66.768-1.404Zm-3.035-1.66a.033.033 0 0 1-.012-.012l-1.377.816c.15.252.364.459.62.6l.77-1.404Zm-.012-.012a.034.034 0 0 1-.005-.017h-1.6c0 .293.079.58.228.833l1.377-.816Zm-.005-.017c0-.006.002-.012.005-.017l-1.377-.815c-.15.252-.228.54-.228.832h1.6Zm.005-.017a.033.033 0 0 1 .013-.012l-.77-1.403c-.256.14-.47.348-.62.6l1.377.815Zm.012-.012 3.035-1.66-.768-1.404-3.035 1.66.768 1.404Zm3.035-1.66a5.801 5.801 0 0 0 2.305-2.305l-1.403-.768a4.2 4.2 0 0 1-1.67 1.67l.768 1.403Zm2.305-2.305 1.66-3.035-1.403-.768-1.66 3.035 1.403.768Zm7.409-5.129a13.219 13.219 0 0 0 .985-8.772l-1.558.362a11.62 11.62 0 0 1-.866 7.711l1.439.7Zm.987-8.763c-1.722-7.8-11.266-11.007-17.234-5.759l1.057 1.202c5.033-4.426 13.15-1.736 14.615 4.902l1.562-.345Zm-17.232-5.76c-.466.407-.907.902-1.296 1.3l1.143 1.118c.468-.477.801-.86 1.206-1.213l-1.053-1.205Zm-.153 1.3c-.39-.399-.831-.893-1.297-1.3L34.02 20.04c.404.352.74.736 1.207 1.213l1.143-1.119Zm-1.295-1.299c-5.968-5.249-15.511-2.04-17.234 5.759l1.562.345c1.467-6.638 9.583-9.328 14.615-4.902l1.057-1.202Zm-17.232 5.748a13.197 13.197 0 0 0 1.628 9.935l1.358-.847A11.596 11.596 0 0 1 19.4 24.95l-1.558-.366Zm1.628 9.934c3.096 4.971 8.061 8.806 12.778 12.205l.935-1.298c-4.728-3.408-9.445-7.08-12.355-11.752l-1.358.845Zm12.78 12.206a6.08 6.08 0 0 0 4.507 1.064l-.253-1.58a4.48 4.48 0 0 1-3.322-.784l-.933 1.3Z"/></g><g filter="url(#f)"><path fill="#fff" d="m46.318 35.068-.351-.192.35.192Zm1.461 0 .351-.192-.35.192Zm1.66 3.035.351-.192-.35.192Zm1.988 1.987.192-.35-.192.35Zm3.035 1.66.192-.35-.192.35Zm0 1.462.192.351-.192-.35Zm-3.035 1.66.192.351-.192-.35Zm-1.988 1.988.351.191-.35-.191Zm-1.66 3.035.351.192-.35-.192Zm-1.461 0-.351.191.35-.191Zm-1.66-3.035-.351.191.35-.191Zm-1.988-1.988-.192.351.192-.35Zm-3.035-1.66-.192.35v.001l.192-.35Zm0-1.462-.192-.35.192.35Zm3.035-1.66-.192-.35.192.35Zm1.988-1.987-.351-.192.35.192Zm7.03-5.27a.4.4 0 0 0 .72.35l-.72-.35Zm1.286-8.066-.39.086v.005l.39-.09Zm-15.925-5.33.263.301h.001l-.264-.3Zm-1.25 1.257-.286.28a.4.4 0 0 0 .571 0l-.286-.28Zm-1.252-1.257-.264.3v.001l.264-.3Zm-15.925 5.33.39.092v-.006l-.39-.086Zm1.528 9.328.34-.211-.34.211Zm12.567 11.979-.234.324.234-.324Zm3.978 1.319a.4.4 0 0 0-.127-.79l.127.79Zm9.973-12.133a.433.433 0 0 1 .16-.164l-.408-.689c-.19.113-.347.275-.453.469l.701.384Zm.16-.164a.433.433 0 0 1 .22-.061v-.8c-.22 0-.438.06-.628.172l.408.689Zm.22-.061c.078 0 .154.02.221.06l.408-.688a1.234 1.234 0 0 0-.629-.172v.8Zm.221.06c.067.04.122.097.16.165l.701-.384a1.233 1.233 0 0 0-.453-.469l-.408.689Zm.16.165 1.66 3.035.701-.384-1.66-3.035-.702.384Zm1.66 3.035a5.4 5.4 0 0 0 2.146 2.146l.384-.702a4.6 4.6 0 0 1-1.829-1.828l-.702.384Zm2.146 2.146 3.035 1.66.384-.701-3.035-1.66-.384.701Zm3.035 1.66a.433.433 0 0 1 .164.16l.689-.408a1.233 1.233 0 0 0-.47-.453l-.383.701Zm.164.16c.04.066.06.142.06.22h.8c0-.22-.059-.438-.171-.628l-.689.407Zm.06.22c0 .078-.02.154-.06.221l.689.408c.112-.19.172-.408.172-.629h-.8Zm-.06.221a.434.434 0 0 1-.164.16l.384.7c.194-.105.356-.262.468-.452l-.688-.408Zm-.164.16-3.035 1.66.384.701 3.035-1.66-.384-.702Zm-3.035 1.66a5.4 5.4 0 0 0-2.147 2.146l.702.383a4.6 4.6 0 0 1 1.829-1.828l-.384-.702Zm-2.147 2.146-1.66 3.035.702.383 1.66-3.035-.702-.383Zm-1.66 3.034a.435.435 0 0 1-.159.165l.408.688c.19-.112.347-.274.453-.468l-.702-.385Zm-.159.165a.434.434 0 0 1-.22.06v.8c.22 0 .438-.059.628-.172l-.408-.688Zm-.22.06a.433.433 0 0 1-.221-.06l-.408.688c.19.113.407.172.628.172v-.8Zm-.221-.06a.433.433 0 0 1-.16-.165l-.701.385c.106.194.263.356.453.468l.408-.688Zm-.16-.164-1.66-3.035-.701.383 1.66 3.035.702-.383Zm-1.66-3.035a5.4 5.4 0 0 0-2.146-2.147l-.384.702a4.6 4.6 0 0 1 1.829 1.828l.701-.383Zm-2.146-2.147-3.035-1.66-.384.702 3.035 1.66.384-.702Zm-3.035-1.66a.433.433 0 0 1-.164-.159l-.689.408c.113.19.275.347.469.453l.384-.702Zm-.164-.159a.433.433 0 0 1-.06-.22h-.8c0 .22.059.438.171.628l.689-.408Zm-.06-.22c0-.078.02-.155.06-.222l-.689-.407c-.112.19-.172.407-.172.628h.8Zm.06-.222a.432.432 0 0 1 .164-.159l-.384-.701a1.233 1.233 0 0 0-.469.453l.689.407Zm.164-.159 3.035-1.66-.384-.702-3.035 1.66.384.702Zm3.035-1.66a5.4 5.4 0 0 0 2.146-2.146l-.701-.384a4.6 4.6 0 0 1-1.829 1.828l.384.702Zm2.146-2.146 1.66-3.035-.701-.384-1.66 3.035.701.384Zm7.4-5.111a12.819 12.819 0 0 0 .956-8.508l-.78.182a12.019 12.019 0 0 1-.895 7.976l.72.35Zm.957-8.503c-1.659-7.509-10.845-10.588-16.58-5.544l.528.6c5.267-4.631 13.74-1.812 15.27 5.116l.782-.172Zm-16.579-5.545c-.45.393-.865.86-1.273 1.278l.571.56c.448-.458.809-.87 1.228-1.236l-.526-.602Zm-.702 1.278c-.409-.418-.824-.885-1.274-1.278l-.526.602c.42.367.78.778 1.229 1.236l.571-.56Zm-1.273-1.277c-5.734-5.043-14.92-1.965-16.58 5.544l.781.172c1.531-6.928 10.005-9.747 15.27-5.116l.529-.6Zm-16.579 5.538a12.797 12.797 0 0 0 1.579 9.632l.678-.423a11.997 11.997 0 0 1-1.478-9.025l-.779-.184Zm1.579 9.632c3.049 4.896 7.952 8.69 12.672 12.091l.468-.649c-4.726-3.405-9.505-7.118-12.461-11.865l-.68.423Zm12.672 12.092a5.68 5.68 0 0 0 4.212.994l-.127-.79a4.88 4.88 0 0 1-3.618-.854l-.467.65Z"/></g><defs><filter id="a" width="67.915" height="63.915" x="2.639" y="1.739" color-interpolation-filters="sRGB" filterUnits="userSpaceOnUse"><feFlood flood-opacity="0" result="BackgroundImageFix"/><feBlend in="SourceGraphic" in2="BackgroundImageFix" result="shape"/><feGaussianBlur result="effect1_foregroundBlur_1092_4892" stdDeviation="6"/></filter><filter id="b" width="63.196" height="59.865" x="4.999" y="3.762" color-interpolation-filters="sRGB" filterUnits="userSpaceOnUse"><feFlood flood-opacity="0" result="BackgroundImageFix"/><feBlend in="SourceGraphic" in2="BackgroundImageFix" result="shape"/><feGaussianBlur result="effect1_foregroundBlur_1092_4892" stdDeviation="6"/></filter><filter id="c" width="47.997" height="44.666" x="12.598" y="11.361" color-interpolation-filters="sRGB" filterUnits="userSpaceOnUse"><feFlood flood-opacity="0" result="BackgroundImageFix"/><feBlend in="SourceGraphic" in2="BackgroundImageFix" result="shape"/><feGaussianBlur result="effect1_foregroundBlur_1092_4892" stdDeviation="2"/></filter><filter id="d" width="49.596" height="46.265" x="11.799" y="14.562" color-interpolation-filters="sRGB" filterUnits="userSpaceOnUse"><feFlood flood-opacity="0" result="BackgroundImageFix"/><feColorMatrix in="SourceAlpha" result="hardAlpha" values="0 0 0 0 0 0 0 0 0 0 0 0 0 0 0 0 0 0 127 0"/><feOffset dy="2.6"/><feGaussianBlur stdDeviation="1"/><feColorMatrix values="0 0 0 0 0.055 0 0 0 0 0 0 0 0 0 0.082 0 0 0 0.7 0"/><feBlend in2="BackgroundImageFix" mode="multiply" result="effect1_dropShadow_1092_4892"/><feColorMatrix in="SourceAlpha" result="hardAlpha" values="0 0 0 0 0 0 0 0 0 0 0 0 0 0 0 0 0 0 127 0"/><feOffset dy="4"/><feGaussianBlur stdDeviation="2.6"/><feColorMatrix values="0 0 0 0 0.514 0 0 0 0 0 0 0 0 0 0.756 0 0 0 1 0"/><feBlend in2="effect1_dropShadow_1092_4892" mode="color-dodge" result="effect2_dropShadow_1092_4892"/><feBlend in="SourceGraphic" in2="effect2_dropShadow_1092_4892" result="shape"/><feColorMatrix in="SourceAlpha" result="hardAlpha" values="0 0 0 0 0 0 0 0 0 0 0 0 0 0 0 0 0 0 127 0"/><feOffset dx="-.26" dy=".52"/><feGaussianBlur stdDeviation=".13"/><feComposite in2="hardAlpha" k2="-1" k3="1" operator="arithmetic"/><feColorMatrix values="0 0 0 0 1 0 0 0 0 1 0 0 0 0 1 0 0 0 0.5 0"/><feBlend in2="shape" result="effect3_innerShadow_1092_4892"/></filter><filter id="e" width="38.996" height="35.664" x="17.099" y="15.863" color-interpolation-filters="sRGB" filterUnits="userSpaceOnUse"><feFlood flood-opacity="0" result="BackgroundImageFix"/><feBlend in="SourceGraphic" in2="BackgroundImageFix" result="shape"/><feGaussianBlur result="effect1_foregroundBlur_1092_4892" stdDeviation=".2"/></filter><filter id="f" width="37.93" height="34.597" x="17.632" y="16.397" color-interpolation-filters="sRGB" filterUnits="userSpaceOnUse"><feFlood flood-opacity="0" result="BackgroundImageFix"/><feBlend in="SourceGraphic" in2="BackgroundImageFix" result="shape"/><feGaussianBlur result="effect1_foregroundBlur_1092_4892" stdDeviation=".133"/></filter></defs></svg>