<svg xmlns="http://www.w3.org/2000/svg" width="76" height="76" fill="none"><g filter="url(#a)" style="mix-blend-mode:hard-light"><circle cx="37.958" cy="37.625" r="22.575" fill="#8F00FF" fill-opacity=".2"/></g><g filter="url(#b)" style="mix-blend-mode:hard-light"><path stroke="#C0F" stroke-linecap="round" stroke-linejoin="round" stroke-width="2.6" d="M23.663 21.948c.565-1.377 1.819-2.343 3.384-2.525 2.521-.294 6.64-.61 12.703-.61 1.764 0 3.364.026 4.808.071.804.251 3.383 1.274 7.11 4.908 3.511 3.425 4.647 5.857 4.98 6.782.075 2.007.122 4.346.122 7.051 0 7.225-.336 11.829-.643 14.525-.224 1.973-1.704 3.447-3.675 3.677-2.522.295-6.641.61-12.703.61-6.061 0-10.18-.315-12.703-.609-1.971-.23-3.452-1.705-3.676-3.678a83.928 83.928 0 0 1-.36-4.223m33.65-16.925c-2.02.3-5.69.057-8.405-.197a4.19 4.19 0 0 1-3.792-3.772c-.26-2.657-.503-6.213-.188-8.156M21.837 43.688a6.27 6.27 0 0 1 3.355-5.346 4.48 4.48 0 1 1 5.824 0 6.27 6.27 0 0 1 3.355 5.348m15.233 5.58H29.895M49.605 43h-6.271m6.27-6.27h-6.27m-6.446 4.194a2.965 2.965 0 0 1-2.797 2.796c-1.38.093-3.35.176-5.986.176-2.636 0-4.607-.084-5.986-.176a2.965 2.965 0 0 1-2.797-2.797c-.092-1.38-.176-3.35-.176-5.986 0-2.635.084-4.606.176-5.985a2.965 2.965 0 0 1 2.797-2.797c1.38-.093 3.35-.176 5.986-.176 2.635 0 4.606.084 5.986.176a2.966 2.966 0 0 1 2.797 2.796c.092 1.38.175 3.351.175 5.986 0 2.636-.083 4.607-.175 5.986Z"/></g><g filter="url(#c)" style="mix-blend-mode:hard-light"><path stroke="#C0F" stroke-linecap="round" stroke-linejoin="round" stroke-width="3.4" d="M23.663 21.948c.565-1.377 1.819-2.343 3.384-2.525 2.521-.294 6.64-.61 12.703-.61 1.764 0 3.364.026 4.808.071.804.251 3.383 1.274 7.11 4.908 3.511 3.425 4.647 5.857 4.98 6.782.075 2.007.122 4.346.122 7.051 0 7.225-.336 11.829-.643 14.525-.224 1.973-1.704 3.447-3.675 3.677-2.522.295-6.641.61-12.703.61-6.061 0-10.18-.315-12.703-.609-1.971-.23-3.452-1.705-3.676-3.678a83.928 83.928 0 0 1-.36-4.223m33.65-16.925c-2.02.3-5.69.057-8.405-.197a4.19 4.19 0 0 1-3.792-3.772c-.26-2.657-.503-6.213-.188-8.156M21.837 43.688a6.27 6.27 0 0 1 3.355-5.346 4.48 4.48 0 1 1 5.824 0 6.27 6.27 0 0 1 3.355 5.348m15.233 5.58H29.895M49.605 43h-6.271m6.27-6.27h-6.27m-6.446 4.194a2.965 2.965 0 0 1-2.797 2.796c-1.38.093-3.35.176-5.986.176-2.636 0-4.607-.084-5.986-.176a2.965 2.965 0 0 1-2.797-2.797c-.092-1.38-.176-3.35-.176-5.986 0-2.635.084-4.606.176-5.985a2.965 2.965 0 0 1 2.797-2.797c1.38-.093 3.35-.176 5.986-.176 2.635 0 4.606.084 5.986.176a2.966 2.966 0 0 1 2.797 2.796c.092 1.38.175 3.351.175 5.986 0 2.636-.083 4.607-.175 5.986Z"/></g><g filter="url(#d)" style="mix-blend-mode:hard-light"><path stroke="#6100FF" stroke-linecap="round" stroke-linejoin="round" stroke-opacity=".2" stroke-width="2.6" d="M23.663 21.948c.565-1.377 1.819-2.343 3.384-2.525 2.521-.294 6.64-.61 12.703-.61 1.764 0 3.364.026 4.808.071.804.251 3.383 1.274 7.11 4.908 3.511 3.425 4.647 5.857 4.98 6.782.075 2.007.122 4.346.122 7.051 0 7.225-.336 11.829-.643 14.525-.224 1.973-1.704 3.447-3.675 3.677-2.522.295-6.641.61-12.703.61-6.061 0-10.18-.315-12.703-.609-1.971-.23-3.452-1.705-3.676-3.678a83.928 83.928 0 0 1-.36-4.223m33.65-16.925c-2.02.3-5.69.057-8.405-.197a4.19 4.19 0 0 1-3.792-3.772c-.26-2.657-.503-6.213-.188-8.156M21.837 43.688a6.27 6.27 0 0 1 3.355-5.346 4.48 4.48 0 1 1 5.824 0 6.27 6.27 0 0 1 3.355 5.348m15.233 5.58H29.895M49.605 43h-6.271m6.27-6.27h-6.27m-6.446 4.194a2.965 2.965 0 0 1-2.797 2.796c-1.38.093-3.35.176-5.986.176-2.636 0-4.607-.084-5.986-.176a2.965 2.965 0 0 1-2.797-2.797c-.092-1.38-.176-3.35-.176-5.986 0-2.635.084-4.606.176-5.985a2.965 2.965 0 0 1 2.797-2.797c1.38-.093 3.35-.176 5.986-.176 2.635 0 4.606.084 5.986.176a2.966 2.966 0 0 1 2.797 2.796c.092 1.38.175 3.351.175 5.986 0 2.636-.083 4.607-.175 5.986Z"/></g><g filter="url(#e)"><path stroke="#C882FF" stroke-linecap="round" stroke-linejoin="round" stroke-width="1.6" d="M23.663 21.948c.565-1.377 1.819-2.343 3.384-2.525 2.521-.294 6.64-.61 12.703-.61 1.764 0 3.364.026 4.808.071.804.251 3.383 1.274 7.11 4.908 3.511 3.425 4.647 5.857 4.98 6.782.075 2.007.122 4.346.122 7.051 0 7.225-.336 11.829-.643 14.525-.224 1.973-1.704 3.447-3.675 3.677-2.522.295-6.641.61-12.703.61-6.061 0-10.18-.315-12.703-.609-1.971-.23-3.452-1.705-3.676-3.678a83.928 83.928 0 0 1-.36-4.223m33.65-16.925c-2.02.3-5.69.057-8.405-.197a4.19 4.19 0 0 1-3.792-3.772c-.26-2.657-.503-6.213-.188-8.156M21.837 43.688a6.27 6.27 0 0 1 3.355-5.346 4.48 4.48 0 1 1 5.824 0 6.27 6.27 0 0 1 3.355 5.348m15.233 5.58H29.895M49.605 43h-6.271m6.27-6.27h-6.27m-6.446 4.194a2.965 2.965 0 0 1-2.797 2.796c-1.38.093-3.35.176-5.986.176-2.636 0-4.607-.084-5.986-.176a2.965 2.965 0 0 1-2.797-2.797c-.092-1.38-.176-3.35-.176-5.986 0-2.635.084-4.606.176-5.985a2.965 2.965 0 0 1 2.797-2.797c1.38-.093 3.35-.176 5.986-.176 2.635 0 4.606.084 5.986.176a2.966 2.966 0 0 1 2.797 2.796c.092 1.38.175 3.351.175 5.986 0 2.636-.083 4.607-.175 5.986Z"/></g><g filter="url(#f)"><path stroke="#fff" stroke-linecap="round" stroke-linejoin="round" stroke-width=".8" d="M23.663 21.948c.565-1.377 1.819-2.343 3.384-2.525 2.521-.294 6.64-.61 12.703-.61 1.764 0 3.364.026 4.808.071.804.251 3.383 1.274 7.11 4.908 3.511 3.425 4.647 5.857 4.98 6.782.075 2.007.122 4.346.122 7.051 0 7.225-.336 11.829-.643 14.525-.224 1.973-1.704 3.447-3.675 3.677-2.522.295-6.641.61-12.703.61-6.061 0-10.18-.315-12.703-.609-1.971-.23-3.452-1.705-3.676-3.678a83.928 83.928 0 0 1-.36-4.223m33.65-16.925c-2.02.3-5.69.057-8.405-.197a4.19 4.19 0 0 1-3.792-3.772c-.26-2.657-.503-6.213-.188-8.156M21.837 43.688a6.27 6.27 0 0 1 3.355-5.346 4.48 4.48 0 1 1 5.824 0 6.27 6.27 0 0 1 3.355 5.348m15.233 5.58H29.895M49.605 43h-6.271m6.27-6.27h-6.27m-6.446 4.194a2.965 2.965 0 0 1-2.797 2.796c-1.38.093-3.35.176-5.986.176-2.636 0-4.607-.084-5.986-.176a2.965 2.965 0 0 1-2.797-2.797c-.092-1.38-.176-3.35-.176-5.986 0-2.635.084-4.606.176-5.985a2.965 2.965 0 0 1 2.797-2.797c1.38-.093 3.35-.176 5.986-.176 2.635 0 4.606.084 5.986.176a2.966 2.966 0 0 1 2.797 2.796c.092 1.38.175 3.351.175 5.986 0 2.636-.083 4.607-.175 5.986Z"/></g><defs><filter id="a" width="69.149" height="69.15" x="3.383" y="3.05" color-interpolation-filters="sRGB" filterUnits="userSpaceOnUse"><feFlood flood-opacity="0" result="BackgroundImageFix"/><feBlend in="SourceGraphic" in2="BackgroundImageFix" result="shape"/><feGaussianBlur result="effect1_foregroundBlur_1092_4871" stdDeviation="6"/></filter><filter id="b" width="64.224" height="64.225" x="5.846" y="5.512" color-interpolation-filters="sRGB" filterUnits="userSpaceOnUse"><feFlood flood-opacity="0" result="BackgroundImageFix"/><feBlend in="SourceGraphic" in2="BackgroundImageFix" result="shape"/><feGaussianBlur result="effect1_foregroundBlur_1092_4871" stdDeviation="6"/></filter><filter id="c" width="49.024" height="49.025" x="13.445" y="13.113" color-interpolation-filters="sRGB" filterUnits="userSpaceOnUse"><feFlood flood-opacity="0" result="BackgroundImageFix"/><feBlend in="SourceGraphic" in2="BackgroundImageFix" result="shape"/><feGaussianBlur result="effect1_foregroundBlur_1092_4871" stdDeviation="2"/></filter><filter id="d" width="50.624" height="50.625" x="12.646" y="16.313" color-interpolation-filters="sRGB" filterUnits="userSpaceOnUse"><feFlood flood-opacity="0" result="BackgroundImageFix"/><feColorMatrix in="SourceAlpha" result="hardAlpha" values="0 0 0 0 0 0 0 0 0 0 0 0 0 0 0 0 0 0 127 0"/><feOffset dy="2.6"/><feGaussianBlur stdDeviation="1"/><feColorMatrix values="0 0 0 0 0.055 0 0 0 0 0 0 0 0 0 0.082 0 0 0 0.7 0"/><feBlend in2="BackgroundImageFix" mode="multiply" result="effect1_dropShadow_1092_4871"/><feColorMatrix in="SourceAlpha" result="hardAlpha" values="0 0 0 0 0 0 0 0 0 0 0 0 0 0 0 0 0 0 127 0"/><feOffset dy="4"/><feGaussianBlur stdDeviation="2.6"/><feColorMatrix values="0 0 0 0 0.514 0 0 0 0 0 0 0 0 0 0.756 0 0 0 1 0"/><feBlend in2="effect1_dropShadow_1092_4871" mode="color-dodge" result="effect2_dropShadow_1092_4871"/><feBlend in="SourceGraphic" in2="effect2_dropShadow_1092_4871" result="shape"/><feColorMatrix in="SourceAlpha" result="hardAlpha" values="0 0 0 0 0 0 0 0 0 0 0 0 0 0 0 0 0 0 127 0"/><feOffset dx="-.26" dy=".52"/><feGaussianBlur stdDeviation=".13"/><feComposite in2="hardAlpha" k2="-1" k3="1" operator="arithmetic"/><feColorMatrix values="0 0 0 0 1 0 0 0 0 1 0 0 0 0 1 0 0 0 0.5 0"/><feBlend in2="shape" result="effect3_innerShadow_1092_4871"/></filter><filter id="e" width="40.024" height="40.025" x="17.946" y="17.613" color-interpolation-filters="sRGB" filterUnits="userSpaceOnUse"><feFlood flood-opacity="0" result="BackgroundImageFix"/><feBlend in="SourceGraphic" in2="BackgroundImageFix" result="shape"/><feGaussianBlur result="effect1_foregroundBlur_1092_4871" stdDeviation=".2"/></filter><filter id="f" width="38.957" height="38.958" x="18.479" y="18.146" color-interpolation-filters="sRGB" filterUnits="userSpaceOnUse"><feFlood flood-opacity="0" result="BackgroundImageFix"/><feBlend in="SourceGraphic" in2="BackgroundImageFix" result="shape"/><feGaussianBlur result="effect1_foregroundBlur_1092_4871" stdDeviation=".133"/></filter></defs></svg>