<svg width="67" height="67" fill="none" xmlns="http://www.w3.org/2000/svg"><g style="mix-blend-mode:hard-light" filter="url(#a)"><ellipse cx="33.666" cy="33.328" rx="21" ry="21.328" fill="#8F00FF" fill-opacity=".2"/></g><g style="mix-blend-mode:hard-light" filter="url(#b)" stroke="#C0F" stroke-width="2.6" stroke-linecap="round" stroke-linejoin="round"><path d="M25.089 45.406c2.315.087 5.16.149 8.578.149 6.142 0 10.437-.199 13.126-.386 2.125-.148 3.783-1.734 3.968-3.856.206-2.325.405-5.854.405-10.758 0-4.905-.2-8.435-.404-10.759-.186-2.121-1.844-3.708-3.969-3.856-2.689-.187-6.983-.385-13.127-.385-6.142 0-10.437.198-13.126.385-2.125.148-3.783 1.735-3.968 3.856-.206 2.325-.405 5.854-.405 10.759V49.43c0 1.424 1.67 2.192 2.751 1.265l6.171-5.29Z"/><path d="M33.666 38.055c4.958 0 9.073-3.608 9.863-8.34.152-.909-.608-1.66-1.53-1.66H25.334c-.92 0-1.681.751-1.529 1.66.79 4.733 4.904 8.34 9.863 8.34Z"/></g><g style="mix-blend-mode:hard-light" filter="url(#c)" stroke="#C0F" stroke-width="3.4" stroke-linecap="round" stroke-linejoin="round"><path d="M25.089 45.406c2.315.087 5.16.149 8.578.149 6.142 0 10.437-.199 13.126-.386 2.125-.148 3.783-1.734 3.968-3.856.206-2.325.405-5.854.405-10.758 0-4.905-.2-8.435-.404-10.759-.186-2.121-1.844-3.708-3.969-3.856-2.689-.187-6.983-.385-13.127-.385-6.142 0-10.437.198-13.126.385-2.125.148-3.783 1.735-3.968 3.856-.206 2.325-.405 5.854-.405 10.759V49.43c0 1.424 1.67 2.192 2.751 1.265l6.171-5.29Z"/><path d="M33.666 38.055c4.958 0 9.073-3.608 9.863-8.34.152-.909-.608-1.66-1.53-1.66H25.334c-.92 0-1.681.751-1.529 1.66.79 4.733 4.904 8.34 9.863 8.34Z"/></g><g style="mix-blend-mode:hard-light" filter="url(#d)" stroke="#6100FF" stroke-opacity=".2" stroke-width="2.6" stroke-linecap="round" stroke-linejoin="round"><path d="M25.089 45.406c2.315.087 5.16.149 8.578.149 6.142 0 10.437-.199 13.126-.386 2.125-.148 3.783-1.734 3.968-3.856.206-2.325.405-5.854.405-10.758 0-4.905-.2-8.435-.404-10.759-.186-2.121-1.844-3.708-3.969-3.856-2.689-.187-6.983-.385-13.127-.385-6.142 0-10.437.198-13.126.385-2.125.148-3.783 1.735-3.968 3.856-.206 2.325-.405 5.854-.405 10.759V49.43c0 1.424 1.67 2.192 2.751 1.265l6.171-5.29Z"/><path d="M33.666 38.055c4.958 0 9.073-3.608 9.863-8.34.152-.909-.608-1.66-1.53-1.66H25.334c-.92 0-1.681.751-1.529 1.66.79 4.733 4.904 8.34 9.863 8.34Z"/></g><g filter="url(#e)" stroke="#C882FF" stroke-width="1.6" stroke-linecap="round" stroke-linejoin="round"><path d="M25.089 45.406c2.315.087 5.16.149 8.578.149 6.142 0 10.437-.199 13.126-.386 2.125-.148 3.783-1.734 3.968-3.856.206-2.325.405-5.854.405-10.758 0-4.905-.2-8.435-.404-10.759-.186-2.121-1.844-3.708-3.969-3.856-2.689-.187-6.983-.385-13.127-.385-6.142 0-10.437.198-13.126.385-2.125.148-3.783 1.735-3.968 3.856-.206 2.325-.405 5.854-.405 10.759V49.43c0 1.424 1.67 2.192 2.751 1.265l6.171-5.29Z"/><path d="M33.666 38.055c4.958 0 9.073-3.608 9.863-8.34.152-.909-.608-1.66-1.53-1.66H25.334c-.92 0-1.681.751-1.529 1.66.79 4.733 4.904 8.34 9.863 8.34Z"/></g><g filter="url(#f)" stroke="#fff" stroke-width=".8" stroke-linecap="round" stroke-linejoin="round"><path d="M25.089 45.406c2.315.087 5.16.149 8.578.149 6.142 0 10.437-.199 13.126-.386 2.125-.148 3.783-1.734 3.968-3.856.206-2.325.405-5.854.405-10.758 0-4.905-.2-8.435-.404-10.759-.186-2.121-1.844-3.708-3.969-3.856-2.689-.187-6.983-.385-13.127-.385-6.142 0-10.437.198-13.126.385-2.125.148-3.783 1.735-3.968 3.856-.206 2.325-.405 5.854-.405 10.759V49.43c0 1.424 1.67 2.192 2.751 1.265l6.171-5.29Z"/><path d="M33.666 38.055c4.958 0 9.073-3.608 9.863-8.34.152-.909-.608-1.66-1.53-1.66H25.334c-.92 0-1.681.751-1.529 1.66.79 4.733 4.904 8.34 9.863 8.34Z"/></g><defs><filter id="a" x=".667" y="0" width="66" height="66.655" filterUnits="userSpaceOnUse" color-interpolation-filters="sRGB"><feFlood flood-opacity="0" result="BackgroundImageFix"/><feBlend in="SourceGraphic" in2="BackgroundImageFix" result="shape"/><feGaussianBlur stdDeviation="6" result="effect1_foregroundBlur_1092_4837"/></filter><filter id="b" x="2.867" y="2.255" width="61.6" height="62.149" filterUnits="userSpaceOnUse" color-interpolation-filters="sRGB"><feFlood flood-opacity="0" result="BackgroundImageFix"/><feBlend in="SourceGraphic" in2="BackgroundImageFix" result="shape"/><feGaussianBlur stdDeviation="6" result="effect1_foregroundBlur_1092_4837"/></filter><filter id="c" x="10.466" y="9.855" width="46.4" height="46.949" filterUnits="userSpaceOnUse" color-interpolation-filters="sRGB"><feFlood flood-opacity="0" result="BackgroundImageFix"/><feBlend in="SourceGraphic" in2="BackgroundImageFix" result="shape"/><feGaussianBlur stdDeviation="2" result="effect1_foregroundBlur_1092_4837"/></filter><filter id="d" x="9.667" y="13.055" width="48" height="48.549" filterUnits="userSpaceOnUse" color-interpolation-filters="sRGB"><feFlood flood-opacity="0" result="BackgroundImageFix"/><feColorMatrix in="SourceAlpha" values="0 0 0 0 0 0 0 0 0 0 0 0 0 0 0 0 0 0 127 0" result="hardAlpha"/><feOffset dy="2.6"/><feGaussianBlur stdDeviation="1"/><feColorMatrix values="0 0 0 0 0.055 0 0 0 0 0 0 0 0 0 0.082 0 0 0 0.7 0"/><feBlend mode="multiply" in2="BackgroundImageFix" result="effect1_dropShadow_1092_4837"/><feColorMatrix in="SourceAlpha" values="0 0 0 0 0 0 0 0 0 0 0 0 0 0 0 0 0 0 127 0" result="hardAlpha"/><feOffset dy="4"/><feGaussianBlur stdDeviation="2.6"/><feColorMatrix values="0 0 0 0 0.514 0 0 0 0 0 0 0 0 0 0.756 0 0 0 1 0"/><feBlend mode="color-dodge" in2="effect1_dropShadow_1092_4837" result="effect2_dropShadow_1092_4837"/><feBlend in="SourceGraphic" in2="effect2_dropShadow_1092_4837" result="shape"/><feColorMatrix in="SourceAlpha" values="0 0 0 0 0 0 0 0 0 0 0 0 0 0 0 0 0 0 127 0" result="hardAlpha"/><feOffset dx="-.26" dy=".52"/><feGaussianBlur stdDeviation=".13"/><feComposite in2="hardAlpha" operator="arithmetic" k2="-1" k3="1"/><feColorMatrix values="0 0 0 0 1 0 0 0 0 1 0 0 0 0 1 0 0 0 0.5 0"/><feBlend in2="shape" result="effect3_innerShadow_1092_4837"/></filter><filter id="e" x="14.967" y="14.354" width="37.4" height="37.948" filterUnits="userSpaceOnUse" color-interpolation-filters="sRGB"><feFlood flood-opacity="0" result="BackgroundImageFix"/><feBlend in="SourceGraphic" in2="BackgroundImageFix" result="shape"/><feGaussianBlur stdDeviation=".2" result="effect1_foregroundBlur_1092_4837"/></filter><filter id="f" x="15.5" y="14.888" width="36.333" height="36.88" filterUnits="userSpaceOnUse" color-interpolation-filters="sRGB"><feFlood flood-opacity="0" result="BackgroundImageFix"/><feBlend in="SourceGraphic" in2="BackgroundImageFix" result="shape"/><feGaussianBlur stdDeviation=".133" result="effect1_foregroundBlur_1092_4837"/></filter></defs></svg>