<svg xmlns="http://www.w3.org/2000/svg" width="71" height="72" fill="none"><g filter="url(#a)" style="mix-blend-mode:hard-light"><ellipse cx="35.666" cy="35.546" fill="#8F00FF" fill-opacity=".2" rx="21" ry="21.328"/></g><g stroke="#C0F" stroke-linecap="round" stroke-linejoin="round" stroke-width="2.6" filter="url(#b)" style="mix-blend-mode:hard-light"><path d="M27.089 47.625c2.315.086 5.16.148 8.578.148 6.142 0 10.437-.198 13.126-.386 2.125-.147 3.783-1.734 3.968-3.856.206-2.325.405-5.854.405-10.758 0-4.904-.2-8.434-.404-10.758-.186-2.122-1.844-3.709-3.969-3.856-2.689-.188-6.983-.386-13.127-.386-6.142 0-10.437.198-13.126.386-2.125.147-3.783 1.734-3.968 3.856-.206 2.325-.405 5.854-.405 10.758V51.65c0 1.423 1.67 2.191 2.751 1.265l6.171-5.29Z"/><path d="M35.666 40.273c4.958 0 9.073-3.607 9.863-8.34.152-.908-.608-1.66-1.53-1.66H27.334c-.92 0-1.681.752-1.529 1.66.79 4.733 4.904 8.34 9.863 8.34Z"/></g><g stroke="#C0F" stroke-linecap="round" stroke-linejoin="round" stroke-width="3.4" filter="url(#c)" style="mix-blend-mode:hard-light"><path d="M27.089 47.625c2.315.086 5.16.148 8.578.148 6.142 0 10.437-.198 13.126-.386 2.125-.147 3.783-1.734 3.968-3.856.206-2.325.405-5.854.405-10.758 0-4.904-.2-8.434-.404-10.758-.186-2.122-1.844-3.709-3.969-3.856-2.689-.188-6.983-.386-13.127-.386-6.142 0-10.437.198-13.126.386-2.125.147-3.783 1.734-3.968 3.856-.206 2.325-.405 5.854-.405 10.758V51.65c0 1.423 1.67 2.191 2.751 1.265l6.171-5.29Z"/><path d="M35.666 40.273c4.958 0 9.073-3.607 9.863-8.34.152-.908-.608-1.66-1.53-1.66H27.334c-.92 0-1.681.752-1.529 1.66.79 4.733 4.904 8.34 9.863 8.34Z"/></g><g stroke="#6100FF" stroke-linecap="round" stroke-linejoin="round" stroke-opacity=".2" stroke-width="2.6" filter="url(#d)" style="mix-blend-mode:hard-light"><path d="M27.089 47.625c2.315.086 5.16.148 8.578.148 6.142 0 10.437-.198 13.126-.386 2.125-.147 3.783-1.734 3.968-3.856.206-2.325.405-5.854.405-10.758 0-4.904-.2-8.434-.404-10.758-.186-2.122-1.844-3.709-3.969-3.856-2.689-.188-6.983-.386-13.127-.386-6.142 0-10.437.198-13.126.386-2.125.147-3.783 1.734-3.968 3.856-.206 2.325-.405 5.854-.405 10.758V51.65c0 1.423 1.67 2.191 2.751 1.265l6.171-5.29Z"/><path d="M35.666 40.273c4.958 0 9.073-3.607 9.863-8.34.152-.908-.608-1.66-1.53-1.66H27.334c-.92 0-1.681.752-1.529 1.66.79 4.733 4.904 8.34 9.863 8.34Z"/></g><g stroke="#C882FF" stroke-linecap="round" stroke-linejoin="round" stroke-width="1.6" filter="url(#e)"><path d="M27.089 47.625c2.315.086 5.16.148 8.578.148 6.142 0 10.437-.198 13.126-.386 2.125-.147 3.783-1.734 3.968-3.856.206-2.325.405-5.854.405-10.758 0-4.904-.2-8.434-.404-10.758-.186-2.122-1.844-3.709-3.969-3.856-2.689-.188-6.983-.386-13.127-.386-6.142 0-10.437.198-13.126.386-2.125.147-3.783 1.734-3.968 3.856-.206 2.325-.405 5.854-.405 10.758V51.65c0 1.423 1.67 2.191 2.751 1.265l6.171-5.29Z"/><path d="M35.666 40.273c4.958 0 9.073-3.607 9.863-8.34.152-.908-.608-1.66-1.53-1.66H27.334c-.92 0-1.681.752-1.529 1.66.79 4.733 4.904 8.34 9.863 8.34Z"/></g><g stroke="#fff" stroke-linecap="round" stroke-linejoin="round" stroke-width=".8" filter="url(#f)"><path d="M27.089 47.625c2.315.086 5.16.148 8.578.148 6.142 0 10.437-.198 13.126-.386 2.125-.147 3.783-1.734 3.968-3.856.206-2.325.405-5.854.405-10.758 0-4.904-.2-8.434-.404-10.758-.186-2.122-1.844-3.709-3.969-3.856-2.689-.188-6.983-.386-13.127-.386-6.142 0-10.437.198-13.126.386-2.125.147-3.783 1.734-3.968 3.856-.206 2.325-.405 5.854-.405 10.758V51.65c0 1.423 1.67 2.191 2.751 1.265l6.171-5.29Z"/><path d="M35.666 40.273c4.958 0 9.073-3.607 9.863-8.34.152-.908-.608-1.66-1.53-1.66H27.334c-.92 0-1.681.752-1.529 1.66.79 4.733 4.904 8.34 9.863 8.34Z"/></g><defs><filter id="a" width="66" height="66.655" x="2.667" y="2.218" color-interpolation-filters="sRGB" filterUnits="userSpaceOnUse"><feFlood flood-opacity="0" result="BackgroundImageFix"/><feBlend in="SourceGraphic" in2="BackgroundImageFix" result="shape"/><feGaussianBlur result="effect1_foregroundBlur_1092_4837" stdDeviation="6"/></filter><filter id="b" width="61.6" height="62.149" x="4.867" y="4.473" color-interpolation-filters="sRGB" filterUnits="userSpaceOnUse"><feFlood flood-opacity="0" result="BackgroundImageFix"/><feBlend in="SourceGraphic" in2="BackgroundImageFix" result="shape"/><feGaussianBlur result="effect1_foregroundBlur_1092_4837" stdDeviation="6"/></filter><filter id="c" width="46.4" height="46.949" x="12.466" y="12.073" color-interpolation-filters="sRGB" filterUnits="userSpaceOnUse"><feFlood flood-opacity="0" result="BackgroundImageFix"/><feBlend in="SourceGraphic" in2="BackgroundImageFix" result="shape"/><feGaussianBlur result="effect1_foregroundBlur_1092_4837" stdDeviation="2"/></filter><filter id="d" width="48" height="48.549" x="11.667" y="15.273" color-interpolation-filters="sRGB" filterUnits="userSpaceOnUse"><feFlood flood-opacity="0" result="BackgroundImageFix"/><feColorMatrix in="SourceAlpha" result="hardAlpha" values="0 0 0 0 0 0 0 0 0 0 0 0 0 0 0 0 0 0 127 0"/><feOffset dy="2.6"/><feGaussianBlur stdDeviation="1"/><feColorMatrix values="0 0 0 0 0.055 0 0 0 0 0 0 0 0 0 0.082 0 0 0 0.7 0"/><feBlend in2="BackgroundImageFix" mode="multiply" result="effect1_dropShadow_1092_4837"/><feColorMatrix in="SourceAlpha" result="hardAlpha" values="0 0 0 0 0 0 0 0 0 0 0 0 0 0 0 0 0 0 127 0"/><feOffset dy="4"/><feGaussianBlur stdDeviation="2.6"/><feColorMatrix values="0 0 0 0 0.514 0 0 0 0 0 0 0 0 0 0.756 0 0 0 1 0"/><feBlend in2="effect1_dropShadow_1092_4837" mode="color-dodge" result="effect2_dropShadow_1092_4837"/><feBlend in="SourceGraphic" in2="effect2_dropShadow_1092_4837" result="shape"/><feColorMatrix in="SourceAlpha" result="hardAlpha" values="0 0 0 0 0 0 0 0 0 0 0 0 0 0 0 0 0 0 127 0"/><feOffset dx="-.26" dy=".52"/><feGaussianBlur stdDeviation=".13"/><feComposite in2="hardAlpha" k2="-1" k3="1" operator="arithmetic"/><feColorMatrix values="0 0 0 0 1 0 0 0 0 1 0 0 0 0 1 0 0 0 0.5 0"/><feBlend in2="shape" result="effect3_innerShadow_1092_4837"/></filter><filter id="e" width="37.4" height="37.948" x="16.967" y="16.573" color-interpolation-filters="sRGB" filterUnits="userSpaceOnUse"><feFlood flood-opacity="0" result="BackgroundImageFix"/><feBlend in="SourceGraphic" in2="BackgroundImageFix" result="shape"/><feGaussianBlur result="effect1_foregroundBlur_1092_4837" stdDeviation=".2"/></filter><filter id="f" width="36.333" height="36.88" x="17.5" y="17.106" color-interpolation-filters="sRGB" filterUnits="userSpaceOnUse"><feFlood flood-opacity="0" result="BackgroundImageFix"/><feBlend in="SourceGraphic" in2="BackgroundImageFix" result="shape"/><feGaussianBlur result="effect1_foregroundBlur_1092_4837" stdDeviation=".133"/></filter></defs></svg>