<svg xmlns="http://www.w3.org/2000/svg" width="70" height="71" fill="none"><g filter="url(#a)" style="mix-blend-mode:hard-light"><ellipse cx="35.204" cy="35.442" fill="#8F00FF" fill-opacity=".2" rx="20.723" ry="21.005"/></g><g filter="url(#b)" style="mix-blend-mode:hard-light"><path stroke="#C0F" stroke-linecap="round" stroke-linejoin="round" stroke-width="2.6" d="M17.936 22.104h5.833m0 0a4.167 4.167 0 0 0 8.333 0m-8.333 0a4.167 4.167 0 1 1 8.333 0m12.5 13.334a6.667 6.667 0 0 0 0-13.334h-12.5m12.5 13.334a4.167 4.167 0 1 1-8.333 0m8.333 0a4.167 4.167 0 1 0-8.333 0m-10 13.333a6.667 6.667 0 1 1 0-13.334h10m-10 13.334a4.167 4.167 0 1 0 8.333 0m-8.333 0a4.167 4.167 0 0 1 8.333 0m0 0h10m.224 3.673c.067.412.463.606.848.446.68-.282 1.894-.83 3.732-1.823 1.231-.665 2.042-1.197 2.571-1.597.661-.498.662-1.308 0-1.807-.529-.4-1.34-.932-2.57-1.596-1.839-.992-3.052-1.542-3.733-1.824-.385-.16-.78.035-.848.446-.106.647-.224 1.825-.224 3.878 0 2.052.118 3.23.224 3.877Z"/></g><g filter="url(#c)" style="mix-blend-mode:hard-light"><path stroke="#C0F" stroke-linecap="round" stroke-linejoin="round" stroke-width="3.4" d="M17.936 22.104h5.833m0 0a4.167 4.167 0 0 0 8.333 0m-8.333 0a4.167 4.167 0 1 1 8.333 0m12.5 13.334a6.667 6.667 0 0 0 0-13.334h-12.5m12.5 13.334a4.167 4.167 0 1 1-8.333 0m8.333 0a4.167 4.167 0 1 0-8.333 0m-10 13.333a6.667 6.667 0 1 1 0-13.334h10m-10 13.334a4.167 4.167 0 1 0 8.333 0m-8.333 0a4.167 4.167 0 0 1 8.333 0m0 0h10m.224 3.673c.067.412.463.606.848.446.68-.282 1.894-.83 3.732-1.823 1.231-.665 2.042-1.197 2.571-1.597.661-.498.662-1.308 0-1.807-.529-.4-1.34-.932-2.57-1.596-1.839-.992-3.052-1.542-3.733-1.824-.385-.16-.78.035-.848.446-.106.647-.224 1.825-.224 3.878 0 2.052.118 3.23.224 3.877Z"/></g><g filter="url(#d)" style="mix-blend-mode:hard-light"><path stroke="#6100FF" stroke-linecap="round" stroke-linejoin="round" stroke-opacity=".2" stroke-width="2.6" d="M17.936 22.104h5.833m0 0a4.167 4.167 0 0 0 8.333 0m-8.333 0a4.167 4.167 0 1 1 8.333 0m12.5 13.334a6.667 6.667 0 0 0 0-13.334h-12.5m12.5 13.334a4.167 4.167 0 1 1-8.333 0m8.333 0a4.167 4.167 0 1 0-8.333 0m-10 13.333a6.667 6.667 0 1 1 0-13.334h10m-10 13.334a4.167 4.167 0 1 0 8.333 0m-8.333 0a4.167 4.167 0 0 1 8.333 0m0 0h10m.224 3.673c.067.412.463.606.848.446.68-.282 1.894-.83 3.732-1.823 1.231-.665 2.042-1.197 2.571-1.597.661-.498.662-1.308 0-1.807-.529-.4-1.34-.932-2.57-1.596-1.839-.992-3.052-1.542-3.733-1.824-.385-.16-.78.035-.848.446-.106.647-.224 1.825-.224 3.878 0 2.052.118 3.23.224 3.877Z"/></g><g filter="url(#e)"><path stroke="#C882FF" stroke-linecap="round" stroke-linejoin="round" stroke-width="1.6" d="M17.936 22.104h5.833m0 0a4.167 4.167 0 0 0 8.333 0m-8.333 0a4.167 4.167 0 1 1 8.333 0m12.5 13.334a6.667 6.667 0 0 0 0-13.334h-12.5m12.5 13.334a4.167 4.167 0 1 1-8.333 0m8.333 0a4.167 4.167 0 1 0-8.333 0m-10 13.333a6.667 6.667 0 1 1 0-13.334h10m-10 13.334a4.167 4.167 0 1 0 8.333 0m-8.333 0a4.167 4.167 0 0 1 8.333 0m0 0h10m.224 3.673c.067.412.463.606.848.446.68-.282 1.894-.83 3.732-1.823 1.231-.665 2.042-1.197 2.571-1.597.661-.498.662-1.308 0-1.807-.529-.4-1.34-.932-2.57-1.596-1.839-.992-3.052-1.542-3.733-1.824-.385-.16-.78.035-.848.446-.106.647-.224 1.825-.224 3.878 0 2.052.118 3.23.224 3.877Z"/></g><g filter="url(#f)"><path stroke="#fff" stroke-linecap="round" stroke-linejoin="round" stroke-width=".8" d="M17.936 22.104h5.833m0 0a4.167 4.167 0 0 0 8.333 0m-8.333 0a4.167 4.167 0 1 1 8.333 0m12.5 13.334a6.667 6.667 0 0 0 0-13.334h-12.5m12.5 13.334a4.167 4.167 0 1 1-8.333 0m8.333 0a4.167 4.167 0 1 0-8.333 0m-10 13.333a6.667 6.667 0 1 1 0-13.334h10m-10 13.334a4.167 4.167 0 1 0 8.333 0m-8.333 0a4.167 4.167 0 0 1 8.333 0m0 0h10m.224 3.673c.067.412.463.606.848.446.68-.282 1.894-.83 3.732-1.823 1.231-.665 2.042-1.197 2.571-1.597.661-.498.662-1.308 0-1.807-.529-.4-1.34-.932-2.57-1.596-1.839-.992-3.052-1.542-3.733-1.824-.385-.16-.78.035-.848.446-.106.647-.224 1.825-.224 3.878 0 2.052.118 3.23.224 3.877Z"/></g><defs><filter id="a" width="65.445" height="66.01" x="2.481" y="2.437" color-interpolation-filters="sRGB" filterUnits="userSpaceOnUse"><feFlood flood-opacity="0" result="BackgroundImageFix"/><feBlend in="SourceGraphic" in2="BackgroundImageFix" result="shape"/><feGaussianBlur result="effect1_foregroundBlur_1092_4916" stdDeviation="6"/></filter><filter id="b" width="61.137" height="61.608" x="4.636" y="4.637" color-interpolation-filters="sRGB" filterUnits="userSpaceOnUse"><feFlood flood-opacity="0" result="BackgroundImageFix"/><feBlend in="SourceGraphic" in2="BackgroundImageFix" result="shape"/><feGaussianBlur result="effect1_foregroundBlur_1092_4916" stdDeviation="6"/></filter><filter id="c" width="45.938" height="46.408" x="12.235" y="12.238" color-interpolation-filters="sRGB" filterUnits="userSpaceOnUse"><feFlood flood-opacity="0" result="BackgroundImageFix"/><feBlend in="SourceGraphic" in2="BackgroundImageFix" result="shape"/><feGaussianBlur result="effect1_foregroundBlur_1092_4916" stdDeviation="2"/></filter><filter id="d" width="47.537" height="48.008" x="11.436" y="15.438" color-interpolation-filters="sRGB" filterUnits="userSpaceOnUse"><feFlood flood-opacity="0" result="BackgroundImageFix"/><feColorMatrix in="SourceAlpha" result="hardAlpha" values="0 0 0 0 0 0 0 0 0 0 0 0 0 0 0 0 0 0 127 0"/><feOffset dy="2.6"/><feGaussianBlur stdDeviation="1"/><feColorMatrix values="0 0 0 0 0.055 0 0 0 0 0 0 0 0 0 0.082 0 0 0 0.7 0"/><feBlend in2="BackgroundImageFix" mode="multiply" result="effect1_dropShadow_1092_4916"/><feColorMatrix in="SourceAlpha" result="hardAlpha" values="0 0 0 0 0 0 0 0 0 0 0 0 0 0 0 0 0 0 127 0"/><feOffset dy="4"/><feGaussianBlur stdDeviation="2.6"/><feColorMatrix values="0 0 0 0 0.514 0 0 0 0 0 0 0 0 0 0.756 0 0 0 1 0"/><feBlend in2="effect1_dropShadow_1092_4916" mode="color-dodge" result="effect2_dropShadow_1092_4916"/><feBlend in="SourceGraphic" in2="effect2_dropShadow_1092_4916" result="shape"/><feColorMatrix in="SourceAlpha" result="hardAlpha" values="0 0 0 0 0 0 0 0 0 0 0 0 0 0 0 0 0 0 127 0"/><feOffset dx="-.26" dy=".52"/><feGaussianBlur stdDeviation=".13"/><feComposite in2="hardAlpha" k2="-1" k3="1" operator="arithmetic"/><feColorMatrix values="0 0 0 0 1 0 0 0 0 1 0 0 0 0 1 0 0 0 0.5 0"/><feBlend in2="shape" result="effect3_innerShadow_1092_4916"/></filter><filter id="e" width="36.937" height="37.408" x="16.736" y="16.738" color-interpolation-filters="sRGB" filterUnits="userSpaceOnUse"><feFlood flood-opacity="0" result="BackgroundImageFix"/><feBlend in="SourceGraphic" in2="BackgroundImageFix" result="shape"/><feGaussianBlur result="effect1_foregroundBlur_1092_4916" stdDeviation=".2"/></filter><filter id="f" width="35.871" height="36.342" x="17.269" y="17.271" color-interpolation-filters="sRGB" filterUnits="userSpaceOnUse"><feFlood flood-opacity="0" result="BackgroundImageFix"/><feBlend in="SourceGraphic" in2="BackgroundImageFix" result="shape"/><feGaussianBlur result="effect1_foregroundBlur_1092_4916" stdDeviation=".133"/></filter></defs></svg>