<svg xmlns="http://www.w3.org/2000/svg" width="72" height="71" fill="none"><g filter="url(#a)" style="mix-blend-mode:hard-light"><ellipse cx="35.82" cy="35.58" fill="#8F00FF" fill-opacity=".2" rx="21.292" ry="21.088"/></g><g filter="url(#b)" style="mix-blend-mode:hard-light"><path stroke="#C0F" stroke-linecap="round" stroke-linejoin="round" stroke-width="2.6" d="M34.743 53.153c-.35-2.3-1.03-4.035-1.56-5.117-.416-.852-1.276-1.35-2.223-1.416a52.184 52.184 0 0 0-3.515-.134 52.859 52.859 0 0 0-3.72.149c-.826.06-1.59.447-2.03 1.148-.66 1.053-1.573 2.882-1.952 5.37m17.953-17.548c3.275 3.607 6.526 7.236 9.754 10.886.846.958 2.082 1.597 3.227 1.026a5.929 5.929 0 0 0 1.54-1.13c.458-.449.84-.97 1.13-1.54.571-1.145-.067-2.381-1.026-3.227-3.65-3.227-7.28-6.479-10.887-9.754M18.077 53.153H36.41m3.423-34.433c-1.154-.969-2.681-.939-3.848.015-1.234 1.01-3.14 2.704-5.928 5.492-2.789 2.788-4.481 4.694-5.492 5.928-.953 1.166-.983 2.694-.015 3.848a43.038 43.038 0 0 0 2.53 2.727 42.808 42.808 0 0 0 2.727 2.53c1.154.968 2.681.938 3.847-.016 1.235-1.01 3.142-2.703 5.93-5.492 2.787-2.787 4.48-4.693 5.491-5.928.953-1.166.983-2.694.015-3.848a42.855 42.855 0 0 0-2.53-2.726 42.617 42.617 0 0 0-2.727-2.53Z"/></g><g filter="url(#c)" style="mix-blend-mode:hard-light"><path stroke="#C0F" stroke-linecap="round" stroke-linejoin="round" stroke-width="3.4" d="M34.743 53.153c-.35-2.3-1.03-4.035-1.56-5.117-.416-.852-1.276-1.35-2.223-1.416a52.184 52.184 0 0 0-3.515-.134 52.859 52.859 0 0 0-3.72.149c-.826.06-1.59.447-2.03 1.148-.66 1.053-1.573 2.882-1.952 5.37m17.953-17.548c3.275 3.607 6.526 7.236 9.754 10.886.846.958 2.082 1.597 3.227 1.026a5.929 5.929 0 0 0 1.54-1.13c.458-.449.84-.97 1.13-1.54.571-1.145-.067-2.381-1.026-3.227-3.65-3.227-7.28-6.479-10.887-9.754M18.077 53.153H36.41m3.423-34.433c-1.154-.969-2.681-.939-3.848.015-1.234 1.01-3.14 2.704-5.928 5.492-2.789 2.788-4.481 4.694-5.492 5.928-.953 1.166-.983 2.694-.015 3.848a43.038 43.038 0 0 0 2.53 2.727 42.808 42.808 0 0 0 2.727 2.53c1.154.968 2.681.938 3.847-.016 1.235-1.01 3.142-2.703 5.93-5.492 2.787-2.787 4.48-4.693 5.491-5.928.953-1.166.983-2.694.015-3.848a42.855 42.855 0 0 0-2.53-2.726 42.617 42.617 0 0 0-2.727-2.53Z"/></g><g filter="url(#d)" style="mix-blend-mode:hard-light"><path stroke="#6100FF" stroke-linecap="round" stroke-linejoin="round" stroke-opacity=".2" stroke-width="2.6" d="M34.743 53.153c-.35-2.3-1.03-4.035-1.56-5.117-.416-.852-1.276-1.35-2.223-1.416a52.184 52.184 0 0 0-3.515-.134 52.859 52.859 0 0 0-3.72.149c-.826.06-1.59.447-2.03 1.148-.66 1.053-1.573 2.882-1.952 5.37m17.953-17.548c3.275 3.607 6.526 7.236 9.754 10.886.846.958 2.082 1.597 3.227 1.026a5.929 5.929 0 0 0 1.54-1.13c.458-.449.84-.97 1.13-1.54.571-1.145-.067-2.381-1.026-3.227-3.65-3.227-7.28-6.479-10.887-9.754M18.077 53.153H36.41m3.423-34.433c-1.154-.969-2.681-.939-3.848.015-1.234 1.01-3.14 2.704-5.928 5.492-2.789 2.788-4.481 4.694-5.492 5.928-.953 1.166-.983 2.694-.015 3.848a43.038 43.038 0 0 0 2.53 2.727 42.808 42.808 0 0 0 2.727 2.53c1.154.968 2.681.938 3.847-.016 1.235-1.01 3.142-2.703 5.93-5.492 2.787-2.787 4.48-4.693 5.491-5.928.953-1.166.983-2.694.015-3.848a42.855 42.855 0 0 0-2.53-2.726 42.617 42.617 0 0 0-2.727-2.53Z"/></g><g filter="url(#e)"><path stroke="#C882FF" stroke-linecap="round" stroke-linejoin="round" stroke-width="1.6" d="M34.743 53.153c-.35-2.3-1.03-4.035-1.56-5.117-.416-.852-1.276-1.35-2.223-1.416a52.184 52.184 0 0 0-3.515-.134 52.859 52.859 0 0 0-3.72.149c-.826.06-1.59.447-2.03 1.148-.66 1.053-1.573 2.882-1.952 5.37m17.953-17.548c3.275 3.607 6.526 7.236 9.754 10.886.846.958 2.082 1.597 3.227 1.026a5.929 5.929 0 0 0 1.54-1.13c.458-.449.84-.97 1.13-1.54.571-1.145-.067-2.381-1.026-3.227-3.65-3.227-7.28-6.479-10.887-9.754M18.077 53.153H36.41m3.423-34.433c-1.154-.969-2.681-.939-3.848.015-1.234 1.01-3.14 2.704-5.928 5.492-2.789 2.788-4.481 4.694-5.492 5.928-.953 1.166-.983 2.694-.015 3.848a43.038 43.038 0 0 0 2.53 2.727 42.808 42.808 0 0 0 2.727 2.53c1.154.968 2.681.938 3.847-.016 1.235-1.01 3.142-2.703 5.93-5.492 2.787-2.787 4.48-4.693 5.491-5.928.953-1.166.983-2.694.015-3.848a42.855 42.855 0 0 0-2.53-2.726 42.617 42.617 0 0 0-2.727-2.53Z"/></g><g filter="url(#f)"><path stroke="#fff" stroke-linecap="round" stroke-linejoin="round" stroke-width=".8" d="M34.743 53.153c-.35-2.3-1.03-4.035-1.56-5.117-.416-.852-1.276-1.35-2.223-1.416a52.184 52.184 0 0 0-3.515-.134 52.859 52.859 0 0 0-3.72.149c-.826.06-1.59.447-2.03 1.148-.66 1.053-1.573 2.882-1.952 5.37m17.953-17.548c3.275 3.607 6.526 7.236 9.754 10.886.846.958 2.082 1.597 3.227 1.026a5.929 5.929 0 0 0 1.54-1.13c.458-.449.84-.97 1.13-1.54.571-1.145-.067-2.381-1.026-3.227-3.65-3.227-7.28-6.479-10.887-9.754M18.077 53.153H36.41m3.423-34.433c-1.154-.969-2.681-.939-3.848.015-1.234 1.01-3.14 2.704-5.928 5.492-2.789 2.788-4.481 4.694-5.492 5.928-.953 1.166-.983 2.694-.015 3.848a43.038 43.038 0 0 0 2.53 2.727 42.808 42.808 0 0 0 2.727 2.53c1.154.968 2.681.938 3.847-.016 1.235-1.01 3.142-2.703 5.93-5.492 2.787-2.787 4.48-4.693 5.491-5.928.953-1.166.983-2.694.015-3.848a42.855 42.855 0 0 0-2.53-2.726 42.617 42.617 0 0 0-2.727-2.53Z"/></g><defs><filter id="a" width="66.584" height="66.176" x="2.528" y="2.492" color-interpolation-filters="sRGB" filterUnits="userSpaceOnUse"><feFlood flood-opacity="0" result="BackgroundImageFix"/><feBlend in="SourceGraphic" in2="BackgroundImageFix" result="shape"/><feGaussianBlur result="effect1_foregroundBlur_1092_4939" stdDeviation="6"/></filter><filter id="b" width="62.094" height="61.747" x="4.777" y="4.707" color-interpolation-filters="sRGB" filterUnits="userSpaceOnUse"><feFlood flood-opacity="0" result="BackgroundImageFix"/><feBlend in="SourceGraphic" in2="BackgroundImageFix" result="shape"/><feGaussianBlur result="effect1_foregroundBlur_1092_4939" stdDeviation="6"/></filter><filter id="c" width="46.897" height="46.547" x="12.377" y="12.306" color-interpolation-filters="sRGB" filterUnits="userSpaceOnUse"><feFlood flood-opacity="0" result="BackgroundImageFix"/><feBlend in="SourceGraphic" in2="BackgroundImageFix" result="shape"/><feGaussianBlur result="effect1_foregroundBlur_1092_4939" stdDeviation="2"/></filter><filter id="d" width="48.494" height="48.147" x="11.577" y="15.507" color-interpolation-filters="sRGB" filterUnits="userSpaceOnUse"><feFlood flood-opacity="0" result="BackgroundImageFix"/><feColorMatrix in="SourceAlpha" result="hardAlpha" values="0 0 0 0 0 0 0 0 0 0 0 0 0 0 0 0 0 0 127 0"/><feOffset dy="2.6"/><feGaussianBlur stdDeviation="1"/><feColorMatrix values="0 0 0 0 0.055 0 0 0 0 0 0 0 0 0 0.082 0 0 0 0.7 0"/><feBlend in2="BackgroundImageFix" mode="multiply" result="effect1_dropShadow_1092_4939"/><feColorMatrix in="SourceAlpha" result="hardAlpha" values="0 0 0 0 0 0 0 0 0 0 0 0 0 0 0 0 0 0 127 0"/><feOffset dy="4"/><feGaussianBlur stdDeviation="2.6"/><feColorMatrix values="0 0 0 0 0.514 0 0 0 0 0 0 0 0 0 0.756 0 0 0 1 0"/><feBlend in2="effect1_dropShadow_1092_4939" mode="color-dodge" result="effect2_dropShadow_1092_4939"/><feBlend in="SourceGraphic" in2="effect2_dropShadow_1092_4939" result="shape"/><feColorMatrix in="SourceAlpha" result="hardAlpha" values="0 0 0 0 0 0 0 0 0 0 0 0 0 0 0 0 0 0 127 0"/><feOffset dx="-.26" dy=".52"/><feGaussianBlur stdDeviation=".13"/><feComposite in2="hardAlpha" k2="-1" k3="1" operator="arithmetic"/><feColorMatrix values="0 0 0 0 1 0 0 0 0 1 0 0 0 0 1 0 0 0 0.5 0"/><feBlend in2="shape" result="effect3_innerShadow_1092_4939"/></filter><filter id="e" width="37.891" height="37.547" x="16.877" y="16.806" color-interpolation-filters="sRGB" filterUnits="userSpaceOnUse"><feFlood flood-opacity="0" result="BackgroundImageFix"/><feBlend in="SourceGraphic" in2="BackgroundImageFix" result="shape"/><feGaussianBlur result="effect1_foregroundBlur_1092_4939" stdDeviation=".2"/></filter><filter id="f" width="36.822" height="36.48" x="17.41" y="17.34" color-interpolation-filters="sRGB" filterUnits="userSpaceOnUse"><feFlood flood-opacity="0" result="BackgroundImageFix"/><feBlend in="SourceGraphic" in2="BackgroundImageFix" result="shape"/><feGaussianBlur result="effect1_foregroundBlur_1092_4939" stdDeviation=".133"/></filter></defs></svg>