<svg xmlns="http://www.w3.org/2000/svg" width="74" height="73" fill="none"><g filter="url(#a)" style="mix-blend-mode:hard-light"><ellipse cx="37.031" cy="36.314" fill="#8F00FF" fill-opacity=".2" rx="22.019" ry="21.518"/></g><g filter="url(#b)" style="mix-blend-mode:hard-light"><path fill="#C0F" d="m35.355 21.144-1.3.039 1.3-.039Zm-1.887-1.818.063-1.298h-.002l-.061 1.298Zm-12.89.001.063 1.299-.062-1.299Zm-1.887 1.818-1.3-.038 1.3.038Zm0 1.147-1.3.039 1.3-.039Zm1.888 1.818-.063 1.299h.002l.06-1.299Zm12.889 0-.062-1.3h-.001l.063 1.3Zm1.887-1.819-1.3-.039 1.3.04Zm19.957 28.382 1.287-.182v-.003l-1.287.185Zm-1.644-1.25.051-1.299-.05 1.3Zm-33.273 0-.05-1.299.05 1.3Zm-1.643 1.25-1.287-.184-.001.008 1.288.176Zm-.07 1.07h1.3v-.007l-1.3.008Zm.07 1.072-1.288.181V53l1.287-.184Zm1.643 1.249-.05 1.299.05-1.3Zm33.273 0 .05 1.299h.001l-.05-1.3Zm1.643-1.25-1.286-.185v.002l1.286.184Zm-19.956-21.66-1.3.038 1.3-.038Zm-1.887-1.819-.064 1.299.064-1.299Zm-12.89 0-.062-1.298.063 1.299Zm-1.887 1.819-1.3-.039 1.3.039Zm0 1.146-1.3.039 1.3-.038Zm1.888 1.819-.064 1.298h.003l.06-1.298Zm12.889-.001.063 1.298-.063-1.298Zm1.887-1.818-1.3-.04v.001l1.3.039Zm19.957 8.364 1.287-.181v-.004l-1.287.185Zm-1.644-1.25.051-1.298-.05 1.299Zm-33.273 0-.05-1.298.05 1.299Zm-1.643 1.25-1.287-.183-.001.008 1.288.175Zm-.07 1.071h1.3v-.008l-1.3.008Zm.07 1.071-1.288.182v.003l1.287-.185Zm1.643 1.25-.05 1.299.05-1.3Zm33.273 0 .05 1.299h.001l-.05-1.3Zm1.643-1.25-1.286-.185v.002l1.286.183Zm-.907-11.633 1.296.097-1.296-.097Zm-2.592 2.769.155 1.29-.155-1.29Zm-9.543 0-.156 1.29.156-1.29Zm-2.593-2.77-1.296.096v.002l1.296-.097Zm6.174-9.448-.013-1.3.013 1.3Zm2.38 0 .013-1.3-.013 1.3Zm.11-3.342a1.3 1.3 0 1 0-2.6 0h2.6Zm-2.6 3.336a1.3 1.3 0 1 0 2.6 0h-2.6Zm.098 5.838a1.3 1.3 0 1 0-2.6 0h2.6Zm-2.6.835a1.3 1.3 0 1 0 2.6 0h-2.6Zm7.604-.834a1.3 1.3 0 1 0-2.6 0h2.6Zm-2.6.834a1.3 1.3 0 1 0 2.6 0h-2.6Zm-11.587-7.285c-.055-1.836-1.479-2.998-3.124-3.078l-.126 2.597c.264.012.422.1.503.177.073.069.142.178.148.381l2.599-.077Zm-3.126-3.078c-1.215-.057-3.22-.112-6.506-.112v2.6c3.26 0 5.223.054 6.384.109l.122-2.597Zm-6.506-.112c-3.285 0-5.291.054-6.507.113l.126 2.597c1.159-.057 3.12-.11 6.381-.11v-2.6Zm-6.506.113c-1.647.078-3.07 1.241-3.125 3.078l2.599.077c.006-.204.075-.314.147-.382.082-.076.24-.164.503-.176l-.124-2.597Zm-3.125 3.078c-.012.408-.012.816 0 1.224l2.599-.078c-.011-.356-.011-.713 0-1.07l-2.6-.076Zm0 1.224c.054 1.835 1.478 2.998 3.124 3.078l.126-2.597c-.264-.013-.422-.101-.504-.178-.072-.068-.141-.178-.148-.38l-2.598.077Zm3.125 3.078c1.215.057 3.22.111 6.506.111v-2.6c-3.26 0-5.222-.054-6.383-.108l-.123 2.597Zm6.506.111c3.285 0 5.292-.053 6.508-.112l-.126-2.597c-1.16.056-3.121.11-6.382.11v2.6Zm6.507-.112c1.647-.079 3.07-1.242 3.125-3.078l-2.6-.077c-.005.203-.075.313-.147.381-.081.076-.239.164-.502.177l.124 2.597Zm3.125-3.078c.012-.408.012-.816 0-1.225l-2.6.078c.011.357.011.713 0 1.07l2.6.077Zm19.944 28.158c-.24-1.669-1.732-2.319-2.88-2.364l-.102 2.598c.21.008.335.066.384.1.021.015.024.022.02.017-.003-.006.001-.004.004.019l2.574-.37Zm-2.88-2.364c-1.91-.074-6.435-.183-16.687-.183v2.6c10.241 0 14.726.109 16.586.181l.1-2.598Zm-16.687-.183c-10.253 0-14.777.109-16.687.183l.1 2.598c1.86-.072 6.345-.18 16.587-.18v-2.6Zm-16.688.183c-1.146.045-2.64.694-2.879 2.365l2.574.367c.003-.023.007-.024.003-.018-.003.005 0-.002.02-.016.049-.034.174-.091.384-.1l-.102-2.598Zm-2.88 2.373a8.905 8.905 0 0 0-.081 1.254l2.6-.015a6.298 6.298 0 0 1 .057-.888l-2.576-.35Zm-.081 1.247c0 .483.031.898.08 1.252l2.575-.363a6.388 6.388 0 0 1-.055-.89h-2.6Zm.081 1.255c.24 1.669 1.732 2.319 2.88 2.364l.102-2.598c-.21-.008-.335-.065-.384-.1-.02-.015-.023-.021-.02-.017.003.006 0 .004-.004-.019l-2.574.37Zm2.88 2.364c1.91.074 6.435.183 16.688.183v-2.6c-10.242 0-14.727-.109-16.586-.181l-.102 2.598Zm16.688.183c10.252 0 14.777-.109 16.687-.183l-.101-2.598c-1.86.072-6.345.18-16.586.18v2.6Zm16.687-.183c1.147-.045 2.641-.694 2.88-2.365l-2.575-.367c-.003.023-.007.024-.003.018.003-.005 0 .002-.02.016-.048.035-.174.092-.384.1l.102 2.598ZM56.598 53c.051-.357.082-.772.082-1.256h-2.6c0 .373-.023.663-.055.885l2.573.37Zm.082-1.256a8.98 8.98 0 0 0-.08-1.253l-2.575.363c.032.225.055.517.055.89h2.6ZM36.655 31.115c-.055-1.837-1.479-2.998-3.124-3.078l-.126 2.597c.264.013.422.1.503.177.072.068.142.178.148.381l2.599-.077Zm-3.123-3.078c-1.217-.06-3.225-.112-6.509-.112v2.6c3.262 0 5.223.052 6.381.109l.128-2.597Zm-6.509-.112c-3.285 0-5.291.053-6.507.112l.126 2.597c1.159-.056 3.12-.11 6.381-.11v-2.6Zm-6.508.112c-1.645.08-3.069 1.241-3.123 3.078l2.599.078c.006-.204.075-.314.147-.382.082-.076.24-.164.504-.177l-.127-2.597Zm-3.123 3.078c-.012.408-.012.816 0 1.224l2.599-.077c-.011-.357-.011-.713 0-1.07l-2.6-.077Zm0 1.224c.054 1.837 1.479 2.997 3.123 3.078l.128-2.597c-.265-.013-.423-.101-.505-.178-.072-.068-.141-.178-.148-.38l-2.598.077Zm3.126 3.078c1.214.057 3.22.112 6.505.112v-2.6c-3.26 0-5.222-.054-6.383-.109l-.122 2.597Zm6.505.112c3.285 0 5.292-.054 6.508-.113l-.126-2.597c-1.16.057-3.121.11-6.382.11v2.6Zm6.508-.113c1.645-.08 3.07-1.24 3.124-3.078l-2.6-.077c-.005.203-.075.313-.147.381-.081.077-.239.165-.503.177l.126 2.597Zm3.124-3.077c.012-.409.012-.816 0-1.224l-2.6.078c.011.356.011.711 0 1.068l2.6.078Zm19.944 8.14c-.24-1.668-1.732-2.318-2.88-2.363l-.102 2.598c.21.008.335.065.384.1.021.014.024.021.02.017-.003-.006.001-.004.004.018l2.574-.37Zm-2.88-2.363c-1.91-.075-6.435-.183-16.687-.183v2.6c10.241 0 14.726.108 16.586.18l.1-2.597Zm-16.687-.183c-10.253 0-14.777.108-16.687.183l.1 2.598c1.86-.072 6.345-.18 16.587-.18v-2.6Zm-16.688.183c-1.146.045-2.64.693-2.879 2.365l2.574.367c.003-.023.007-.025.003-.018-.003.005 0-.002.02-.017.049-.034.174-.09.384-.1l-.102-2.597Zm-2.88 2.373a8.907 8.907 0 0 0-.081 1.254l2.6-.016a6.299 6.299 0 0 1 .057-.887l-2.576-.351Zm-.081 1.246c0 .484.031.898.08 1.253l2.575-.364a6.39 6.39 0 0 1-.055-.889h-2.6Zm.081 1.256c.24 1.669 1.732 2.319 2.88 2.364l.102-2.598c-.21-.009-.335-.066-.384-.1-.02-.015-.024-.022-.02-.017.003.006 0 .004-.004-.019l-2.574.37Zm2.88 2.364c1.91.074 6.435.182 16.688.182v-2.6c-10.242 0-14.727-.108-16.586-.18l-.101 2.598Zm16.688.182c10.252 0 14.777-.108 16.687-.182l-.101-2.598c-1.86.072-6.345.18-16.586.18v2.6Zm16.687-.182c1.146-.045 2.641-.694 2.88-2.365l-2.575-.367c-.003.023-.007.024-.003.018.003-.005 0 .001-.02.016-.048.034-.174.091-.384.1l.102 2.598Zm2.879-2.364c.051-.357.082-.772.082-1.256h-2.6c0 .373-.023.664-.055.886l2.573.37Zm.082-1.256c0-.483-.03-.898-.08-1.252l-2.575.363c.032.224.055.517.055.89h2.6Zm-3.573-10.659c-.063.847-.672 1.481-1.45 1.575l.31 2.582c2.077-.25 3.583-1.944 3.733-3.963l-2.593-.194Zm-1.45 1.575a39.15 39.15 0 0 1-4.617.278v2.6a41.73 41.73 0 0 0 4.927-.296l-.31-2.582Zm-4.617.278a39.17 39.17 0 0 1-4.617-.278l-.31 2.582c1.285.154 2.993.296 4.927.296v-2.6Zm-4.616-.278c-.779-.094-1.388-.728-1.451-1.575l-2.593.194c.15 2.019 1.656 3.713 3.733 3.963l.31-2.582Zm-1.451-1.573a44.99 44.99 0 0 1-.14-3.104h-2.6c0 1.045.071 2.264.147 3.294l2.593-.19Zm-.14-3.104c0-2.754 2.206-4.921 5.03-4.95l-.026-2.6c-4.179.043-7.603 3.3-7.603 7.55h2.6Zm5.03-4.95c.785-.008 1.57-.008 2.354 0l.026-2.6c-.802-.008-1.604-.008-2.406 0l.026 2.6Zm2.354 0c2.824.028 5.03 2.196 5.03 4.95h2.6c0-4.25-3.425-7.508-7.604-7.55l-.026 2.6Zm5.03 4.95c0 .948-.065 2.093-.14 3.102l2.593.193a47.01 47.01 0 0 0 .146-3.295h-2.6Zm-7.507-9.592v3.336h2.6v-3.336h-2.6Zm-2.502 9.174v.835h2.6v-.834h-2.6Zm5.004 0v.835h2.6v-.834h-2.6Z"/></g><g filter="url(#c)" style="mix-blend-mode:hard-light"><path fill="#C0F" d="m35.355 21.144-1.699.05v.002l1.7-.052Zm-1.887-1.818.082-1.698h-.002l-.08 1.698Zm-12.89.001.082 1.698-.081-1.698Zm-1.887 1.818-1.7-.05 1.7.05Zm0 1.147-1.7.05 1.7-.05Zm1.888 1.818-.083 1.698h.003l.08-1.698Zm12.889 0-.081-1.699h-.002l.083 1.698Zm1.887-1.819-1.699-.05 1.7.05Zm19.957 28.382 1.683-.238v-.004l-1.683.242Zm-1.644-1.25.067-1.698-.067 1.698Zm-33.273 0-.066-1.698.066 1.698Zm-1.643 1.25-1.683-.24-.001.01 1.684.23Zm-.07 1.07h1.7v-.01l-1.7.01Zm.07 1.072-1.684.237v.004l1.683-.241Zm1.643 1.249-.066 1.699.066-1.7Zm33.273 0 .066 1.699-.066-1.7Zm1.643-1.25-1.682-.242v.003l1.682.24Zm-19.956-21.66-1.699.05 1.7-.05Zm-1.887-1.819-.084 1.698h.001l.083-1.698Zm-12.89 0-.082-1.698.083 1.698Zm-1.887 1.819-1.7-.05 1.7.05Zm0 1.146-1.7.05v.001l1.7-.05Zm1.888 1.819-.084 1.698h.004l.08-1.698Zm12.889-.001.082 1.698-.082-1.698Zm1.887-1.818-1.699-.051 1.7.05Zm19.957 8.364 1.683-.237v-.005l-1.683.242Zm-1.644-1.25.067-1.698-.067 1.699Zm-33.273 0-.066-1.698.066 1.699Zm-1.643 1.25-1.683-.24-.001.01 1.684.23Zm-.07 1.071h1.7v-.01l-1.7.01Zm.07 1.071-1.684.238v.004l1.683-.242Zm1.643 1.25-.067 1.698h.001l.066-1.698Zm33.273 0 .066 1.698-.066-1.698Zm1.643-1.25-1.682-.242v.002l1.682.24Zm-.907-11.633 1.695.126-1.695-.126Zm-2.592 2.769.202 1.688-.202-1.688Zm-9.543 0-.204 1.688h.001l.203-1.688Zm-2.593-2.77-1.695.126v.001l1.695-.126Zm6.174-9.448-.017-1.7.017 1.7Zm2.38 0 .017-1.7-.017 1.7Zm.51-3.342a1.7 1.7 0 1 0-3.4 0h3.4Zm-3.4 3.336a1.7 1.7 0 1 0 3.4 0h-3.4Zm.898 5.838a1.7 1.7 0 0 0-3.4 0h3.4Zm-3.4.835a1.7 1.7 0 0 0 3.4 0h-3.4Zm8.404-.834a1.7 1.7 0 1 0-3.4 0h3.4Zm-3.4.834a1.7 1.7 0 1 0 3.4 0h-3.4Zm-10.788-7.297c-.061-2.073-1.68-3.377-3.504-3.466l-.165 3.396c.182.01.245.066.249.07a.024.024 0 0 1 .007.01.25.25 0 0 1 .015.09l3.398-.1Zm-3.506-3.466c-1.223-.057-3.235-.112-6.525-.112v3.4c3.256 0 5.212.054 6.365.108l.16-3.396Zm-6.525-.112c-3.288 0-5.302.054-6.527.113l.165 3.396c1.15-.056 3.105-.109 6.362-.109v-3.4Zm-6.526.113c-1.826.087-3.443 1.393-3.505 3.466l3.398.1a.254.254 0 0 1 .016-.091.023.023 0 0 1 .006-.01c.004-.003.067-.06.248-.069l-.163-3.396Zm-3.505 3.466c-.012.416-.012.832 0 1.248l3.398-.101c-.01-.349-.01-.698 0-1.046l-3.398-.101Zm0 1.248c.062 2.073 1.68 3.377 3.504 3.465l.165-3.396c-.181-.009-.245-.066-.249-.07a.025.025 0 0 1-.006-.01.249.249 0 0 1-.016-.09l-3.398.1Zm3.507 3.465c1.222.058 3.235.112 6.524.112v-3.4c-3.256 0-5.212-.054-6.364-.108l-.16 3.396Zm6.524.112c3.289 0 5.302-.053 6.527-.113l-.164-3.396c-1.151.056-3.106.11-6.363.11v3.4Zm6.526-.113c1.826-.087 3.444-1.392 3.505-3.465l-3.398-.101a.253.253 0 0 1-.015.092.024.024 0 0 1-.007.01c-.003.003-.066.06-.247.068l.162 3.396Zm3.505-3.465c.013-.416.013-.832 0-1.249l-3.398.102c.01.349.01.697 0 1.045l3.398.102Zm19.94 28.089c-.278-1.936-2.007-2.657-3.26-2.706l-.132 3.397a.608.608 0 0 1 .15.023c.032.01.035.015.019.004a.343.343 0 0 1-.087-.096.372.372 0 0 1-.055-.138l3.366-.484Zm-3.26-2.706c-1.918-.075-6.448-.184-16.702-.184v3.4c10.24 0 14.718.109 16.57.181l.132-3.397Zm-16.702-.184c-10.254 0-14.785.109-16.703.184l.132 3.397c1.852-.072 6.33-.18 16.57-.18v-3.4Zm-16.703.184c-1.25.049-2.983.768-3.26 2.708l3.366.48a.372.372 0 0 1-.055.139.346.346 0 0 1-.087.097c-.017.011-.015.006.017-.004a.613.613 0 0 1 .152-.023l-.133-3.397Zm-3.261 2.718c-.06.435-.088.873-.085 1.31l3.4-.02a5.888 5.888 0 0 1 .053-.83l-3.368-.46Zm-.085 1.3c0 .502.032.935.085 1.309l3.366-.475a6.007 6.007 0 0 1-.051-.833h-3.4Zm.085 1.313c.279 1.936 2.008 2.658 3.26 2.707l.134-3.398a.61.61 0 0 1-.151-.023c-.032-.01-.035-.015-.018-.004a.343.343 0 0 1 .086.096c.035.055.05.107.055.139l-3.366.483Zm3.261 2.707c1.918.074 6.448.183 16.703.183v-3.4c-10.24 0-14.719-.109-16.57-.18l-.133 3.397Zm16.703.183c10.254 0 14.784-.109 16.702-.183l-.132-3.398c-1.852.072-6.33.18-16.57.18v3.4Zm16.703-.183c1.25-.05 2.983-.77 3.26-2.709l-3.367-.48a.372.372 0 0 1 .055-.139.347.347 0 0 1 .088-.097c.016-.011.014-.005-.018.004a.607.607 0 0 1-.151.023l.133 3.398Zm3.259-2.706a9.22 9.22 0 0 0 .086-1.313h-3.4c0 .356-.022.627-.051.828l3.365.485Zm.086-1.313c0-.501-.032-.934-.085-1.309l-3.366.475c.029.205.051.479.051.834h3.4Zm-20.026-20.64c-.061-2.075-1.68-3.378-3.504-3.466l-.165 3.395c.182.01.246.067.25.07a.024.024 0 0 1 .006.01.253.253 0 0 1 .015.091l3.398-.1Zm-3.503-3.466c-1.226-.06-3.24-.113-6.528-.113v3.4c3.258 0 5.212.052 6.361.108l.167-3.396Zm-6.528-.113c-3.288 0-5.302.053-6.527.113l.165 3.395c1.15-.055 3.105-.108 6.362-.108v-3.4Zm-6.527.113c-1.824.088-3.442 1.391-3.504 3.465l3.398.101a.25.25 0 0 1 .016-.092.023.023 0 0 1 .006-.01c.004-.002.067-.06.25-.069l-.166-3.396Zm-3.504 3.465c-.012.416-.012.832 0 1.248l3.398-.1c-.01-.35-.01-.698 0-1.047l-3.398-.1Zm0 1.248c.062 2.074 1.68 3.376 3.503 3.466l.168-3.396c-.183-.01-.247-.067-.25-.07a.023.023 0 0 1-.008-.01.247.247 0 0 1-.015-.091l-3.398.101Zm3.507 3.466c1.222.057 3.235.112 6.524.112v-3.4c-3.256 0-5.212-.054-6.365-.108l-.16 3.396Zm6.524.112c3.289 0 5.302-.054 6.527-.113l-.164-3.396c-1.151.056-3.106.109-6.363.109v3.4Zm6.527-.113c1.824-.089 3.443-1.392 3.505-3.466l-3.399-.1a.254.254 0 0 1-.015.091.025.025 0 0 1-.007.01c-.003.003-.067.06-.249.069l.165 3.396Zm3.504-3.465c.013-.416.013-.832 0-1.248l-3.398.102c.01.348.01.695 0 1.044l3.398.102Zm19.94 8.071c-.278-1.935-2.007-2.657-3.26-2.706l-.133 3.398a.611.611 0 0 1 .151.022c.032.01.035.016.019.005a.343.343 0 0 1-.087-.096.373.373 0 0 1-.055-.139l3.366-.484Zm-3.26-2.706c-1.918-.075-6.448-.183-16.702-.183v3.4c10.24 0 14.718.108 16.57.18l.132-3.397Zm-16.702-.183c-10.254 0-14.785.108-16.703.183l.132 3.398c1.852-.072 6.33-.18 16.57-.18v-3.4Zm-16.703.183c-1.25.05-2.983.769-3.26 2.708l3.366.48a.37.37 0 0 1-.055.14.346.346 0 0 1-.087.096c-.017.012-.014.006.018-.004a.613.613 0 0 1 .15-.023l-.133-3.397Zm-3.261 2.719a9.3 9.3 0 0 0-.085 1.31l3.4-.02a5.891 5.891 0 0 1 .053-.831l-3.368-.46Zm-.085 1.3c0 .501.032.934.085 1.309l3.366-.475a6.008 6.008 0 0 1-.051-.834h-3.4Zm.085 1.313c.279 1.936 2.009 2.657 3.26 2.706l.134-3.397a.605.605 0 0 1-.151-.023c-.032-.01-.035-.016-.018-.004a.344.344 0 0 1 .086.096c.035.054.05.106.055.138l-3.366.484Zm3.261 2.706c1.918.075 6.448.183 16.703.183v-3.4c-10.24 0-14.719-.108-16.57-.18l-.133 3.397Zm16.703.183c10.254 0 14.784-.108 16.702-.183l-.132-3.397c-1.852.072-6.33.18-16.57.18v3.4Zm16.703-.183c1.25-.049 2.983-.769 3.26-2.708l-3.367-.48a.373.373 0 0 1 .055-.14.348.348 0 0 1 .088-.096c.016-.012.014-.006-.018.004a.614.614 0 0 1-.151.023l.133 3.397Zm3.259-2.706a9.22 9.22 0 0 0 .086-1.313h-3.4c0 .356-.022.628-.051.829l3.365.484Zm.086-1.313c0-.5-.032-.934-.085-1.308l-3.366.475c.029.204.051.478.051.833h3.4ZM52.71 31.047c-.05.666-.522 1.137-1.1 1.207l.406 3.376c2.277-.274 3.92-2.131 4.084-4.33l-3.39-.253Zm-1.1 1.207a38.73 38.73 0 0 1-4.569.275v3.4c1.954 0 3.678-.144 4.974-.3l-.405-3.375Zm-4.569.275a38.75 38.75 0 0 1-4.569-.275l-.405 3.376c1.297.155 3.02.299 4.974.299v-3.4Zm-4.568-.275c-.58-.07-1.05-.541-1.1-1.207l-3.39.252c.163 2.2 1.807 4.057 4.083 4.33l.407-3.375Zm-1.1-1.206a44.597 44.597 0 0 1-.138-3.074h-3.4c0 1.06.071 2.29.147 3.324l3.39-.25Zm-.138-3.074c0-2.524 2.018-4.523 4.633-4.55l-.034-3.4c-4.387.045-8 3.47-8 7.95h3.4Zm4.633-4.55c.782-.008 1.564-.008 2.346 0l.034-3.4c-.805-.008-1.61-.008-2.414 0l.034 3.4Zm2.346 0c2.615.026 4.633 2.026 4.633 4.55h3.4c0-4.48-3.611-7.906-7.999-7.95l-.034 3.4Zm4.633 4.55c0 .933-.063 2.066-.137 3.073l3.39.252a47.37 47.37 0 0 0 .147-3.325h-3.4Zm-7.506-9.592v3.336h3.4v-3.336h-3.4Zm-2.502 9.174v.835h3.4v-.834h-3.4Zm5.004 0v.835h3.4v-.834h-3.4Z"/></g><g filter="url(#d)" style="mix-blend-mode:hard-light"><path fill="#6100FF" fill-opacity=".2" d="m35.355 21.144-1.3.039 1.3-.039Zm-1.887-1.818.063-1.298h-.002l-.061 1.298Zm-12.89.001.063 1.299-.062-1.299Zm-1.887 1.818-1.3-.038 1.3.038Zm0 1.147-1.3.039 1.3-.039Zm1.888 1.818-.063 1.299h.002l.06-1.299Zm12.889 0-.062-1.3h-.001l.063 1.3Zm1.887-1.819-1.3-.039 1.3.04Zm19.957 28.382 1.287-.182v-.003l-1.287.185Zm-1.644-1.25.051-1.299-.05 1.3Zm-33.273 0-.05-1.299.05 1.3Zm-1.643 1.25-1.287-.184-.001.008 1.288.176Zm-.07 1.07h1.3v-.007l-1.3.008Zm.07 1.072-1.288.181V53l1.287-.184Zm1.643 1.249-.05 1.299.05-1.3Zm33.273 0 .05 1.299h.001l-.05-1.3Zm1.643-1.25-1.286-.185v.002l1.286.184Zm-19.956-21.66-1.3.038 1.3-.038Zm-1.887-1.819-.064 1.299.064-1.299Zm-12.89 0-.062-1.298.063 1.299Zm-1.887 1.819-1.3-.039 1.3.039Zm0 1.146-1.3.039 1.3-.038Zm1.888 1.819-.064 1.298h.003l.06-1.298Zm12.889-.001.063 1.298-.063-1.298Zm1.887-1.818-1.3-.04v.001l1.3.039Zm19.957 8.364 1.287-.181v-.004l-1.287.185Zm-1.644-1.25.051-1.298-.05 1.299Zm-33.273 0-.05-1.298.05 1.299Zm-1.643 1.25-1.287-.183-.001.008 1.288.175Zm-.07 1.071h1.3v-.008l-1.3.008Zm.07 1.071-1.288.182v.003l1.287-.185Zm1.643 1.25-.05 1.299.05-1.3Zm33.273 0 .05 1.299h.001l-.05-1.3Zm1.643-1.25-1.286-.185v.002l1.286.183Zm-.907-11.633 1.296.097-1.296-.097Zm-2.592 2.769.155 1.29-.155-1.29Zm-9.543 0-.156 1.29.156-1.29Zm-2.593-2.77-1.296.096v.002l1.296-.097Zm6.174-9.448-.013-1.3.013 1.3Zm2.38 0 .013-1.3-.013 1.3Zm.11-3.342a1.3 1.3 0 1 0-2.6 0h2.6Zm-2.6 3.336a1.3 1.3 0 1 0 2.6 0h-2.6Zm.098 5.838a1.3 1.3 0 1 0-2.6 0h2.6Zm-2.6.835a1.3 1.3 0 1 0 2.6 0h-2.6Zm7.604-.834a1.3 1.3 0 1 0-2.6 0h2.6Zm-2.6.834a1.3 1.3 0 1 0 2.6 0h-2.6Zm-11.587-7.285c-.055-1.836-1.479-2.998-3.124-3.078l-.126 2.597c.264.012.422.1.503.177.073.069.142.178.148.381l2.599-.077Zm-3.126-3.078c-1.215-.057-3.22-.112-6.506-.112v2.6c3.26 0 5.223.054 6.384.109l.122-2.597Zm-6.506-.112c-3.285 0-5.291.054-6.507.113l.126 2.597c1.159-.057 3.12-.11 6.381-.11v-2.6Zm-6.506.113c-1.647.078-3.07 1.241-3.125 3.078l2.599.077c.006-.204.075-.314.147-.382.082-.076.24-.164.503-.176l-.124-2.597Zm-3.125 3.078c-.012.408-.012.816 0 1.224l2.599-.078c-.011-.356-.011-.713 0-1.07l-2.6-.076Zm0 1.224c.054 1.835 1.478 2.998 3.124 3.078l.126-2.597c-.264-.013-.422-.101-.504-.178-.072-.068-.141-.178-.148-.38l-2.598.077Zm3.125 3.078c1.215.057 3.22.111 6.506.111v-2.6c-3.26 0-5.222-.054-6.383-.108l-.123 2.597Zm6.506.111c3.285 0 5.292-.053 6.508-.112l-.126-2.597c-1.16.056-3.121.11-6.382.11v2.6Zm6.507-.112c1.647-.079 3.07-1.242 3.125-3.078l-2.6-.077c-.005.203-.075.313-.147.381-.081.076-.239.164-.502.177l.124 2.597Zm3.125-3.078c.012-.408.012-.816 0-1.225l-2.6.078c.011.357.011.713 0 1.07l2.6.077Zm19.944 28.158c-.24-1.669-1.732-2.319-2.88-2.364l-.102 2.598c.21.008.335.066.384.1.021.015.024.022.02.017-.003-.006.001-.004.004.019l2.574-.37Zm-2.88-2.364c-1.91-.074-6.435-.183-16.687-.183v2.6c10.241 0 14.726.109 16.586.181l.1-2.598Zm-16.687-.183c-10.253 0-14.777.109-16.687.183l.1 2.598c1.86-.072 6.345-.18 16.587-.18v-2.6Zm-16.688.183c-1.146.045-2.64.694-2.879 2.365l2.574.367c.003-.023.007-.024.003-.018-.003.005 0-.002.02-.016.049-.034.174-.091.384-.1l-.102-2.598Zm-2.88 2.373a8.905 8.905 0 0 0-.081 1.254l2.6-.015a6.298 6.298 0 0 1 .057-.888l-2.576-.35Zm-.081 1.247c0 .483.031.898.08 1.252l2.575-.363a6.388 6.388 0 0 1-.055-.89h-2.6Zm.081 1.255c.24 1.669 1.732 2.319 2.88 2.364l.102-2.598c-.21-.008-.335-.065-.384-.1-.02-.015-.023-.021-.02-.017.003.006 0 .004-.004-.019l-2.574.37Zm2.88 2.364c1.91.074 6.435.183 16.688.183v-2.6c-10.242 0-14.727-.109-16.586-.181l-.102 2.598Zm16.688.183c10.252 0 14.777-.109 16.687-.183l-.101-2.598c-1.86.072-6.345.18-16.586.18v2.6Zm16.687-.183c1.147-.045 2.641-.694 2.88-2.365l-2.575-.367c-.003.023-.007.024-.003.018.003-.005 0 .002-.02.016-.048.035-.174.092-.384.1l.102 2.598ZM56.598 53c.051-.357.082-.772.082-1.256h-2.6c0 .373-.023.663-.055.885l2.573.37Zm.082-1.256a8.98 8.98 0 0 0-.08-1.253l-2.575.363c.032.225.055.517.055.89h2.6ZM36.655 31.115c-.055-1.837-1.479-2.998-3.124-3.078l-.126 2.597c.264.013.422.1.503.177.072.068.142.178.148.381l2.599-.077Zm-3.123-3.078c-1.217-.06-3.225-.112-6.509-.112v2.6c3.262 0 5.223.052 6.381.109l.128-2.597Zm-6.509-.112c-3.285 0-5.291.053-6.507.112l.126 2.597c1.159-.056 3.12-.11 6.381-.11v-2.6Zm-6.508.112c-1.645.08-3.069 1.241-3.123 3.078l2.599.078c.006-.204.075-.314.147-.382.082-.076.24-.164.504-.177l-.127-2.597Zm-3.123 3.078c-.012.408-.012.816 0 1.224l2.599-.077c-.011-.357-.011-.713 0-1.07l-2.6-.077Zm0 1.224c.054 1.837 1.479 2.997 3.123 3.078l.128-2.597c-.265-.013-.423-.101-.505-.178-.072-.068-.141-.178-.148-.38l-2.598.077Zm3.126 3.078c1.214.057 3.22.112 6.505.112v-2.6c-3.26 0-5.222-.054-6.383-.109l-.122 2.597Zm6.505.112c3.285 0 5.292-.054 6.508-.113l-.126-2.597c-1.16.057-3.121.11-6.382.11v2.6Zm6.508-.113c1.645-.08 3.07-1.24 3.124-3.078l-2.6-.077c-.005.203-.075.313-.147.381-.081.077-.239.165-.503.177l.126 2.597Zm3.124-3.077c.012-.409.012-.816 0-1.224l-2.6.078c.011.356.011.711 0 1.068l2.6.078Zm19.944 8.14c-.24-1.668-1.732-2.318-2.88-2.363l-.102 2.598c.21.008.335.065.384.1.021.014.024.021.02.017-.003-.006.001-.004.004.018l2.574-.37Zm-2.88-2.363c-1.91-.075-6.435-.183-16.687-.183v2.6c10.241 0 14.726.108 16.586.18l.1-2.597Zm-16.687-.183c-10.253 0-14.777.108-16.687.183l.1 2.598c1.86-.072 6.345-.18 16.587-.18v-2.6Zm-16.688.183c-1.146.045-2.64.693-2.879 2.365l2.574.367c.003-.023.007-.025.003-.018-.003.005 0-.002.02-.017.049-.034.174-.09.384-.1l-.102-2.597Zm-2.88 2.373a8.907 8.907 0 0 0-.081 1.254l2.6-.016a6.299 6.299 0 0 1 .057-.887l-2.576-.351Zm-.081 1.246c0 .484.031.898.08 1.253l2.575-.364a6.39 6.39 0 0 1-.055-.889h-2.6Zm.081 1.256c.24 1.669 1.732 2.319 2.88 2.364l.102-2.598c-.21-.009-.335-.066-.384-.1-.02-.015-.024-.022-.02-.017.003.006 0 .004-.004-.019l-2.574.37Zm2.88 2.364c1.91.074 6.435.182 16.688.182v-2.6c-10.242 0-14.727-.108-16.586-.18l-.101 2.598Zm16.688.182c10.252 0 14.777-.108 16.687-.182l-.101-2.598c-1.86.072-6.345.18-16.586.18v2.6Zm16.687-.182c1.146-.045 2.641-.694 2.88-2.365l-2.575-.367c-.003.023-.007.024-.003.018.003-.005 0 .001-.02.016-.048.034-.174.091-.384.1l.102 2.598Zm2.879-2.364c.051-.357.082-.772.082-1.256h-2.6c0 .373-.023.664-.055.886l2.573.37Zm.082-1.256c0-.483-.03-.898-.08-1.252l-2.575.363c.032.224.055.517.055.89h2.6Zm-3.573-10.659c-.063.847-.672 1.481-1.45 1.575l.31 2.582c2.077-.25 3.583-1.944 3.733-3.963l-2.593-.194Zm-1.45 1.575a39.15 39.15 0 0 1-4.617.278v2.6a41.73 41.73 0 0 0 4.927-.296l-.31-2.582Zm-4.617.278a39.17 39.17 0 0 1-4.617-.278l-.31 2.582c1.285.154 2.993.296 4.927.296v-2.6Zm-4.616-.278c-.779-.094-1.388-.728-1.451-1.575l-2.593.194c.15 2.019 1.656 3.713 3.733 3.963l.31-2.582Zm-1.451-1.573a44.99 44.99 0 0 1-.14-3.104h-2.6c0 1.045.071 2.264.147 3.294l2.593-.19Zm-.14-3.104c0-2.754 2.206-4.921 5.03-4.95l-.026-2.6c-4.179.043-7.603 3.3-7.603 7.55h2.6Zm5.03-4.95c.785-.008 1.57-.008 2.354 0l.026-2.6c-.802-.008-1.604-.008-2.406 0l.026 2.6Zm2.354 0c2.824.028 5.03 2.196 5.03 4.95h2.6c0-4.25-3.425-7.508-7.604-7.55l-.026 2.6Zm5.03 4.95c0 .948-.065 2.093-.14 3.102l2.593.193a47.01 47.01 0 0 0 .146-3.295h-2.6Zm-7.507-9.592v3.336h2.6v-3.336h-2.6Zm-2.502 9.174v.835h2.6v-.834h-2.6Zm5.004 0v.835h2.6v-.834h-2.6Z"/></g><g filter="url(#e)"><path fill="#C882FF" d="m35.355 21.144-.8.024.8-.024Zm-1.887-1.818.039-.799h-.002l-.037.8Zm-12.89.001.039.8-.038-.8Zm-1.887 1.818-.8-.024.8.024Zm0 1.147-.8.024.8-.024Zm1.888 1.818-.04.8h.002l.038-.8Zm12.889 0-.038-.8h-.001l.039.8Zm1.887-1.819-.8-.024.8.024Zm19.957 28.382.792-.112v-.002l-.792.114Zm-1.644-1.25.032-.8-.032.8Zm-33.273 0-.031-.8.031.8Zm-1.643 1.25-.792-.113v.005l.792.108Zm-.07 1.07h.8v-.004l-.8.005Zm.07 1.072-.793.111v.002l.792-.113Zm1.643 1.249-.031.8.031-.8Zm33.273 0 .031.8-.03-.8Zm1.643-1.25-.792-.114v.002l.792.113Zm-19.956-21.66-.8.023.8-.023Zm-1.887-1.819-.04.8.04-.8Zm-12.89 0-.038-.799.039.8Zm-1.887 1.819-.8-.024.8.024Zm0 1.146-.8.024.8-.023Zm1.888 1.819-.04.799h.002l.038-.8Zm12.889-.001.038.799-.038-.8Zm1.887-1.818-.8-.024.8.024Zm19.957 8.364.792-.111v-.003l-.792.114Zm-1.644-1.25.032-.799-.032.8Zm-33.273 0-.031-.799.031.8Zm-1.643 1.25-.792-.113v.005l.792.108Zm-.07 1.071h.8v-.005l-.8.005Zm.07 1.071-.793.112v.002l.792-.114Zm1.643 1.25-.031.799.031-.8Zm33.273 0 .031.799-.03-.8Zm1.643-1.25-.792-.114v.001l.792.113Zm-.907-11.633.798.06-.798-.06Zm-2.592 2.769.095.794-.095-.794Zm-9.543 0-.096.794.096-.794Zm-2.593-2.77-.797.06.797-.06Zm6.174-9.448-.008-.8.008.8Zm2.38 0 .008-.8-.008.8Zm-.39-3.342a.8.8 0 0 0-1.6 0h1.6Zm-1.6 3.336a.8.8 0 1 0 1.6 0h-1.6Zm-.902 5.838a.8.8 0 1 0-1.6 0h1.6Zm-1.6.835a.8.8 0 1 0 1.6 0h-1.6Zm6.604-.834a.8.8 0 0 0-1.6 0h1.6Zm-1.6.834a.8.8 0 0 0 1.6 0h-1.6Zm-12.587-7.27c-.046-1.54-1.226-2.525-2.648-2.594l-.078 1.598c.706.035 1.109.452 1.127 1.043l1.599-.047Zm-2.65-2.594c-1.204-.057-3.201-.11-6.482-.11v1.6c3.265 0 5.236.053 6.407.108l.075-1.598Zm-6.482-.11c-3.28 0-5.278.053-6.483.111l.077 1.598c1.17-.057 3.14-.11 6.406-.11v-1.6Zm-6.483.111c-1.422.068-2.603 1.054-2.648 2.593l1.599.048c.017-.592.42-1.01 1.126-1.043l-.077-1.598Zm-2.648 2.594a20.15 20.15 0 0 0 0 1.194l1.599-.048c-.011-.366-.011-.733 0-1.099l-1.6-.047Zm0 1.194c.045 1.54 1.226 2.524 2.648 2.593l.077-1.598c-.706-.034-1.109-.452-1.126-1.043l-1.6.048Zm2.649 2.593c1.204.057 3.202.111 6.482.111v-1.6c-3.265 0-5.236-.054-6.407-.109l-.075 1.598Zm6.482.111c3.28 0 5.278-.053 6.484-.111l-.078-1.599c-1.17.057-3.14.11-6.406.11v1.6Zm6.483-.111c1.423-.069 2.603-1.054 2.649-2.594l-1.6-.048c-.017.592-.42 1.01-1.125 1.043l.076 1.599Zm2.649-2.594c.012-.398.012-.796 0-1.195l-1.6.049c.012.366.012.732 0 1.098l1.6.048ZM56.104 50.56c-.192-1.335-1.387-1.895-2.404-1.935l-.063 1.599c.285.01.508.089.652.19a.52.52 0 0 1 .231.374l1.584-.228Zm-2.405-1.935c-1.9-.074-6.417-.183-16.667-.183v1.6c10.243 0 14.736.109 16.605.182l.062-1.6Zm-16.667-.183c-10.25 0-14.767.109-16.668.183l.062 1.599c1.87-.073 6.362-.181 16.606-.181v-1.6Zm-16.668.183c-1.017.04-2.213.599-2.404 1.936l1.584.226a.518.518 0 0 1 .23-.373c.143-.101.367-.18.652-.19l-.062-1.6Zm-2.405 1.94a8.384 8.384 0 0 0-.076 1.184l1.6-.01c-.002-.32.018-.64.062-.957l-1.586-.216Zm-.076 1.18c0 .462.03.853.076 1.182l1.584-.223a6.886 6.886 0 0 1-.06-.96h-1.6Zm.076 1.184c.192 1.335 1.387 1.896 2.405 1.935l.062-1.599c-.284-.01-.508-.089-.652-.19a.52.52 0 0 1-.23-.373l-1.585.227Zm2.405 1.935c1.9.074 6.417.183 16.668.183v-1.6c-10.244 0-14.736-.109-16.606-.181l-.062 1.598Zm16.668.183c10.25 0 14.767-.109 16.667-.183l-.062-1.599c-1.87.073-6.362.182-16.605.182v1.6Zm16.668-.183c1.016-.04 2.213-.599 2.403-1.936l-1.584-.225a.518.518 0 0 1-.23.372c-.143.101-.367.18-.652.19l.063 1.6Zm2.403-1.934c.048-.332.077-.723.077-1.185h-1.6c0 .394-.025.709-.06.956l1.583.228Zm.077-1.185c0-.462-.03-.854-.076-1.183l-1.584.224c.035.249.06.565.06.959h1.6ZM36.155 31.13c-.046-1.54-1.227-2.524-2.648-2.594l-.078 1.599c.707.034 1.109.451 1.127 1.042l1.599-.047Zm-2.648-2.593c-1.206-.06-3.204-.112-6.484-.112v1.6c3.266 0 5.236.052 6.405.11l.079-1.599Zm-6.484-.112c-3.28 0-5.278.053-6.483.111l.077 1.599c1.17-.057 3.14-.11 6.406-.11v-1.6Zm-6.483.111c-1.422.07-2.603 1.054-2.648 2.594l1.599.048c.017-.592.42-1.01 1.127-1.043l-.078-1.599Zm-2.648 2.594c-.012.398-.012.796 0 1.194l1.599-.047c-.011-.367-.011-.733 0-1.1l-1.6-.047Zm0 1.194c.045 1.54 1.226 2.524 2.647 2.594l.08-1.598c-.709-.035-1.11-.453-1.128-1.043l-1.6.047Zm2.649 2.594c1.204.056 3.201.11 6.482.11v-1.6c-3.265 0-5.236-.053-6.407-.108l-.075 1.598Zm6.482.11c3.28 0 5.278-.053 6.484-.111l-.078-1.598c-1.17.056-3.14.11-6.406.11v1.6Zm6.484-.111c1.421-.07 2.602-1.053 2.648-2.594l-1.6-.047c-.017.591-.42 1.008-1.126 1.043l.078 1.598Zm2.648-2.593c.012-.398.012-.796 0-1.194l-1.6.048c.012.366.012.732 0 1.098l1.6.048Zm19.949 8.226c-.192-1.334-1.387-1.895-2.404-1.935l-.063 1.6c.284.01.508.089.652.19.13.091.207.207.231.373l1.584-.228Zm-2.405-1.935c-1.9-.074-6.417-.182-16.667-.182v1.6c10.243 0 14.736.108 16.605.181l.062-1.599Zm-16.667-.182c-10.25 0-14.767.108-16.668.182l.062 1.6c1.87-.074 6.362-.182 16.606-.182v-1.6Zm-16.668.182c-1.017.04-2.213.6-2.404 1.936l1.584.226a.518.518 0 0 1 .23-.372c.143-.101.367-.18.652-.19l-.062-1.6Zm-2.405 1.941a8.385 8.385 0 0 0-.076 1.184l1.6-.01a6.79 6.79 0 0 1 .062-.958l-1.586-.216Zm-.076 1.18c0 .461.03.853.076 1.182l1.584-.224a6.887 6.887 0 0 1-.06-.959h-1.6Zm.076 1.184c.192 1.335 1.387 1.895 2.405 1.935l.063-1.599c-.285-.011-.51-.09-.653-.19a.52.52 0 0 1-.23-.374l-1.585.228Zm2.405 1.935c1.9.074 6.417.182 16.668.182v-1.6c-10.244 0-14.736-.108-16.606-.18l-.062 1.598Zm16.668.182c10.25 0 14.767-.108 16.667-.182l-.062-1.599c-1.87.073-6.362.181-16.605.181v1.6Zm16.668-.182c1.016-.04 2.213-.6 2.403-1.936l-1.584-.226a.519.519 0 0 1-.23.373c-.143.1-.367.179-.652.19l.063 1.599Zm2.403-1.935c.048-.33.077-.722.077-1.185h-1.6c0 .395-.025.71-.06.957l1.583.228Zm.077-1.185c0-.462-.03-.853-.076-1.182l-1.584.223c.035.25.06.566.06.96h1.6Zm-2.574-10.622c-.08 1.072-.862 1.91-1.89 2.035l.191 1.588c1.828-.22 3.16-1.71 3.295-3.504l-1.596-.119Zm-1.89 2.035a39.637 39.637 0 0 1-4.676.28v1.6c1.91 0 3.599-.14 4.867-.292l-.19-1.588Zm-4.676.28c-1.834 0-3.456-.134-4.676-.28l-.19 1.588c1.268.152 2.956.293 4.866.293v-1.6Zm-4.676-.28c-1.028-.124-1.81-.963-1.89-2.035l-1.595.12c.133 1.793 1.467 3.283 3.294 3.503l.191-1.588Zm-1.89-2.034a45.501 45.501 0 0 1-.14-3.14h-1.6c0 1.027.069 2.23.145 3.258l1.595-.118Zm-.14-3.14c0-3.042 2.44-5.418 5.524-5.45l-.016-1.6c-3.918.04-7.108 3.088-7.108 7.05h1.6Zm5.524-5.45c.788-.008 1.576-.008 2.364 0l.016-1.6c-.799-.008-1.597-.008-2.396 0l.016 1.6Zm2.364 0c3.084.03 5.524 2.408 5.524 5.45h1.6c0-3.962-3.19-7.01-7.108-7.05l-.016 1.6Zm5.524 5.45c0 .967-.065 2.125-.14 3.14l1.596.118c.076-1.027.144-2.232.144-3.258h-1.6Zm-7.506-9.592v3.336h1.6v-3.336h-1.6Zm-2.502 9.174v.835h1.6v-.834h-1.6Zm5.004 0v.835h1.6v-.834h-1.6Z"/></g><g filter="url(#f)"><path fill="#fff" d="m35.355 21.144-.4.012.4-.012Zm-1.887-1.818.02-.4h-.001l-.02.4Zm-12.89.001.02.4-.02-.4Zm-1.887 1.818-.4-.012.4.012Zm0 1.147-.4.012.4-.012Zm1.888 1.818-.02.4.02-.4Zm12.889 0-.02-.4.02.4Zm1.887-1.819-.4-.012.4.012Zm19.957 28.382.396-.056v-.001l-.396.057Zm-1.644-1.25.016-.4-.016.4Zm-33.273 0-.015-.4.015.4Zm-1.643 1.25-.396-.057v.003l.396.054Zm-.07 1.07h.4v-.002l-.4.003Zm.07 1.072-.397.055v.001l.396-.056Zm1.643 1.249-.015.4.015-.4Zm33.273 0 .016.4-.016-.4Zm1.643-1.25-.396-.056.396.056Zm-19.956-21.66-.4.012.4-.012Zm-1.887-1.819-.02.4.02-.4Zm-12.89 0-.019-.399.02.4Zm-1.887 1.819-.4-.012.4.012Zm0 1.146-.4.012.4-.011Zm1.888 1.819-.02.4.02-.4Zm12.889-.001.02.4-.02-.4Zm1.887-1.818-.4-.012.4.012Zm19.957 8.364.396-.056-.396.056Zm-1.644-1.25.016-.399-.016.4Zm-33.273 0-.015-.399.015.4Zm-1.643 1.25-.396-.056v.002l.396.054Zm-.07 1.071h.4v-.002l-.4.002Zm.07 1.071-.397.056v.001l.396-.057Zm1.643 1.25-.016.4.016-.4Zm33.273 0 .016.4-.016-.4Zm1.643-1.25-.396-.057.396.057Zm-.907-11.633.399.03-.4-.03Zm-2.592 2.769.047.397-.047-.397Zm-9.543 0-.048.397.048-.397Zm-2.593-2.77-.399.03.4-.03Zm6.174-9.448-.004-.4.004.4Zm2.38 0 .004-.4-.004.4Zm-.79-3.342a.4.4 0 0 0-.8 0h.8Zm-.8 3.336a.4.4 0 1 0 .8 0h-.8Zm-1.702 5.838a.4.4 0 0 0-.8 0h.8Zm-.8.835a.4.4 0 1 0 .8 0h-.8Zm5.804-.834a.4.4 0 0 0-.8 0h.8Zm-.8.834a.4.4 0 0 0 .8 0h-.8Zm-13.387-7.258c-.039-1.303-1.025-2.146-2.268-2.206l-.039.799c.886.043 1.483.602 1.507 1.43l.8-.023Zm-2.268-2.206c-1.196-.057-3.187-.11-6.464-.11v.8c3.269 0 5.247.053 6.426.109l.038-.8Zm-6.464-.11c-3.276 0-5.267.052-6.464.11l.039.8c1.179-.058 3.156-.11 6.425-.11v-.8Zm-6.463.11c-1.244.06-2.23.904-2.269 2.206l.8.024c.025-.829.622-1.388 1.507-1.43l-.038-.8Zm-2.269 2.206c-.011.39-.011.78 0 1.17l.8-.023a18.943 18.943 0 0 1 0-1.123l-.8-.024Zm0 1.171c.04 1.302 1.025 2.145 2.268 2.206l.039-.8c-.885-.042-1.482-.602-1.507-1.43l-.8.024Zm2.269 2.206c1.196.056 3.187.11 6.463.11v-.8c-3.269 0-5.246-.054-6.426-.11l-.037.8Zm6.463.11c3.277 0 5.268-.053 6.464-.111l-.039-.8c-1.178.058-3.156.111-6.425.111v.8Zm6.464-.111c1.243-.06 2.23-.903 2.268-2.206l-.8-.024c-.024.83-.621 1.389-1.506 1.43l.038.8Zm2.268-2.206c.012-.39.012-.78 0-1.17l-.8.023c.012.375.012.75 0 1.123l.8.024Zm19.953 28.313c-.154-1.068-1.11-1.557-2.024-1.592l-.031.799c.704.028 1.186.373 1.263.907l.792-.114Zm-2.024-1.592c-1.893-.074-6.404-.182-16.652-.182v.8c10.245 0 14.744.108 16.62.181l.032-.8Zm-16.652-.182c-10.25 0-14.76.108-16.652.182l.03.799c1.878-.073 6.376-.181 16.622-.181v-.8Zm-16.652.182c-.913.035-1.872.523-2.024 1.592l.792.113c.076-.534.558-.878 1.263-.906l-.032-.8Zm-2.024 1.595c-.051.373-.076.75-.073 1.127l.8-.005c-.002-.34.02-.678.065-1.014l-.792-.108Zm-.073 1.125c0 .445.028.817.072 1.126l.792-.111a7.286 7.286 0 0 1-.064-1.015h-.8Zm.072 1.127c.154 1.068 1.111 1.557 2.024 1.593l.032-.8c-.705-.027-1.187-.373-1.264-.906l-.792.113Zm2.024 1.593c1.893.073 6.404.182 16.653.182v-.8c-10.246 0-14.744-.109-16.621-.182l-.032.8Zm16.653.182c10.248 0 14.76-.109 16.652-.182l-.031-.8c-1.877.073-6.376.182-16.621.182v.8Zm16.652-.182c.913-.036 1.87-.524 2.023-1.593l-.792-.113c-.076.534-.557.879-1.262.906l.03.8Zm2.023-1.593c.045-.31.073-.682.073-1.127h-.8c0 .411-.026.745-.065 1.014l.792.113Zm.073-1.127c0-.445-.028-.818-.072-1.127l-.792.112c.038.269.064.604.064 1.015h.8ZM35.755 31.142c-.039-1.303-1.025-2.146-2.268-2.206l-.039.799c.886.043 1.483.602 1.507 1.43l.8-.023Zm-2.268-2.206c-1.196-.059-3.188-.111-6.464-.111v.8c3.27 0 5.247.052 6.425.11l.04-.799Zm-6.464-.111c-3.276 0-5.267.053-6.464.111l.039.799c1.179-.057 3.156-.11 6.425-.11v-.8Zm-6.464.111c-1.243.06-2.229.903-2.268 2.206l.8.024c.025-.829.621-1.388 1.507-1.431l-.039-.799Zm-2.268 2.206c-.011.39-.011.78 0 1.17l.8-.023a18.94 18.94 0 0 1 0-1.123l-.8-.024Zm0 1.17c.04 1.303 1.025 2.145 2.268 2.206l.04-.799c-.887-.044-1.483-.603-1.508-1.43l-.8.023Zm2.269 2.206c1.196.056 3.187.11 6.463.11v-.8c-3.269 0-5.246-.053-6.426-.109l-.037.8Zm6.463.11c3.277 0 5.268-.053 6.464-.11l-.039-.8c-1.178.057-3.156.11-6.425.11v.8Zm6.464-.11c1.243-.061 2.23-.903 2.268-2.206l-.8-.024c-.024.828-.621 1.387-1.507 1.43l.04.8Zm2.268-2.206c.012-.39.012-.78 0-1.17l-.8.024c.012.374.012.747 0 1.122l.8.024Zm19.953 8.295c-.154-1.067-1.11-1.556-2.024-1.592l-.031.8c.704.027 1.186.373 1.263.906l.792-.114Zm-2.024-1.592c-1.893-.074-6.404-.182-16.652-.182v.8c10.245 0 14.744.108 16.62.181l.032-.799Zm-16.652-.182c-10.25 0-14.76.108-16.652.182l.03.8c1.878-.073 6.376-.182 16.622-.182v-.8Zm-16.653.182c-.913.036-1.87.524-2.023 1.593l.792.113c.076-.534.558-.879 1.263-.906l-.032-.8Zm-2.023 1.595a7.99 7.99 0 0 0-.073 1.128l.8-.005c-.002-.34.02-.679.065-1.015l-.792-.108Zm-.073 1.125c0 .445.028.818.072 1.127l.792-.112a7.288 7.288 0 0 1-.064-1.015h-.8Zm.072 1.128c.154 1.068 1.111 1.556 2.024 1.592l.032-.8c-.705-.027-1.187-.372-1.264-.906l-.792.114Zm2.025 1.592c1.892.074 6.403.182 16.652.182v-.8c-10.246 0-14.744-.108-16.621-.181l-.031.8Zm16.652.182c10.248 0 14.759-.108 16.652-.182l-.031-.8c-1.877.074-6.376.182-16.621.182v.8Zm16.652-.182c.913-.036 1.87-.523 2.023-1.593l-.792-.112c-.076.533-.557.878-1.262.906l.03.8Zm2.023-1.592c.045-.31.073-.682.073-1.128h-.8c0 .412-.026.745-.065 1.014l.792.114Zm.073-1.128c0-.445-.028-.817-.072-1.127l-.792.112c.038.27.064.604.064 1.015h.8Zm-1.775-10.592c-.093 1.253-1.013 2.254-2.241 2.402l.095.794c1.628-.196 2.823-1.523 2.944-3.136l-.798-.06Zm-2.241 2.402c-1.231.148-2.87.284-4.724.284v.8a40.85 40.85 0 0 0 4.82-.29l-.096-.794Zm-4.724.284c-1.853 0-3.492-.136-4.724-.284l-.095.794c1.257.15 2.928.29 4.82.29v-.8Zm-4.724-.284c-1.228-.148-2.147-1.15-2.24-2.402l-.798.06c.12 1.613 1.315 2.94 2.943 3.136l.095-.794Zm-2.24-2.401a45.835 45.835 0 0 1-.142-3.17h-.8c0 1.012.068 2.204.143 3.228l.798-.058Zm-.142-3.17c0-3.272 2.627-5.816 5.92-5.85l-.008-.8c-3.71.038-6.712 2.918-6.712 6.65h.8Zm5.92-5.85c.79-.008 1.581-.008 2.372 0l.008-.8a120.34 120.34 0 0 0-2.388 0l.008.8Zm2.372 0c3.293.033 5.92 2.578 5.92 5.85h.8c0-3.732-3.002-6.613-6.712-6.65l-.008.8Zm5.92 5.85c0 .982-.066 2.152-.141 3.17l.798.059c.076-1.025.143-2.218.143-3.23h-.8Zm-7.506-9.592v3.336h.8v-3.336h-.8Zm-2.502 9.174v.835h.8v-.834h-.8Zm5.004 0v.835h.8v-.834h-.8Z"/></g><defs><filter id="a" width="68.038" height="67.036" x="3.013" y="2.796" color-interpolation-filters="sRGB" filterUnits="userSpaceOnUse"><feFlood flood-opacity="0" result="BackgroundImageFix"/><feBlend in="SourceGraphic" in2="BackgroundImageFix" result="shape"/><feGaussianBlur result="effect1_foregroundBlur_1092_5012" stdDeviation="6"/></filter><filter id="b" width="63.298" height="62.464" x="5.383" y="5.082" color-interpolation-filters="sRGB" filterUnits="userSpaceOnUse"><feFlood flood-opacity="0" result="BackgroundImageFix"/><feBlend in="SourceGraphic" in2="BackgroundImageFix" result="shape"/><feGaussianBlur result="effect1_foregroundBlur_1092_5012" stdDeviation="6"/></filter><filter id="c" width="48.098" height="47.264" x="12.982" y="12.682" color-interpolation-filters="sRGB" filterUnits="userSpaceOnUse"><feFlood flood-opacity="0" result="BackgroundImageFix"/><feBlend in="SourceGraphic" in2="BackgroundImageFix" result="shape"/><feGaussianBlur result="effect1_foregroundBlur_1092_5012" stdDeviation="2"/></filter><filter id="d" width="49.698" height="48.864" x="12.183" y="15.882" color-interpolation-filters="sRGB" filterUnits="userSpaceOnUse"><feFlood flood-opacity="0" result="BackgroundImageFix"/><feColorMatrix in="SourceAlpha" result="hardAlpha" values="0 0 0 0 0 0 0 0 0 0 0 0 0 0 0 0 0 0 127 0"/><feOffset dy="2.6"/><feGaussianBlur stdDeviation="1"/><feColorMatrix values="0 0 0 0 0.055 0 0 0 0 0 0 0 0 0 0.082 0 0 0 0.7 0"/><feBlend in2="BackgroundImageFix" mode="multiply" result="effect1_dropShadow_1092_5012"/><feColorMatrix in="SourceAlpha" result="hardAlpha" values="0 0 0 0 0 0 0 0 0 0 0 0 0 0 0 0 0 0 127 0"/><feOffset dy="4"/><feGaussianBlur stdDeviation="2.6"/><feColorMatrix values="0 0 0 0 0.514 0 0 0 0 0 0 0 0 0 0.756 0 0 0 1 0"/><feBlend in2="effect1_dropShadow_1092_5012" mode="color-dodge" result="effect2_dropShadow_1092_5012"/><feBlend in="SourceGraphic" in2="effect2_dropShadow_1092_5012" result="shape"/><feColorMatrix in="SourceAlpha" result="hardAlpha" values="0 0 0 0 0 0 0 0 0 0 0 0 0 0 0 0 0 0 127 0"/><feOffset dx="-.26" dy=".52"/><feGaussianBlur stdDeviation=".13"/><feComposite in2="hardAlpha" k2="-1" k3="1" operator="arithmetic"/><feColorMatrix values="0 0 0 0 1 0 0 0 0 1 0 0 0 0 1 0 0 0 0.5 0"/><feBlend in2="shape" result="effect3_innerShadow_1092_5012"/></filter><filter id="e" width="39.098" height="38.264" x="17.483" y="17.182" color-interpolation-filters="sRGB" filterUnits="userSpaceOnUse"><feFlood flood-opacity="0" result="BackgroundImageFix"/><feBlend in="SourceGraphic" in2="BackgroundImageFix" result="shape"/><feGaussianBlur result="effect1_foregroundBlur_1092_5012" stdDeviation=".2"/></filter><filter id="f" width="38.031" height="37.197" x="18.016" y="17.715" color-interpolation-filters="sRGB" filterUnits="userSpaceOnUse"><feFlood flood-opacity="0" result="BackgroundImageFix"/><feBlend in="SourceGraphic" in2="BackgroundImageFix" result="shape"/><feGaussianBlur result="effect1_foregroundBlur_1092_5012" stdDeviation=".133"/></filter></defs></svg>