<svg xmlns="http://www.w3.org/2000/svg" width="71" height="71" fill="none"><g filter="url(#a)" style="mix-blend-mode:hard-light"><circle cx="35.667" cy="35.45" r="21" fill="#8F00FF" fill-opacity=".2"/></g><g filter="url(#b)" style="mix-blend-mode:hard-light"><path stroke="#C0F" stroke-linecap="round" stroke-linejoin="round" stroke-width="2.6" d="M41.917 52.947c3.296-.022 5.704-.177 7.387-.348 1.993-.203 3.406-1.792 3.528-3.791.161-2.631.335-6.952.335-13.358 0-6.405-.174-10.726-.335-13.357-.122-2-1.537-3.59-3.53-3.792-1.822-.185-4.492-.35-8.218-.35s-6.397.165-8.22.35c-1.992.203-3.407 1.794-3.53 3.793-.023.387-.047.811-.07 1.273m-6.067 6.89c.062.57.56.963 1.134.973 1.51.027 4.523.12 7.234.44a.824.824 0 0 1 .487.238l.765.769a209.509 209.509 0 0 0-7.277 8.904.836.836 0 0 1-.664.327h-5.518c-.573 0-1.083.39-1.144.962a9.337 9.337 0 0 0 .02 2.05c.062.528.503.907 1.033.952a116.7 116.7 0 0 0 7.034.395 2.992 2.992 0 0 0 1.71-.48c2.09-1.367 3.838-2.908 3.838-2.908 1.623 1.218 2.136 2.465 2.255 2.818.022.064.03.131.03.2v5.863c0 .573.39 1.082.96 1.143.78.084 1.506.042 2.037-.02.528-.063.907-.504.951-1.034.306-3.643.382-6.328.4-7.437a2.938 2.938 0 0 0-.185-1.091c-1.142-3.023-2.442-4.328-2.442-4.328l1.451-1.458.865.757a3.19 3.19 0 0 0 1.863.792c3.249.237 6.39.082 7.869-.02.53-.038.976-.416 1.038-.943a9.2 9.2 0 0 0 .002-2.056c-.062-.569-.557-.96-1.13-.971-1.404-.028-4.123-.121-6.75-.429a.854.854 0 0 1-.586-.345c-.67-.906-2.858-3.72-6.086-6.392a3.007 3.007 0 0 0-1.686-.682c-3.214-.249-6.824-.08-8.46.024-.534.034-.987.412-1.05.944a9.23 9.23 0 0 0 .002 2.042Zm13.095-2.724a5 5 0 1 0 10 0 5 5 0 0 0-10 0Z"/></g><g filter="url(#c)" style="mix-blend-mode:hard-light"><path stroke="#C0F" stroke-linecap="round" stroke-linejoin="round" stroke-width="3.4" d="M41.917 52.947c3.296-.022 5.704-.177 7.387-.348 1.993-.203 3.406-1.792 3.528-3.791.161-2.631.335-6.952.335-13.358 0-6.405-.174-10.726-.335-13.357-.122-2-1.537-3.59-3.53-3.792-1.822-.185-4.492-.35-8.218-.35s-6.397.165-8.22.35c-1.992.203-3.407 1.794-3.53 3.793-.023.387-.047.811-.07 1.273m-6.067 6.89c.062.57.56.963 1.134.973 1.51.027 4.523.12 7.234.44a.824.824 0 0 1 .487.238l.765.769a209.509 209.509 0 0 0-7.277 8.904.836.836 0 0 1-.664.327h-5.518c-.573 0-1.083.39-1.144.962a9.337 9.337 0 0 0 .02 2.05c.062.528.503.907 1.033.952a116.7 116.7 0 0 0 7.034.395 2.992 2.992 0 0 0 1.71-.48c2.09-1.367 3.838-2.908 3.838-2.908 1.623 1.218 2.136 2.465 2.255 2.818.022.064.03.131.03.2v5.863c0 .573.39 1.082.96 1.143.78.084 1.506.042 2.037-.02.528-.063.907-.504.951-1.034.306-3.643.382-6.328.4-7.437a2.938 2.938 0 0 0-.185-1.091c-1.142-3.023-2.442-4.328-2.442-4.328l1.451-1.458.865.757a3.19 3.19 0 0 0 1.863.792c3.249.237 6.39.082 7.869-.02.53-.038.976-.416 1.038-.943a9.2 9.2 0 0 0 .002-2.056c-.062-.569-.557-.96-1.13-.971-1.404-.028-4.123-.121-6.75-.429a.854.854 0 0 1-.586-.345c-.67-.906-2.858-3.72-6.086-6.392a3.007 3.007 0 0 0-1.686-.682c-3.214-.249-6.824-.08-8.46.024-.534.034-.987.412-1.05.944a9.23 9.23 0 0 0 .002 2.042Zm13.095-2.724a5 5 0 1 0 10 0 5 5 0 0 0-10 0Z"/></g><g filter="url(#d)" style="mix-blend-mode:hard-light"><path stroke="#6100FF" stroke-linecap="round" stroke-linejoin="round" stroke-opacity=".2" stroke-width="2.6" d="M41.917 52.947c3.296-.022 5.704-.177 7.387-.348 1.993-.203 3.406-1.792 3.528-3.791.161-2.631.335-6.952.335-13.358 0-6.405-.174-10.726-.335-13.357-.122-2-1.537-3.59-3.53-3.792-1.822-.185-4.492-.35-8.218-.35s-6.397.165-8.22.35c-1.992.203-3.407 1.794-3.53 3.793-.023.387-.047.811-.07 1.273m-6.067 6.89c.062.57.56.963 1.134.973 1.51.027 4.523.12 7.234.44a.824.824 0 0 1 .487.238l.765.769a209.509 209.509 0 0 0-7.277 8.904.836.836 0 0 1-.664.327h-5.518c-.573 0-1.083.39-1.144.962a9.337 9.337 0 0 0 .02 2.05c.062.528.503.907 1.033.952a116.7 116.7 0 0 0 7.034.395 2.992 2.992 0 0 0 1.71-.48c2.09-1.367 3.838-2.908 3.838-2.908 1.623 1.218 2.136 2.465 2.255 2.818.022.064.03.131.03.2v5.863c0 .573.39 1.082.96 1.143.78.084 1.506.042 2.037-.02.528-.063.907-.504.951-1.034.306-3.643.382-6.328.4-7.437a2.938 2.938 0 0 0-.185-1.091c-1.142-3.023-2.442-4.328-2.442-4.328l1.451-1.458.865.757a3.19 3.19 0 0 0 1.863.792c3.249.237 6.39.082 7.869-.02.53-.038.976-.416 1.038-.943a9.2 9.2 0 0 0 .002-2.056c-.062-.569-.557-.96-1.13-.971-1.404-.028-4.123-.121-6.75-.429a.854.854 0 0 1-.586-.345c-.67-.906-2.858-3.72-6.086-6.392a3.007 3.007 0 0 0-1.686-.682c-3.214-.249-6.824-.08-8.46.024-.534.034-.987.412-1.05.944a9.23 9.23 0 0 0 .002 2.042Zm13.095-2.724a5 5 0 1 0 10 0 5 5 0 0 0-10 0Z"/></g><g filter="url(#e)"><path stroke="#C882FF" stroke-linecap="round" stroke-linejoin="round" stroke-width="1.6" d="M41.917 52.947c3.296-.022 5.704-.177 7.387-.348 1.993-.203 3.406-1.792 3.528-3.791.161-2.631.335-6.952.335-13.358 0-6.405-.174-10.726-.335-13.357-.122-2-1.537-3.59-3.53-3.792-1.822-.185-4.492-.35-8.218-.35s-6.397.165-8.22.35c-1.992.203-3.407 1.794-3.53 3.793-.023.387-.047.811-.07 1.273m-6.067 6.89c.062.57.56.963 1.134.973 1.51.027 4.523.12 7.234.44a.824.824 0 0 1 .487.238l.765.769a209.509 209.509 0 0 0-7.277 8.904.836.836 0 0 1-.664.327h-5.518c-.573 0-1.083.39-1.144.962a9.337 9.337 0 0 0 .02 2.05c.062.528.503.907 1.033.952a116.7 116.7 0 0 0 7.034.395 2.992 2.992 0 0 0 1.71-.48c2.09-1.367 3.838-2.908 3.838-2.908 1.623 1.218 2.136 2.465 2.255 2.818.022.064.03.131.03.2v5.863c0 .573.39 1.082.96 1.143.78.084 1.506.042 2.037-.02.528-.063.907-.504.951-1.034.306-3.643.382-6.328.4-7.437a2.938 2.938 0 0 0-.185-1.091c-1.142-3.023-2.442-4.328-2.442-4.328l1.451-1.458.865.757a3.19 3.19 0 0 0 1.863.792c3.249.237 6.39.082 7.869-.02.53-.038.976-.416 1.038-.943a9.2 9.2 0 0 0 .002-2.056c-.062-.569-.557-.96-1.13-.971-1.404-.028-4.123-.121-6.75-.429a.854.854 0 0 1-.586-.345c-.67-.906-2.858-3.72-6.086-6.392a3.007 3.007 0 0 0-1.686-.682c-3.214-.249-6.824-.08-8.46.024-.534.034-.987.412-1.05.944a9.23 9.23 0 0 0 .002 2.042Zm13.095-2.724a5 5 0 1 0 10 0 5 5 0 0 0-10 0Z"/></g><g filter="url(#f)"><path stroke="#fff" stroke-linecap="round" stroke-linejoin="round" stroke-width=".8" d="M41.917 52.947c3.296-.022 5.704-.177 7.387-.348 1.993-.203 3.406-1.792 3.528-3.791.161-2.631.335-6.952.335-13.358 0-6.405-.174-10.726-.335-13.357-.122-2-1.537-3.59-3.53-3.792-1.822-.185-4.492-.35-8.218-.35s-6.397.165-8.22.35c-1.992.203-3.407 1.794-3.53 3.793-.023.387-.047.811-.07 1.273m-6.067 6.89c.062.57.56.963 1.134.973 1.51.027 4.523.12 7.234.44a.824.824 0 0 1 .487.238l.765.769a209.509 209.509 0 0 0-7.277 8.904.836.836 0 0 1-.664.327h-5.518c-.573 0-1.083.39-1.144.962a9.337 9.337 0 0 0 .02 2.05c.062.528.503.907 1.033.952a116.7 116.7 0 0 0 7.034.395 2.992 2.992 0 0 0 1.71-.48c2.09-1.367 3.838-2.908 3.838-2.908 1.623 1.218 2.136 2.465 2.255 2.818.022.064.03.131.03.2v5.863c0 .573.39 1.082.96 1.143.78.084 1.506.042 2.037-.02.528-.063.907-.504.951-1.034.306-3.643.382-6.328.4-7.437a2.938 2.938 0 0 0-.185-1.091c-1.142-3.023-2.442-4.328-2.442-4.328l1.451-1.458.865.757a3.19 3.19 0 0 0 1.863.792c3.249.237 6.39.082 7.869-.02.53-.038.976-.416 1.038-.943a9.2 9.2 0 0 0 .002-2.056c-.062-.569-.557-.96-1.13-.971-1.404-.028-4.123-.121-6.75-.429a.854.854 0 0 1-.586-.345c-.67-.906-2.858-3.72-6.086-6.392a3.007 3.007 0 0 0-1.686-.682c-3.214-.249-6.824-.08-8.46.024-.534.034-.987.412-1.05.944a9.23 9.23 0 0 0 .002 2.042Zm13.095-2.724a5 5 0 1 0 10 0 5 5 0 0 0-10 0Z"/></g><defs><filter id="a" width="66.001" height="66" x="2.667" y="2.45" color-interpolation-filters="sRGB" filterUnits="userSpaceOnUse"><feFlood flood-opacity="0" result="BackgroundImageFix"/><feBlend in="SourceGraphic" in2="BackgroundImageFix" result="shape"/><feGaussianBlur result="effect1_foregroundBlur_1092_4985" stdDeviation="6"/></filter><filter id="b" width="61.6" height="61.6" x="4.867" y="4.65" color-interpolation-filters="sRGB" filterUnits="userSpaceOnUse"><feFlood flood-opacity="0" result="BackgroundImageFix"/><feBlend in="SourceGraphic" in2="BackgroundImageFix" result="shape"/><feGaussianBlur result="effect1_foregroundBlur_1092_4985" stdDeviation="6"/></filter><filter id="c" width="46.4" height="46.4" x="12.466" y="12.25" color-interpolation-filters="sRGB" filterUnits="userSpaceOnUse"><feFlood flood-opacity="0" result="BackgroundImageFix"/><feBlend in="SourceGraphic" in2="BackgroundImageFix" result="shape"/><feGaussianBlur result="effect1_foregroundBlur_1092_4985" stdDeviation="2"/></filter><filter id="d" width="48" height="48" x="11.667" y="15.45" color-interpolation-filters="sRGB" filterUnits="userSpaceOnUse"><feFlood flood-opacity="0" result="BackgroundImageFix"/><feColorMatrix in="SourceAlpha" result="hardAlpha" values="0 0 0 0 0 0 0 0 0 0 0 0 0 0 0 0 0 0 127 0"/><feOffset dy="2.6"/><feGaussianBlur stdDeviation="1"/><feColorMatrix values="0 0 0 0 0.055 0 0 0 0 0 0 0 0 0 0.082 0 0 0 0.7 0"/><feBlend in2="BackgroundImageFix" mode="multiply" result="effect1_dropShadow_1092_4985"/><feColorMatrix in="SourceAlpha" result="hardAlpha" values="0 0 0 0 0 0 0 0 0 0 0 0 0 0 0 0 0 0 127 0"/><feOffset dy="4"/><feGaussianBlur stdDeviation="2.6"/><feColorMatrix values="0 0 0 0 0.514 0 0 0 0 0 0 0 0 0 0.756 0 0 0 1 0"/><feBlend in2="effect1_dropShadow_1092_4985" mode="color-dodge" result="effect2_dropShadow_1092_4985"/><feBlend in="SourceGraphic" in2="effect2_dropShadow_1092_4985" result="shape"/><feColorMatrix in="SourceAlpha" result="hardAlpha" values="0 0 0 0 0 0 0 0 0 0 0 0 0 0 0 0 0 0 127 0"/><feOffset dx="-.26" dy=".52"/><feGaussianBlur stdDeviation=".13"/><feComposite in2="hardAlpha" k2="-1" k3="1" operator="arithmetic"/><feColorMatrix values="0 0 0 0 1 0 0 0 0 1 0 0 0 0 1 0 0 0 0.5 0"/><feBlend in2="shape" result="effect3_innerShadow_1092_4985"/></filter><filter id="e" width="37.4" height="37.4" x="16.967" y="16.75" color-interpolation-filters="sRGB" filterUnits="userSpaceOnUse"><feFlood flood-opacity="0" result="BackgroundImageFix"/><feBlend in="SourceGraphic" in2="BackgroundImageFix" result="shape"/><feGaussianBlur result="effect1_foregroundBlur_1092_4985" stdDeviation=".2"/></filter><filter id="f" width="36.334" height="36.333" x="17.5" y="17.284" color-interpolation-filters="sRGB" filterUnits="userSpaceOnUse"><feFlood flood-opacity="0" result="BackgroundImageFix"/><feBlend in="SourceGraphic" in2="BackgroundImageFix" result="shape"/><feGaussianBlur result="effect1_foregroundBlur_1092_4985" stdDeviation=".133"/></filter></defs></svg>