<svg width="49" height="48" viewBox="0 0 49 48" fill="none" xmlns="http://www.w3.org/2000/svg">
<g clip-path="url(#clip0)">
<path d="M15.5 34H3.5C2.396 34 1.5 33.104 1.5 32V4C1.5 2.896 2.396 2 3.5 2H45.5C46.604 2 47.5 2.896 47.5 4V32C47.5 33.104 46.604 34 45.5 34H33.5" stroke="" stroke-linecap="round" stroke-linejoin="round"/>
<path d="M1.5 13L12.5 2" stroke="" stroke-linecap="round" stroke-linejoin="round"/>
<path d="M36.5 34L47.5 23" stroke="" stroke-linecap="round" stroke-linejoin="round"/>
<path d="M24.5 36C22.618 36.002 20.814 35.2439 19.5 33.8979V46L24.5 40L29.5 46V33.8979C28.186 35.2439 26.382 36.002 24.5 36Z" stroke="" stroke-linecap="round" stroke-linejoin="round"/>
<path d="M24.5 22C28.366 22 31.5 25.134 31.5 29C31.5 32.866 28.366 36 24.5 36C20.634 36 17.5 32.866 17.5 29C17.5 25.134 20.634 22 24.5 22Z" stroke="" stroke-linecap="round" stroke-linejoin="round"/>
<path d="M24.5 26C26.156 26 27.5 27.344 27.5 29C27.5 30.656 26.156 32 24.5 32C22.844 32 21.5 30.656 21.5 29C21.5 27.344 22.844 26 24.5 26Z" stroke="" stroke-linecap="round" stroke-linejoin="round"/>
<path d="M19.5 8H29.5" stroke="" stroke-linecap="round" stroke-linejoin="round"/>
<path d="M14.5 14H34.5" stroke="" stroke-linecap="round" stroke-linejoin="round"/>
</g>
<defs>
<clipPath id="clip0">
<rect width="48" height="48" fill="white" transform="translate(0.5)"/>
</clipPath>
</defs>
</svg>
