<svg width="49" height="48" viewBox="0 0 49 48" fill="none" xmlns="http://www.w3.org/2000/svg">
<path d="M40.422 29.2622L46.178 39.2302C46.726 40.1822 46.29 40.8122 45.206 40.6302L39.476 39.6622L37.5 45.1182C37.124 46.1522 36.356 46.2242 35.796 45.2762L30.286 36.0002" stroke="" stroke-linecap="round" stroke-linejoin="round"/>
<path d="M8.57798 29.2622L2.82198 39.2302C2.27398 40.1822 2.70998 40.8122 3.79398 40.6302L9.52398 39.6622L12.196 47.0002L18.7 36.0002" stroke="" stroke-linecap="round" stroke-linejoin="round"/>
<path d="M40.178 17.0001C40.178 14.7201 38.786 12.6701 36.666 11.8281C37.882 9.00406 36.578 5.72806 33.754 4.51206C32.348 3.90606 30.756 3.90606 29.35 4.51206C28.214 1.65406 24.976 0.260056 22.118 1.39606C20.694 1.96206 19.568 3.09006 19.002 4.51206C16.178 3.29606 12.902 4.60006 11.686 7.42406C11.08 8.83006 11.08 10.4221 11.686 11.8281C8.82999 12.9641 7.43399 16.2001 8.56999 19.0561C9.13599 20.4781 10.262 21.6061 11.686 22.1721C10.47 24.9961 11.774 28.2721 14.598 29.4881C16.004 30.0941 17.596 30.0941 19.002 29.4881C20.138 32.3461 23.376 33.7401 26.234 32.6041C27.658 32.0381 28.784 30.9101 29.35 29.4881C32.174 30.7041 35.45 29.4001 36.666 26.5761C37.272 25.1701 37.272 23.5781 36.666 22.1721C38.786 21.3301 40.178 19.2801 40.178 17.0001Z" stroke="" stroke-linecap="round" stroke-linejoin="round"/>
<path d="M25.136 8.57206L27.19 13.0001H31.19C31.73 12.9761 32.186 13.3941 32.21 13.9341C32.222 14.2281 32.102 14.5141 31.88 14.7101L28.408 18.1281L30.332 22.5461C30.554 23.0801 30.302 23.6941 29.768 23.9161C29.466 24.0421 29.124 24.0201 28.84 23.8561L24.192 21.2441L19.544 23.8561C19.042 24.1461 18.402 23.9741 18.112 23.4741C17.948 23.1921 17.926 22.8481 18.052 22.5461L19.976 18.1281L16.5 14.7121C16.094 14.3561 16.054 13.7381 16.41 13.3321C16.606 13.1081 16.894 12.9861 17.192 13.0001H21.192L23.252 8.57006C23.524 8.05006 24.164 7.84806 24.684 8.12006C24.878 8.22006 25.036 8.37806 25.136 8.57206Z" stroke="" stroke-linecap="round" stroke-linejoin="round"/>
</svg>
