<svg width="49" height="48" viewBox="0 0 49 48" fill="none" xmlns="http://www.w3.org/2000/svg">
<path d="M20.5 1H41.5C38.738 1 36.5 3.238 36.5 6V42C36.5 44.762 34.262 47 31.5 47" stroke="" stroke-linecap="round" stroke-linejoin="round"/>
<path d="M10.5 37V29" stroke="" stroke-linecap="round" stroke-linejoin="round"/>
<path d="M41.5 1C44.262 1 46.5 3.238 46.5 6C46.5 8.762 44.262 11 41.5 11C38.738 11 36.5 8.762 36.5 6C36.5 3.238 38.738 1 41.5 1Z" stroke="" stroke-linecap="round" stroke-linejoin="round"/>
<path d="M31.5 47C28.738 47 26.5 44.762 26.5 42C26.5 39.238 28.738 37 31.5 37H10.5C7.738 37 5.5 39.238 5.5 42C5.5 44.762 7.738 47 10.5 47H31.5Z" stroke="" stroke-linecap="round" stroke-linejoin="round"/>
<path d="M10.5 17.0002C9.096 17.0022 7.716 16.6342 6.5 15.9302V26.0002L10.5 23.0002L14.5 26.0002V15.9302C13.284 16.6342 11.904 17.0042 10.5 17.0002Z" stroke="" stroke-linecap="round" stroke-linejoin="round"/>
<path d="M10.5 1C14.918 1 18.5 4.582 18.5 9C18.5 13.418 14.918 17 10.5 17C6.082 17 2.5 13.418 2.5 9C2.5 4.582 6.082 1 10.5 1Z" stroke="" stroke-linecap="round" stroke-linejoin="round"/>
<path d="M10.5 6C12.156 6 13.5 7.344 13.5 9C13.5 10.656 12.156 12 10.5 12C8.844 12 7.5 10.656 7.5 9C7.5 7.344 8.844 6 10.5 6Z" stroke="" stroke-linecap="round" stroke-linejoin="round"/>
</svg>
