<svg width="48" height="48" viewBox="0 0 48 48" fill="none" xmlns="http://www.w3.org/2000/svg">
<path d="M24 19.5C28.97 19.5 33 23.53 33 28.5C33 33.47 28.97 37.5 24 37.5C19.03 37.5 15 33.47 15 28.5C15 23.53 19.03 19.5 24 19.5Z" stroke="" stroke-width="1.5" stroke-linecap="round" stroke-linejoin="round"/>
<path d="M24 27.75C23.586 27.75 23.25 28.086 23.25 28.5C23.25 28.914 23.586 29.25 24 29.25C24.414 29.25 24.75 28.914 24.75 28.5C24.75 28.086 24.414 27.75 24 27.75Z" stroke="" stroke-width="1.5" stroke-linecap="round" stroke-linejoin="round"/>
<path d="M16.404 23.678L1.5 10.5L7.5 1.5L18.874 20.956" stroke="" stroke-width="1.5" stroke-linecap="round" stroke-linejoin="round"/>
<path d="M31.596 23.678L46.5 10.5L40.5 1.5L29.128 20.956" stroke="" stroke-width="1.5" stroke-linecap="round" stroke-linejoin="round"/>
<path d="M7.5 1.5H40.5" stroke="" stroke-width="1.5" stroke-linecap="round" stroke-linejoin="round"/>
<path d="M28.5 10.5H24H19.5" stroke="" stroke-width="1.5" stroke-linecap="round" stroke-linejoin="round"/>
<path d="M24 46.5V43.5" stroke="" stroke-width="1.5" stroke-linecap="round" stroke-linejoin="round"/>
<path d="M36.728 41.228L34.608 39.106" stroke="" stroke-width="1.5" stroke-linecap="round" stroke-linejoin="round"/>
<path d="M11.272 41.228L13.394 39.106" stroke="" stroke-width="1.5" stroke-linecap="round" stroke-linejoin="round"/>
<path d="M39 30H42" stroke="" stroke-width="1.5" stroke-linecap="round" stroke-linejoin="round"/>
<path d="M6 30H9" stroke="" stroke-width="1.5" stroke-linecap="round" stroke-linejoin="round"/>
</svg>
